<svg xmlns="http://www.w3.org/2000/svg" width="248" height="247" viewBox="0 0 248 247" fill="none">
	<mask id="path-1-inside-1_315_7911" fill="white">
		<path d="M161.586 160.749L161.586 140.181C161.586 139.761 161.249 139.425 160.828 139.425L115.89 139.425C111.962 139.425 108.782 136.251 108.782 132.33L108.782 87.0956C108.782 86.6754 108.445 86.3393 108.024 86.3393L87.1774 86.3393C86.7566 86.3393 86.4199 86.6754 86.4199 87.0956L86.4199 111.585C86.4199 115.03 87.7947 118.344 90.2357 120.781L127.159 157.65C129.591 160.077 132.892 161.449 136.344 161.459L160.819 161.505C161.24 161.505 161.586 161.169 161.586 160.749Z" />
	</mask>
	<path d="M90.2357 120.781L90.8716 120.144L90.8715 120.144L90.2357 120.781ZM127.159 157.65L126.523 158.286L126.524 158.286L127.159 157.65ZM136.344 161.459L136.341 162.359L136.342 162.359L136.344 161.459ZM160.819 161.505L160.817 162.405L160.819 162.405L160.819 161.505ZM162.486 160.749L162.486 140.181L160.686 140.181L160.686 160.749L162.486 160.749ZM162.486 140.181C162.486 139.263 161.745 138.525 160.828 138.525L160.828 140.325C160.754 140.325 160.686 140.26 160.686 140.181L162.486 140.181ZM160.828 138.525L115.89 138.525L115.89 140.325L160.828 140.325L160.828 138.525ZM115.89 138.525C112.457 138.525 109.682 135.752 109.682 132.33L107.882 132.33C107.882 136.749 111.466 140.325 115.89 140.325L115.89 138.525ZM109.682 132.33L109.682 87.0956L107.882 87.0956L107.882 132.33L109.682 132.33ZM109.682 87.0956C109.682 86.1769 108.941 85.4393 108.024 85.4393L108.024 87.2393C107.949 87.2393 107.882 87.1739 107.882 87.0956L109.682 87.0956ZM108.024 85.4393L87.1774 85.4393L87.1774 87.2393L108.024 87.2393L108.024 85.4393ZM87.1774 85.4393C86.261 85.4393 85.5199 86.1769 85.5199 87.0956L87.3199 87.0956C87.3199 87.1739 87.2522 87.2393 87.1774 87.2393L87.1774 85.4393ZM85.5199 87.0956L85.5199 111.585L87.3199 111.585L87.3199 87.0956L85.5199 87.0956ZM85.5199 111.585C85.5199 115.269 86.9899 118.812 89.5999 121.418L90.8715 120.144C88.5995 117.876 87.3199 114.79 87.3199 111.585L85.5199 111.585ZM89.5998 121.418L126.523 158.286L127.795 157.013L90.8716 120.144L89.5998 121.418ZM126.524 158.286C129.124 160.882 132.653 162.349 136.341 162.359L136.346 160.559C133.132 160.55 130.058 159.272 127.795 157.013L126.524 158.286ZM136.342 162.359L160.817 162.405L160.821 160.605L136.345 160.559L136.342 162.359ZM160.819 162.405C161.721 162.405 162.486 161.682 162.486 160.749L160.686 160.749C160.686 160.656 160.759 160.605 160.819 160.605L160.819 162.405Z" fill="#081224" mask="url(#path-1-inside-1_315_7911)" />
	<mask id="path-3-inside-2_315_7911" fill="white">
		<path d="M53.6547 246.829L74.2224 246.829C74.6425 246.829 74.9786 246.492 74.9786 246.072L74.9786 201.133C74.9786 197.205 78.153 194.025 82.0742 194.025L127.308 194.025C127.728 194.025 128.064 193.688 128.064 193.267L128.064 172.421C128.064 172 127.728 171.663 127.308 171.663L102.819 171.663C99.3742 171.663 96.0599 173.038 93.6231 175.479L56.7543 212.403C54.3269 214.834 52.9545 218.136 52.9451 221.587L52.8984 246.062C52.8984 246.483 53.2345 246.829 53.6547 246.829Z" />
	</mask>
	<path d="M93.6231 175.479L94.26 176.115L94.26 176.115L93.6231 175.479ZM56.7543 212.403L56.1174 211.767L56.1174 211.767L56.7543 212.403ZM52.9451 221.587L52.0451 221.584L52.0451 221.585L52.9451 221.587ZM52.8984 246.062L51.9984 246.06L51.9984 246.062L52.8984 246.062ZM53.6547 247.729L74.2224 247.729L74.2224 245.929L53.6547 245.929L53.6547 247.729ZM74.2224 247.729C75.1411 247.729 75.8786 246.988 75.8786 246.072L74.0786 246.072C74.0786 245.997 74.144 245.929 74.2224 245.929L74.2224 247.729ZM75.8786 246.072L75.8786 201.133L74.0786 201.133L74.0786 246.072L75.8786 246.072ZM75.8786 201.133C75.8786 197.7 78.6515 194.925 82.0742 194.925L82.0742 193.125C77.6544 193.125 74.0786 196.709 74.0786 201.133L75.8786 201.133ZM82.0742 194.925L127.308 194.925L127.308 193.125L82.0742 193.125L82.0742 194.925ZM127.308 194.925C128.227 194.925 128.964 194.184 128.964 193.267L127.164 193.267C127.164 193.193 127.23 193.125 127.308 193.125L127.308 194.925ZM128.964 193.267L128.964 172.421L127.164 172.421L127.164 193.267L128.964 193.267ZM128.964 172.421C128.964 171.504 128.227 170.763 127.308 170.763L127.308 172.563C127.23 172.563 127.164 172.495 127.164 172.421L128.964 172.421ZM127.308 170.763L102.819 170.763L102.819 172.563L127.308 172.563L127.308 170.763ZM102.819 170.763C99.1351 170.763 95.5916 172.233 92.9861 174.843L94.26 176.115C96.5281 173.843 99.6134 172.563 102.819 172.563L102.819 170.763ZM92.9862 174.843L56.1174 211.767L57.3912 213.038L94.26 176.115L92.9862 174.843ZM56.1174 211.767C53.5219 214.367 52.0551 217.896 52.0451 221.584L53.8451 221.589C53.8538 218.375 55.1319 215.302 57.3913 213.038L56.1174 211.767ZM52.0451 221.585L51.9984 246.06L53.7984 246.064L53.8451 221.588L52.0451 221.585ZM51.9984 246.062C51.9984 246.964 52.7217 247.729 53.6547 247.729L53.6547 245.929C53.7474 245.929 53.7984 246.002 53.7984 246.062L51.9984 246.062Z" fill="#009A08" mask="url(#path-3-inside-2_315_7911)" />
	<mask id="path-5-inside-3_315_7911" fill="white">
		<path d="M74.486 117.828L53.9182 117.828C53.4981 117.828 53.162 118.165 53.162 118.585L53.162 163.524C53.162 167.452 49.9877 170.632 46.0664 170.632L0.83238 170.632C0.412244 170.632 0.076139 170.969 0.076139 171.39L0.0761381 192.236C0.0761381 192.657 0.412243 192.994 0.832379 192.994L25.3213 192.994C28.7664 192.994 32.0808 191.619 34.5175 189.178L71.3863 152.254C73.8137 149.823 75.1862 146.521 75.1955 143.07L75.2422 118.595C75.2422 118.174 74.9061 117.828 74.486 117.828Z" />
	</mask>
	<path d="M34.5175 189.178L33.8807 188.542L33.8806 188.542L34.5175 189.178ZM71.3863 152.254L72.0232 152.89L72.0233 152.89L71.3863 152.254ZM75.1955 143.07L76.0955 143.073L76.0955 143.072L75.1955 143.07ZM75.2422 118.595L76.1422 118.596L76.1422 118.595L75.2422 118.595ZM74.486 116.928L53.9182 116.928L53.9182 118.728L74.486 118.728L74.486 116.928ZM53.9182 116.928C52.9996 116.928 52.262 117.669 52.262 118.585L54.062 118.585C54.062 118.66 53.9966 118.728 53.9182 118.728L53.9182 116.928ZM52.262 118.585L52.262 163.524L54.062 163.524L54.062 118.585L52.262 118.585ZM52.262 163.524C52.262 166.957 49.4891 169.732 46.0664 169.732L46.0664 171.532C50.4862 171.532 54.062 167.948 54.062 163.524L52.262 163.524ZM46.0664 169.732L0.83238 169.732L0.83238 171.532L46.0664 171.532L46.0664 169.732ZM0.83238 169.732C-0.0862755 169.732 -0.823862 170.473 -0.823863 171.39L0.976141 171.39C0.976141 171.464 0.910772 171.532 0.83238 171.532L0.83238 169.732ZM-0.823863 171.39L-0.823863 192.236L0.97614 192.236L0.976141 171.39L-0.823863 171.39ZM-0.823863 192.236C-0.823863 193.153 -0.0862765 193.894 0.832379 193.894L0.832379 192.094C0.910771 192.094 0.97614 192.162 0.97614 192.236L-0.823863 192.236ZM0.832379 193.894L25.3213 193.894L25.3213 192.094L0.832379 192.094L0.832379 193.894ZM25.3213 193.894C29.0056 193.894 32.549 192.424 35.1545 189.814L33.8806 188.542C31.6125 190.814 28.5272 192.094 25.3213 192.094L25.3213 193.894ZM35.1544 189.814L72.0232 152.89L70.7495 151.619L33.8807 188.542L35.1544 189.814ZM72.0233 152.89C74.6188 150.29 76.0855 146.761 76.0955 143.073L74.2955 143.068C74.2868 146.282 73.0087 149.355 70.7494 151.619L72.0233 152.89ZM76.0955 143.072L76.1422 118.596L74.3422 118.593L74.2955 143.069L76.0955 143.072ZM76.1422 118.595C76.1422 117.693 75.4189 116.928 74.486 116.928L74.486 118.728C74.3932 118.728 74.3422 118.655 74.3422 118.595L76.1422 118.595Z" fill="#FD8B0E" mask="url(#path-5-inside-3_315_7911)" />
	<mask id="path-7-inside-4_315_7911" fill="white">
		<path d="M172.758 0.756235L172.758 21.324C172.758 21.7441 173.095 22.0802 173.515 22.0802L218.454 22.0802C222.382 22.0802 225.562 25.2545 225.562 29.1758L225.562 74.4098C225.562 74.83 225.899 75.1661 226.32 75.1661L247.166 75.1661C247.587 75.1661 247.924 74.83 247.924 74.4098L247.924 49.9209C247.924 46.4758 246.549 43.1614 244.108 40.7247L207.184 3.85587C204.753 1.42845 201.451 0.0560224 198 0.0466856L173.525 1.34089e-07C173.104 6.05035e-08 172.758 0.336105 172.758 0.756235Z" />
	</mask>
	<path d="M244.108 40.7247L243.472 41.3615L243.472 41.3616L244.108 40.7247ZM207.184 3.85587L207.82 3.219L207.82 3.21892L207.184 3.85587ZM198 0.0466856L198.003 -0.853311L198.002 -0.853313L198 0.0466856ZM173.525 1.34089e-07L173.526 -0.9L173.525 -0.9L173.525 1.34089e-07ZM171.858 0.756235L171.858 21.324L173.658 21.324L173.658 0.756235L171.858 0.756235ZM171.858 21.324C171.858 22.2426 172.599 22.9802 173.515 22.9802L173.515 21.1802C173.59 21.1802 173.658 21.2456 173.658 21.324L171.858 21.324ZM173.515 22.9802L218.454 22.9802L218.454 21.1802L173.515 21.1802L173.515 22.9802ZM218.454 22.9802C221.887 22.9802 224.662 25.7531 224.662 29.1758L226.462 29.1758C226.462 24.756 222.878 21.1802 218.454 21.1802L218.454 22.9802ZM224.662 29.1758L224.662 74.4098L226.462 74.4098L226.462 29.1758L224.662 29.1758ZM224.662 74.4098C224.662 75.3285 225.403 76.0661 226.32 76.0661L226.32 74.2661C226.394 74.2661 226.462 74.3314 226.462 74.4098L224.662 74.4098ZM226.32 76.0661L247.166 76.0661L247.166 74.2661L226.32 74.2661L226.32 76.0661ZM247.166 76.0661C248.083 76.0661 248.824 75.3285 248.824 74.4098L247.024 74.4098C247.024 74.3314 247.092 74.2661 247.166 74.2661L247.166 76.0661ZM248.824 74.4098L248.824 49.9209L247.024 49.9209L247.024 74.4098L248.824 74.4098ZM248.824 49.9209C248.824 46.2366 247.354 42.6932 244.744 40.0877L243.472 41.3616C245.744 43.6297 247.024 46.715 247.024 49.9209L248.824 49.9209ZM244.744 40.0878L207.82 3.219L206.548 4.49274L243.472 41.3615L244.744 40.0878ZM207.82 3.21892C205.22 0.623431 201.691 -0.843332 198.003 -0.853311L197.998 0.946682C201.212 0.955377 204.285 2.23347 206.549 4.49282L207.82 3.21892ZM198.002 -0.853313L173.526 -0.899998L173.523 0.899999L197.998 0.946684L198.002 -0.853313ZM173.525 -0.9C172.623 -0.9 171.858 -0.176732 171.858 0.756235L173.658 0.756235C173.658 0.848941 173.585 0.9 173.525 0.9L173.525 -0.9Z" fill="#081224" mask="url(#path-7-inside-4_315_7911)" />
	<mask id="path-9-inside-5_315_7911" fill="white">
		<path d="M172.758 160.749L172.758 140.181C172.758 139.761 173.095 139.425 173.515 139.425L218.454 139.425C222.382 139.425 225.562 136.251 225.562 132.33L225.562 87.0956C225.562 86.6754 225.899 86.3393 226.32 86.3393L247.166 86.3393C247.587 86.3393 247.924 86.6754 247.924 87.0956L247.924 111.585C247.924 115.03 246.549 118.344 244.108 120.781L207.184 157.65C204.753 160.077 201.451 161.449 198 161.459L173.525 161.505C173.104 161.505 172.758 161.169 172.758 160.749Z" />
	</mask>
	<path d="M244.108 120.781L243.472 120.144L243.472 120.144L244.108 120.781ZM207.184 157.65L207.82 158.286L207.82 158.286L207.184 157.65ZM198 161.459L198.003 162.359L198.002 162.359L198 161.459ZM173.525 161.505L173.526 162.405L173.525 162.405L173.525 161.505ZM171.858 160.749L171.858 140.181L173.658 140.181L173.658 160.749L171.858 160.749ZM171.858 140.181C171.858 139.263 172.599 138.525 173.515 138.525L173.515 140.325C173.59 140.325 173.658 140.26 173.658 140.181L171.858 140.181ZM173.515 138.525L218.454 138.525L218.454 140.325L173.515 140.325L173.515 138.525ZM218.454 138.525C221.887 138.525 224.662 135.752 224.662 132.33L226.462 132.33C226.462 136.749 222.878 140.325 218.454 140.325L218.454 138.525ZM224.662 132.33L224.662 87.0956L226.462 87.0956L226.462 132.33L224.662 132.33ZM224.662 87.0956C224.662 86.1769 225.403 85.4393 226.32 85.4393L226.32 87.2393C226.394 87.2393 226.462 87.1739 226.462 87.0956L224.662 87.0956ZM226.32 85.4393L247.166 85.4393L247.166 87.2393L226.32 87.2393L226.32 85.4393ZM247.166 85.4393C248.083 85.4393 248.824 86.1769 248.824 87.0956L247.024 87.0956C247.024 87.1739 247.092 87.2393 247.166 87.2393L247.166 85.4393ZM248.824 87.0956L248.824 111.585L247.024 111.585L247.024 87.0956L248.824 87.0956ZM248.824 111.585C248.824 115.269 247.354 118.812 244.744 121.418L243.472 120.144C245.744 117.876 247.024 114.79 247.024 111.585L248.824 111.585ZM244.744 121.418L207.82 158.286L206.548 157.013L243.472 120.144L244.744 121.418ZM207.82 158.286C205.22 160.882 201.691 162.349 198.003 162.359L197.998 160.559C201.212 160.55 204.285 159.272 206.549 157.013L207.82 158.286ZM198.002 162.359L173.526 162.405L173.523 160.605L197.998 160.559L198.002 162.359ZM173.525 162.405C172.623 162.405 171.858 161.682 171.858 160.749L173.658 160.749C173.658 160.656 173.585 160.605 173.525 160.605L173.525 162.405Z" fill="#FD8B0E" mask="url(#path-9-inside-5_315_7911)" />
	<mask id="path-11-inside-6_315_7911" fill="white">
		<path d="M161.586 0.756235L161.586 21.324C161.586 21.7441 161.249 22.0802 160.828 22.0802L115.89 22.0802C111.962 22.0802 108.782 25.2545 108.782 29.1757L108.782 74.4098C108.782 74.83 108.445 75.1661 108.024 75.1661L87.1774 75.1661C86.7566 75.1661 86.4199 74.83 86.4199 74.4098L86.4199 49.9209C86.4199 46.4758 87.7947 43.1614 90.2357 40.7247L127.159 3.85587C129.591 1.42844 132.892 0.0560174 136.344 0.0466812L160.819 0C161.24 0 161.586 0.336105 161.586 0.756235Z" />
	</mask>
	<path d="M90.2357 40.7247L90.8716 41.3615L90.8715 41.3616L90.2357 40.7247ZM127.159 3.85587L126.523 3.219L126.524 3.21892L127.159 3.85587ZM136.344 0.0466812L136.341 -0.853316L136.342 -0.853317L136.344 0.0466812ZM160.819 0L160.817 -0.9H160.819V0ZM162.486 0.756235L162.486 21.324L160.686 21.324L160.686 0.756235L162.486 0.756235ZM162.486 21.324C162.486 22.2426 161.745 22.9802 160.828 22.9802V21.1802C160.754 21.1802 160.686 21.2456 160.686 21.324L162.486 21.324ZM160.828 22.9802L115.89 22.9802L115.89 21.1802L160.828 21.1802V22.9802ZM115.89 22.9802C112.457 22.9802 109.682 25.7531 109.682 29.1757L107.882 29.1757C107.882 24.756 111.466 21.1802 115.89 21.1802L115.89 22.9802ZM109.682 29.1757L109.682 74.4098H107.882L107.882 29.1757L109.682 29.1757ZM109.682 74.4098C109.682 75.3285 108.941 76.0661 108.024 76.0661V74.2661C107.949 74.2661 107.882 74.3314 107.882 74.4098H109.682ZM108.024 76.0661L87.1774 76.0661V74.2661L108.024 74.2661V76.0661ZM87.1774 76.0661C86.261 76.0661 85.5199 75.3285 85.5199 74.4098H87.3199C87.3199 74.3314 87.2522 74.2661 87.1774 74.2661V76.0661ZM85.5199 74.4098L85.5199 49.9209L87.3199 49.9209L87.3199 74.4098H85.5199ZM85.5199 49.9209C85.5199 46.2366 86.9899 42.6932 89.5999 40.0877L90.8715 41.3616C88.5995 43.6297 87.3199 46.715 87.3199 49.9209L85.5199 49.9209ZM89.5998 40.0878L126.523 3.219L127.795 4.49274L90.8716 41.3615L89.5998 40.0878ZM126.524 3.21892C129.124 0.623426 132.653 -0.843337 136.341 -0.853315L136.346 0.946678C133.132 0.955372 130.059 2.23346 127.795 4.49282L126.524 3.21892ZM136.342 -0.853317L160.817 -0.899998L160.821 0.899998L136.345 0.94668L136.342 -0.853317ZM160.819 -0.9C161.721 -0.9 162.486 -0.176731 162.486 0.756235L160.686 0.756235C160.686 0.84894 160.759 0.9 160.819 0.9V-0.9Z" fill="#009A08" mask="url(#path-11-inside-6_315_7911)" />
</svg>
