<svg width="302" height="334" viewBox="0 0 302 334" fill="none" xmlns="http://www.w3.org/2000/svg">
<path d="M260.286 89.8051L260.604 89.4872L260.286 89.8051C257.933 87.4486 254.733 86.1213 251.408 86.1213L226.919 86.1213C226.748 86.1213 226.613 86.2558 226.613 86.4289L226.613 107.276C226.613 107.449 226.748 107.583 226.919 107.583L272.153 107.583C276.324 107.583 279.699 110.965 279.699 115.141L279.699 160.08C279.699 160.253 279.834 160.387 280.005 160.387L300.573 160.387C300.736 160.387 300.879 160.251 300.879 160.071C300.879 160.071 300.879 160.071 300.879 160.07L300.832 135.596C300.823 132.264 299.498 129.076 297.155 126.729C297.155 126.729 297.155 126.729 297.155 126.729L260.286 89.8051Z" stroke="#009A08" stroke-width="0.9"/>
<path d="M4.13374 127.548L3.81577 127.23L4.1337 127.549C1.77718 129.901 0.449944 133.101 0.449945 136.426L0.449949 160.915C0.449949 161.086 0.584432 161.221 0.757505 161.221L21.6042 161.221C21.7773 161.221 21.9118 161.086 21.9118 160.915L21.9118 115.681C21.9118 111.511 25.2938 108.136 29.4697 108.136L74.4085 108.136C74.5815 108.136 74.716 108 74.716 107.829L74.716 87.2616C74.716 87.098 74.5796 86.9556 74.3995 86.9554C74.3993 86.9554 74.3992 86.9554 74.3991 86.9554L49.9248 87.0021C46.5924 87.0111 43.4049 88.3363 41.0574 90.6797C41.0574 90.6797 41.0574 90.6797 41.0574 90.6797L4.13374 127.548Z" stroke="#081224" stroke-width="0.9"/>
<path d="M90.4731 41.2091L90.1551 40.8907L90.4731 41.2092C88.1165 43.5616 86.7893 46.7614 86.7893 50.0869L86.7893 74.5758C86.7893 74.7467 86.9238 74.8821 87.0969 74.8821L107.944 74.8821C108.117 74.8821 108.251 74.7467 108.251 74.5758L108.251 29.3418C108.251 25.1713 111.633 21.7962 115.809 21.7962L160.748 21.7962C160.921 21.7962 161.055 21.6608 161.055 21.49L161.055 0.922251C161.055 0.758643 160.919 0.616198 160.739 0.616016C160.739 0.616016 160.739 0.616016 160.738 0.616016L136.264 0.6627C132.932 0.671715 129.744 1.99696 127.397 4.34032C127.397 4.34034 127.397 4.34035 127.397 4.34036L90.4731 41.2091Z" stroke="#081224" stroke-width="0.9"/>
<path d="M181.218 242.861L180.899 243.179L181.218 242.861C183.57 245.218 186.77 246.545 190.095 246.545L214.584 246.545C214.755 246.545 214.891 246.411 214.891 246.238L214.891 225.391C214.891 225.218 214.755 225.083 214.584 225.083L169.35 225.083C165.18 225.083 161.805 221.701 161.805 217.525L161.805 172.587C161.805 172.414 161.669 172.279 161.499 172.279L140.931 172.279C140.767 172.279 140.625 172.416 140.625 172.596C140.625 172.596 140.625 172.596 140.625 172.596L140.671 197.07C140.68 200.403 142.006 203.59 144.349 205.938C144.349 205.938 144.349 205.938 144.349 205.938L181.218 242.861Z" stroke="#FD8B0E" stroke-width="0.9"/>
<path d="M267.043 329.032L266.725 329.35L267.043 329.032C269.396 331.389 272.595 332.716 275.921 332.716L300.41 332.716C300.581 332.716 300.716 332.582 300.716 332.409L300.716 311.562C300.716 311.389 300.581 311.254 300.41 311.254L255.176 311.254C251.005 311.254 247.63 307.872 247.63 303.696L247.63 258.758C247.63 258.584 247.495 258.45 247.324 258.45L226.756 258.45C226.593 258.45 226.45 258.586 226.45 258.767C226.45 258.767 226.45 258.767 226.45 258.767L226.497 283.241C226.506 286.574 227.831 289.761 230.174 292.109C230.174 292.109 230.174 292.109 230.174 292.109L267.043 329.032Z" stroke="#FD8B0E" stroke-width="0.9"/>
<path d="M120.462 90.6391L120.781 90.3211L120.462 90.6391C118.11 88.2825 114.91 86.9553 111.585 86.9553L87.0956 86.9553C86.9247 86.9553 86.7893 87.0898 86.7893 87.2629L86.7893 108.11C86.7893 108.283 86.9247 108.417 87.0956 108.417L132.33 108.417C136.5 108.417 139.875 111.799 139.875 115.975L139.875 160.914C139.875 161.087 140.011 161.221 140.181 161.221L160.749 161.221C160.913 161.221 161.055 161.085 161.055 160.905C161.055 160.905 161.055 160.905 161.055 160.904L161.009 136.43C161 133.098 159.674 129.91 157.331 127.563C157.331 127.563 157.331 127.563 157.331 127.563L120.462 90.6391Z" stroke="#009A08" stroke-width="0.9"/>
<path d="M297.195 205.794L297.513 206.113L297.195 205.794C299.552 203.442 300.879 200.242 300.879 196.917L300.879 172.428C300.879 172.257 300.744 172.121 300.571 172.121L279.725 172.121C279.552 172.121 279.417 172.257 279.417 172.428L279.417 217.662C279.417 221.832 276.035 225.207 271.859 225.207L226.92 225.207C226.747 225.207 226.613 225.343 226.613 225.513L226.613 246.081C226.613 246.245 226.749 246.387 226.929 246.387C226.93 246.387 226.93 246.387 226.93 246.387L251.404 246.341C254.736 246.332 257.924 245.006 260.271 242.663C260.271 242.663 260.271 242.663 260.271 242.663L297.195 205.794Z" stroke="#081224" stroke-width="0.9"/>
<path d="M211.032 292.123L211.35 292.441L211.032 292.123C213.389 289.77 214.716 286.571 214.716 283.245L214.716 258.756C214.716 258.585 214.582 258.45 214.409 258.45L193.562 258.45C193.389 258.45 193.254 258.585 193.254 258.756L193.254 303.99C193.254 308.161 189.872 311.536 185.696 311.536L140.758 311.536C140.584 311.536 140.45 311.671 140.45 311.842L140.45 332.41C140.45 332.573 140.586 332.716 140.767 332.716C140.767 332.716 140.767 332.716 140.767 332.716L165.241 332.669C168.574 332.66 171.761 331.335 174.109 328.992C174.109 328.992 174.109 328.992 174.109 328.992L211.032 292.123Z" stroke="#081224" stroke-width="0.9"/>
</svg>
