<svg width="116" height="117" viewBox="0 0 116 117" fill="none" xmlns="http://www.w3.org/2000/svg">
<path d="M64.529 24.7958L64.529 24.7957C62.8087 23.0785 61.8398 20.7426 61.8398 18.3149L61.8398 0.585635C61.8398 0.419951 61.9713 0.288142 62.1383 0.288142L77.2307 0.288144C77.3977 0.288144 77.5291 0.419953 77.5291 0.585637L77.5291 33.3337C77.5291 36.3111 79.9436 38.7207 82.925 38.7207L115.459 38.7207C115.626 38.7207 115.758 38.8525 115.758 39.0182L115.758 53.9086C115.758 54.0703 115.624 54.206 115.453 54.2061C115.453 54.2061 115.453 54.2061 115.453 54.2061L97.7338 54.1723C95.3012 54.1657 92.9743 53.1984 91.2607 51.4877C91.2606 51.4877 91.2606 51.4877 91.2606 51.4877L64.529 24.7958Z" stroke="#081224" stroke-width="0.5"/>
<path d="M50.9844 91.5141L51.161 91.3372L50.9844 91.5141C52.6868 93.2136 53.6456 95.5252 53.6456 97.9277L53.6456 115.478C53.6456 115.64 53.5167 115.77 53.3527 115.77L38.4128 115.77C38.2488 115.77 38.1199 115.64 38.1199 115.478L38.1199 83.0606C38.1199 80.1119 35.7287 77.7255 32.7759 77.7255L0.570249 77.7255C0.406294 77.7255 0.277341 77.5961 0.277341 77.4335L0.277344 62.6935C0.277344 62.5349 0.408877 62.4017 0.576749 62.4016C0.576816 62.4016 0.576883 62.4016 0.57695 62.4016L18.1168 62.435C20.5241 62.4415 22.8269 63.3989 24.5227 65.0918C24.5228 65.0918 24.5228 65.0918 24.5228 65.0918L50.9844 91.5141Z" stroke="#081224" stroke-width="0.5"/>
<path d="M50.9835 24.7967L50.9835 24.7966C52.6862 23.0796 53.6456 20.7434 53.6456 18.3149L53.6456 0.585635C53.6456 0.417556 53.5143 0.288142 53.3527 0.288142L38.4128 0.288144C38.2512 0.288144 38.1199 0.417557 38.1199 0.585637L38.1199 33.3337C38.1199 36.3087 35.7311 38.7207 32.7759 38.7207L0.570251 38.7207C0.408684 38.7207 0.277342 38.8501 0.277342 39.0182L0.277344 53.9086C0.277344 54.0726 0.41128 54.206 0.576744 54.2061C0.576812 54.2061 0.576881 54.2061 0.57695 54.2061L18.1168 54.1723C20.5233 54.1657 22.8258 53.199 24.5218 51.4886C24.5219 51.4886 24.5219 51.4886 24.5219 51.4886L50.9835 24.7967Z" stroke="#FD8B0E" stroke-width="0.5"/>
<path d="M64.5281 91.515L64.3524 91.3372L64.5281 91.515C62.8081 93.2147 61.8398 95.526 61.8398 97.9277L61.8398 115.478C61.8398 115.638 61.9689 115.77 62.1383 115.77L77.2307 115.77C77.4001 115.77 77.5291 115.638 77.5291 115.478L77.5291 83.0606C77.5291 80.1095 79.946 77.7255 82.925 77.7255L115.459 77.7255C115.629 77.7255 115.758 77.5937 115.758 77.4335L115.758 62.6935C115.758 62.5373 115.626 62.4017 115.453 62.4016C115.453 62.4016 115.453 62.4016 115.453 62.4016L97.7337 62.435C95.3004 62.4415 92.9732 63.3995 91.2598 65.0927C91.2598 65.0927 91.2597 65.0927 91.2597 65.0927L64.5281 91.515Z" stroke="#009A08" stroke-width="0.5"/>
</svg>
