<svg width="343" height="134" viewBox="0 0 343 134" fill="none" xmlns="http://www.w3.org/2000/svg">
<path d="M191.854 50.0237L191.854 50.0238C191.867 52.1123 192.711 54.127 194.197 55.6132L205.221 66.6377C205.277 66.6929 205.356 66.6892 205.403 66.6416L214.663 57.3819C214.711 57.3344 214.714 57.2552 214.659 57.2L194.296 36.8364C192.396 34.9372 192.374 31.8741 194.259 29.99L214.219 10.0291C214.267 9.98157 214.271 9.90233 214.215 9.84715L204.956 0.587931C204.905 0.53676 204.822 0.536645 204.77 0.587965C204.77 0.58802 204.77 0.588075 204.77 0.58813L193.92 11.48C192.458 12.9506 191.645 14.9451 191.658 17.0253C191.658 17.0253 191.658 17.0254 191.658 17.0254L191.854 50.0237Z" stroke="#FD8B0E" stroke-width="0.7"/>
<path d="M124.385 50.2328L124.385 50.2328C124.384 52.3066 125.208 54.3003 126.673 55.7647L137.55 66.6422C137.6 66.6917 137.677 66.6923 137.728 66.6416L146.987 57.3819C147.038 57.3313 147.037 57.254 146.988 57.2045L126.896 37.1125C125.017 35.2337 125.02 32.1897 126.901 30.3086L146.862 10.3477C146.913 10.2971 146.912 10.2198 146.863 10.1703L137.727 1.03456C137.682 0.98902 137.6 0.984675 137.546 1.03913C137.546 1.03919 137.546 1.03925 137.546 1.0393L126.695 11.9309C125.232 13.4025 124.412 15.39 124.41 17.4557L124.385 50.2328Z" stroke="#009A08" stroke-width="0.7"/>
<path d="M191.815 116.765L191.815 116.765C191.799 118.824 192.604 120.797 194.047 122.239L204.777 132.97C204.821 133.014 204.896 133.019 204.95 132.965L214.21 123.705C214.264 123.651 214.259 123.576 214.215 123.532L194.395 103.712C192.536 101.853 192.565 98.8283 194.443 96.9505L214.404 76.9896C214.457 76.9357 214.453 76.8606 214.409 76.8167L205.396 67.8044C205.356 67.7645 205.277 67.7559 205.22 67.8135C205.219 67.8136 205.219 67.8136 205.219 67.8137L194.369 78.705C192.904 80.1776 192.076 82.158 192.06 84.2093C192.06 84.2093 192.06 84.2093 192.06 84.2094L191.815 116.765Z" stroke="#081224" stroke-width="0.7"/>
<path d="M124.141 116.765L124.141 116.765C124.125 118.824 124.93 120.797 126.373 122.239L137.104 132.97C137.147 133.014 137.223 133.019 137.276 132.965L146.536 123.705C146.59 123.651 146.585 123.576 146.541 123.532L126.721 103.712C124.862 101.853 124.891 98.8283 126.769 96.9505L146.73 76.9896C146.784 76.9357 146.779 76.8606 146.735 76.8167L137.723 67.8044C137.683 67.7645 137.604 67.7559 137.546 67.8135C137.546 67.8136 137.546 67.8136 137.546 67.8137L126.695 78.705C125.23 80.1776 124.402 82.158 124.387 84.2093C124.387 84.2093 124.387 84.2093 124.387 84.2094L124.141 116.765Z" stroke="#081224" stroke-width="0.7"/>
<path d="M184.07 17.2349L184.07 17.2348C184.086 15.1758 183.281 13.2032 181.838 11.7605L171.107 1.03003C171.063 0.986181 170.988 0.981302 170.934 1.03515L161.675 10.2948C161.621 10.3487 161.626 10.4239 161.67 10.4677L181.49 30.2882C183.349 32.1467 183.32 35.1717 181.442 37.0495L161.481 57.0104C161.427 57.0642 161.432 57.1394 161.476 57.1833L170.488 66.1956C170.528 66.2355 170.607 66.2441 170.665 66.1865C170.665 66.1864 170.665 66.1863 170.665 66.1863L181.516 55.295C182.981 53.8224 183.809 51.842 183.824 49.7907C183.824 49.7906 183.824 49.7906 183.824 49.7906L184.07 17.2349Z" stroke="#081224" stroke-width="0.7"/>
<path d="M184.032 83.9763L184.032 83.9762C184.02 81.8877 183.176 79.873 181.69 78.3868L170.665 67.3623C170.61 67.3071 170.531 67.3108 170.483 67.3584L161.224 76.6181C161.176 76.6656 161.172 76.7448 161.228 76.8L181.591 97.1636C183.49 99.0628 183.512 102.126 181.628 104.01L161.667 123.971C161.62 124.018 161.616 124.098 161.671 124.153L170.93 133.412C170.982 133.463 171.065 133.463 171.116 133.412C171.116 133.412 171.117 133.412 171.117 133.412L181.966 122.52C183.429 121.049 184.241 119.055 184.229 116.975C184.229 116.975 184.229 116.975 184.229 116.975L184.032 83.9763Z" stroke="#FD8B0E" stroke-width="0.7"/>
<path d="M253.757 17.4439L253.757 17.4439C253.759 15.3701 252.934 13.3765 251.47 11.912L240.592 1.03453C240.543 0.985001 240.466 0.984454 240.415 1.03511L231.155 10.2948C231.105 10.3455 231.105 10.4227 231.155 10.4722L251.247 30.5643C253.125 32.4431 253.122 35.4871 251.241 37.3681L231.28 57.329C231.23 57.3796 231.23 57.4569 231.28 57.5064L240.415 66.6422C240.461 66.6877 240.542 66.6921 240.597 66.6376C240.597 66.6375 240.597 66.6375 240.597 66.6374L251.447 55.7459C252.911 54.2742 253.731 52.2868 253.733 50.221L253.757 17.4439Z" stroke="#081224" stroke-width="0.7"/>
<path d="M253.757 84.2184L253.757 84.2183C253.759 82.1446 252.934 80.1509 251.47 78.6865L240.592 67.809C240.543 67.7594 240.466 67.7589 240.415 67.8096L231.155 77.0692C231.105 77.1199 231.105 77.1971 231.155 77.2467L251.247 97.3387C253.125 99.2175 253.122 102.262 251.241 104.143L231.28 124.103C231.23 124.154 231.23 124.231 231.28 124.281L240.415 133.417C240.461 133.462 240.542 133.466 240.597 133.412C240.597 133.412 240.597 133.412 240.597 133.412L251.447 122.52C252.911 121.049 253.731 119.061 253.733 116.995L253.757 84.2184Z" stroke="#009A08" stroke-width="0.7"/>
<path d="M54.6709 50.0237L54.6709 50.0238C54.6831 52.1123 55.5272 54.127 57.0134 55.6132L68.0379 66.6377C68.0931 66.6929 68.1723 66.6892 68.2199 66.6416L77.4796 57.3819C77.5271 57.3344 77.5308 57.2552 77.4756 57.2L57.112 36.8364C55.2128 34.9372 55.1908 31.8741 57.0749 29.99L77.0358 10.0291C77.0834 9.98157 77.087 9.90233 77.0319 9.84715L67.7726 0.587931C67.7215 0.53676 67.6382 0.536645 67.5867 0.587965C67.5866 0.58802 67.5866 0.588075 67.5865 0.58813L56.7367 11.48C55.2742 12.9506 54.4618 14.9451 54.474 17.0253C54.474 17.0253 54.474 17.0254 54.474 17.0254L54.6709 50.0237Z" stroke="#FD8B0E" stroke-width="0.7"/>
<path d="M54.6312 116.765L54.6312 116.765C54.6154 118.824 55.4207 120.797 56.8634 122.239L67.5938 132.97C67.6377 133.014 67.7129 133.019 67.7667 132.965L77.0264 123.705C77.0803 123.651 77.0754 123.576 77.0315 123.532L57.211 103.712C55.3526 101.853 55.3812 98.8283 57.2591 96.9505L77.22 76.9896C77.2738 76.9357 77.2689 76.8606 77.2251 76.8167L68.2128 67.8044C68.1729 67.7645 68.0938 67.7559 68.0359 67.8135C68.0359 67.8136 68.0358 67.8136 68.0358 67.8137L57.1854 78.705C55.7206 80.1776 54.8926 82.158 54.8769 84.2093C54.8769 84.2093 54.8769 84.2093 54.8769 84.2094L54.6312 116.765Z" stroke="#081224" stroke-width="0.7"/>
<path d="M46.8864 17.2349L46.8864 17.2348C46.9022 15.1758 46.0969 13.2032 44.6542 11.7605L33.9237 1.03003C33.8799 0.986181 33.8047 0.981302 33.7509 1.03515L24.4912 10.2948C24.4373 10.3487 24.4422 10.4239 24.486 10.4677L44.3066 30.2882C46.165 32.1467 46.1363 35.1717 44.2585 37.0495L24.2976 57.0104C24.2438 57.0642 24.2486 57.1394 24.2925 57.1833L33.3048 66.1956C33.3447 66.2355 33.4238 66.2441 33.4817 66.1865C33.4817 66.1864 33.4818 66.1863 33.4818 66.1863L44.3322 55.295C45.797 53.8224 46.6249 51.842 46.6407 49.7907C46.6407 49.7906 46.6407 49.7906 46.6407 49.7906L46.8864 17.2349Z" stroke="#081224" stroke-width="0.7"/>
<path d="M46.8467 83.9763L46.8467 83.9762C46.8345 81.8877 45.9904 79.873 44.5042 78.3868L33.4797 67.3623C33.4245 67.3071 33.3452 67.3108 33.2977 67.3584L24.038 76.6181C23.9905 76.6656 23.9868 76.7448 24.042 76.8L44.4055 97.1636C46.3047 99.0628 46.3268 102.126 44.4426 104.01L24.4818 123.971C24.4342 124.018 24.4305 124.098 24.4857 124.153L33.7449 133.412C33.7961 133.463 33.8794 133.463 33.9309 133.412C33.9309 133.412 33.931 133.412 33.931 133.412L44.7809 122.52C46.2434 121.049 47.0558 119.055 47.0436 116.975C47.0436 116.975 47.0436 116.975 47.0436 116.975L46.8467 83.9763Z" stroke="#FD8B0E" stroke-width="0.7"/>
<path d="M116.576 17.4439L116.576 17.4439C116.577 15.3701 115.753 13.3765 114.288 11.912L103.411 1.03453C103.361 0.985001 103.284 0.984454 103.233 1.03511L93.9736 10.2948C93.9229 10.3455 93.9235 10.4227 93.973 10.4722L114.065 30.5643C115.944 32.4431 115.941 35.4871 114.06 37.3681L94.0987 57.329C94.048 57.3796 94.0486 57.4569 94.0981 57.5064L103.234 66.6422C103.279 66.6877 103.361 66.6921 103.415 66.6376C103.415 66.6375 103.415 66.6375 103.415 66.6374L114.266 55.7459C115.729 54.2742 116.549 52.2868 116.551 50.221L116.576 17.4439Z" stroke="#081224" stroke-width="0.7"/>
<path d="M116.576 84.2184L116.576 84.2183C116.577 82.1446 115.753 80.1509 114.288 78.6865L103.411 67.809C103.361 67.7594 103.284 67.7589 103.233 67.8096L93.9736 77.0692C93.9229 77.1199 93.9235 77.1971 93.973 77.2467L114.065 97.3387C115.944 99.2175 115.941 102.262 114.06 104.143L94.0987 124.103C94.048 124.154 94.0486 124.231 94.0981 124.281L103.234 133.417C103.279 133.462 103.361 133.466 103.415 133.412C103.415 133.412 103.415 133.412 103.415 133.412L114.266 122.52C115.729 121.049 116.549 119.061 116.551 116.995L116.576 84.2184Z" stroke="#009A08" stroke-width="0.7"/>
<path d="M329.675 50.0237L329.675 50.0238C329.687 52.1123 330.531 54.127 332.017 55.6132L343.042 66.6377C343.097 66.6929 343.176 66.6892 343.224 66.6416L352.483 57.3819C352.531 57.3344 352.535 57.2552 352.48 57.2L332.116 36.8364C330.217 34.9372 330.195 31.8741 332.079 29.99L352.04 10.0291C352.087 9.98157 352.091 9.90233 352.036 9.84715L342.777 0.587931C342.725 0.53676 342.642 0.536645 342.591 0.587965C342.591 0.58802 342.59 0.588075 342.59 0.58813L331.741 11.48C330.278 12.9506 329.466 14.9451 329.478 17.0253C329.478 17.0253 329.478 17.0254 329.478 17.0254L329.675 50.0237Z" stroke="#FD8B0E" stroke-width="0.7"/>
<path d="M262.206 50.2328L262.206 50.2328C262.204 52.3066 263.029 54.3003 264.493 55.7647L275.371 66.6422C275.42 66.6917 275.497 66.6923 275.548 66.6416L284.808 57.3819C284.858 57.3313 284.858 57.254 284.808 57.2045L264.716 37.1125C262.837 35.2337 262.841 32.1897 264.722 30.3086L284.683 10.3477C284.733 10.2971 284.733 10.2198 284.683 10.1703L275.547 1.03456C275.502 0.98902 275.421 0.984675 275.366 1.03913C275.366 1.03919 275.366 1.03925 275.366 1.0393L264.516 11.9309C263.052 13.4025 262.232 15.39 262.23 17.4557L262.206 50.2328Z" stroke="#009A08" stroke-width="0.7"/>
<path d="M329.637 116.765L329.637 116.765C329.621 118.824 330.427 120.797 331.869 122.239L342.6 132.97C342.644 133.014 342.719 133.019 342.773 132.965L352.032 123.705C352.086 123.651 352.081 123.576 352.037 123.532L332.217 103.712C330.358 101.853 330.387 98.8283 332.265 96.9505L352.226 76.9896C352.28 76.9357 352.275 76.8606 352.231 76.8167L343.219 67.8044C343.179 67.7645 343.1 67.7559 343.042 67.8135C343.042 67.8136 343.042 67.8136 343.042 67.8137L332.191 78.705C330.726 80.1776 329.898 82.158 329.883 84.2093C329.883 84.2093 329.883 84.2093 329.883 84.2094L329.637 116.765Z" stroke="#081224" stroke-width="0.7"/>
<path d="M261.961 116.765L261.961 116.765C261.945 118.824 262.751 120.797 264.193 122.239L274.924 132.97C274.968 133.014 275.043 133.019 275.097 132.965L284.356 123.705C284.41 123.651 284.405 123.576 284.362 123.532L264.541 103.712C262.683 101.853 262.711 98.8283 264.589 96.9505L284.55 76.9896C284.604 76.9357 284.599 76.8606 284.555 76.8167L275.543 67.8044C275.503 67.7645 275.424 67.7559 275.366 67.8135C275.366 67.8136 275.366 67.8136 275.366 67.8137L264.515 78.705C263.051 80.1776 262.223 82.158 262.207 84.2093C262.207 84.2093 262.207 84.2093 262.207 84.2094L261.961 116.765Z" stroke="#081224" stroke-width="0.7"/>
<path d="M321.892 17.2349L321.892 17.2348C321.908 15.1758 321.103 13.2032 319.66 11.7605L308.93 1.03003C308.886 0.986181 308.811 0.981302 308.757 1.03515L299.497 10.2948C299.443 10.3487 299.448 10.4239 299.492 10.4677L319.312 30.2882C321.171 32.1467 321.142 35.1717 319.264 37.0495L299.303 57.0104C299.25 57.0642 299.255 57.1394 299.298 57.1833L308.311 66.1956C308.351 66.2355 308.43 66.2441 308.488 66.1865C308.488 66.1864 308.488 66.1863 308.488 66.1863L319.338 55.295C320.803 53.8224 321.631 51.842 321.647 49.7907C321.647 49.7906 321.647 49.7906 321.647 49.7906L321.892 17.2349Z" stroke="#081224" stroke-width="0.7"/>
<path d="M321.855 83.9763L321.855 83.9762C321.842 81.8877 320.998 79.873 319.512 78.3868L308.487 67.3623C308.432 67.3071 308.353 67.3108 308.306 67.3584L299.046 76.6181C298.998 76.6656 298.995 76.7448 299.05 76.8L319.413 97.1636C321.313 99.0628 321.335 102.126 319.45 104.01L299.49 123.971C299.442 124.018 299.438 124.098 299.494 124.153L308.753 133.412C308.804 133.463 308.887 133.463 308.939 133.412C308.939 133.412 308.939 133.412 308.939 133.412L319.789 122.52C321.251 121.049 322.064 119.055 322.051 116.975C322.051 116.975 322.051 116.975 322.051 116.975L321.855 83.9763Z" stroke="#FD8B0E" stroke-width="0.7"/>
</svg>
