<svg width="757" height="508" viewBox="0 0 757 508" fill="none" xmlns="http://www.w3.org/2000/svg">
<path d="M246.88 375.4L246.88 375.4C246.899 378.686 248.227 381.856 250.565 384.194L267.843 401.472C267.949 401.577 268.103 401.572 268.197 401.478L282.71 386.966C282.803 386.872 282.808 386.717 282.703 386.612L250.789 354.697C247.831 351.739 247.797 346.97 250.73 344.036L282.014 312.752C282.108 312.659 282.113 312.504 282.008 312.399L267.496 297.887C267.397 297.788 267.236 297.788 267.136 297.887C267.136 297.887 267.136 297.887 267.136 297.887L250.132 314.958C247.83 317.272 246.552 320.41 246.571 323.683L246.88 375.4Z" stroke="#FD8B0E"/>
<path d="M141.139 375.727L141.139 375.727C141.137 378.99 142.434 382.127 144.738 384.431L161.786 401.479C161.883 401.576 162.034 401.576 162.133 401.478L176.645 386.966C176.743 386.868 176.743 386.716 176.646 386.619L145.157 355.13C142.231 352.204 142.236 347.464 145.165 344.535L176.449 313.252C176.547 313.153 176.546 313.002 176.45 312.905L162.132 298.587C162.041 298.496 161.883 298.491 161.779 298.594C161.779 298.594 161.779 298.594 161.779 298.595L144.774 315.664C142.471 317.98 141.18 321.107 141.178 324.357C141.178 324.357 141.178 324.357 141.178 324.357L141.139 375.727Z" stroke="#009A08"/>
<path d="M246.821 479.999L246.821 479.999C246.796 483.239 248.063 486.343 250.333 488.613L267.151 505.431C267.239 505.519 267.387 505.526 267.49 505.423L282.002 490.91C282.105 490.808 282.099 490.659 282.01 490.571L250.947 459.507C248.054 456.614 248.098 451.904 251.022 448.979L282.306 417.696C282.409 417.593 282.402 417.444 282.314 417.356L268.189 403.232C268.107 403.149 267.952 403.138 267.843 403.246C267.843 403.246 267.843 403.246 267.843 403.246L250.838 420.316C248.533 422.633 247.231 425.748 247.206 428.976C247.206 428.976 247.206 428.976 247.206 428.976L246.821 479.999Z" stroke="#081224"/>
<path d="M140.756 479.999L140.756 479.999C140.731 483.239 141.998 486.343 144.269 488.613L161.086 505.431C161.174 505.519 161.323 505.526 161.426 505.423L175.938 490.91C176.041 490.808 176.034 490.659 175.946 490.571L144.882 459.507C141.989 456.614 142.033 451.904 144.958 448.979L176.241 417.696C176.344 417.593 176.337 417.444 176.249 417.356L162.125 403.232C162.042 403.149 161.887 403.138 161.779 403.246C161.779 403.246 161.779 403.246 161.779 403.246L144.773 420.316C142.469 422.633 141.166 425.748 141.141 428.976C141.141 428.976 141.141 428.976 141.141 428.976L140.756 479.999Z" stroke="#081224"/>
<path d="M234.779 324.012L234.779 324.012C234.804 320.772 233.537 317.668 231.266 315.397L214.449 298.58C214.361 298.492 214.212 298.485 214.109 298.588L199.597 313.1C199.494 313.203 199.501 313.352 199.589 313.44L230.653 344.503C233.546 347.397 233.502 352.107 230.578 355.031L199.294 386.315C199.191 386.418 199.198 386.566 199.286 386.654L213.41 400.779C213.493 400.861 213.648 400.873 213.756 400.765C213.756 400.765 213.756 400.764 213.756 400.764L230.762 383.695C233.066 381.378 234.369 378.262 234.394 375.034C234.394 375.034 234.394 375.034 234.394 375.034L234.779 324.012Z" stroke="#081224"/>
<path d="M234.72 428.611L234.72 428.611C234.701 425.325 233.372 422.155 231.034 419.817L213.756 402.539C213.651 402.434 213.496 402.439 213.402 402.533L198.89 417.045C198.796 417.139 198.791 417.294 198.896 417.399L230.811 449.313C233.769 452.271 233.803 457.041 230.869 459.975L199.586 491.258C199.492 491.352 199.487 491.507 199.592 491.612L214.103 506.124C214.203 506.223 214.364 506.223 214.463 506.124C214.463 506.123 214.463 506.123 214.464 506.123L231.468 489.053C233.769 486.739 235.047 483.601 235.028 480.327L234.72 428.611Z" stroke="#FD8B0E"/>
<path d="M343.997 324.339L343.997 324.339C344 321.076 342.703 317.939 340.398 315.635L323.351 298.587C323.254 298.49 323.102 298.49 323.004 298.588L308.492 313.1C308.393 313.198 308.394 313.35 308.491 313.447L339.98 344.936C342.906 347.862 342.9 352.602 339.971 355.531L308.688 386.814C308.589 386.913 308.59 387.064 308.687 387.161L323.005 401.479C323.096 401.57 323.254 401.575 323.358 401.472C323.358 401.472 323.358 401.472 323.358 401.471L340.363 384.402C342.666 382.086 343.956 378.959 343.959 375.709C343.959 375.709 343.959 375.709 343.959 375.709L343.997 324.339Z" stroke="#081224"/>
<path d="M343.997 428.991L343.997 428.991C344 425.728 342.703 422.591 340.398 420.287L323.351 403.239C323.254 403.142 323.102 403.141 323.004 403.24L308.492 417.752C308.393 417.85 308.394 418.002 308.491 418.099L339.98 449.588C342.906 452.513 342.9 457.253 339.971 460.182L308.688 491.466C308.589 491.564 308.59 491.716 308.687 491.813L323.005 506.131C323.096 506.222 323.254 506.227 323.358 506.124C323.358 506.123 323.358 506.123 323.358 506.123L340.363 489.053C342.666 486.738 343.956 483.611 343.959 480.36C343.959 480.36 343.959 480.36 343.959 480.36L343.997 428.991Z" stroke="#009A08"/>
<path d="M31.8897 375.4L31.8897 375.4C31.9089 378.686 33.237 381.856 35.5752 384.194L52.8533 401.472C52.9583 401.577 53.1133 401.572 53.2071 401.478L67.7193 386.966C67.8131 386.872 67.8181 386.717 67.7131 386.612L35.7984 354.697C32.8405 351.739 32.8067 346.97 35.7403 344.036L67.0238 312.752C67.1177 312.659 67.1227 312.504 67.0176 312.399L52.5062 297.887C52.4069 297.788 52.2456 297.788 52.1461 297.887C52.146 297.887 52.1459 297.887 52.1459 297.887L35.1415 314.958C32.8401 317.272 31.5619 320.41 31.581 323.683L31.8897 375.4Z" stroke="#FD8B0E"/>
<path d="M31.8305 479.999L31.8305 479.999C31.8056 483.239 33.0727 486.343 35.343 488.613L52.1603 505.431C52.2485 505.519 52.397 505.526 52.4999 505.423L67.0121 490.91C67.1149 490.808 67.1083 490.659 67.0201 490.571L35.9565 459.507C33.0633 456.614 33.1073 451.904 36.0319 448.979L67.3154 417.696C67.4183 417.593 67.4116 417.444 67.3235 417.356L53.199 403.232C53.1165 403.149 52.9617 403.138 52.8531 403.246C52.8531 403.246 52.853 403.246 52.8529 403.246L35.8476 420.316C33.543 422.633 32.2403 425.748 32.2155 428.976C32.2155 428.976 32.2155 428.976 32.2155 428.976L31.8305 479.999Z" stroke="#081224"/>
<path d="M129.007 324.339L129.007 324.339C129.01 321.076 127.712 317.939 125.408 315.635L108.36 298.587C108.264 298.49 108.112 298.49 108.014 298.588L93.5015 313.1C93.4032 313.198 93.404 313.35 93.5006 313.447L124.99 344.936C127.915 347.862 127.91 352.602 124.981 355.531L93.6976 386.814C93.5993 386.913 93.6 387.064 93.6966 387.161L108.015 401.479C108.106 401.57 108.264 401.575 108.368 401.472C108.368 401.472 108.368 401.472 108.368 401.471L125.373 384.402C127.676 382.086 128.966 378.959 128.969 375.709C128.969 375.709 128.969 375.709 128.969 375.709L129.007 324.339Z" stroke="#081224"/>
<path d="M129.007 428.991L129.007 428.991C129.01 425.728 127.712 422.591 125.408 420.287L108.36 403.239C108.264 403.142 108.112 403.141 108.014 403.24L93.5015 417.752C93.4032 417.85 93.404 418.002 93.5006 418.099L124.99 449.588C127.915 452.513 127.91 457.253 124.981 460.182L93.6976 491.466C93.5993 491.564 93.6 491.716 93.6966 491.813L108.015 506.131C108.106 506.222 108.264 506.227 108.368 506.124C108.368 506.123 108.368 506.123 108.368 506.123L125.373 489.053C127.676 486.738 128.966 483.611 128.969 480.36C128.969 480.36 128.969 480.36 128.969 480.36L129.007 428.991Z" stroke="#009A08"/>
<path d="M462.88 375.4L462.88 375.4C462.899 378.686 464.227 381.856 466.565 384.194L483.843 401.472C483.949 401.577 484.103 401.572 484.197 401.478L498.71 386.966C498.803 386.872 498.808 386.717 498.703 386.612L466.789 354.697C463.831 351.739 463.797 346.97 466.73 344.036L498.014 312.752C498.108 312.659 498.113 312.504 498.008 312.399L483.496 297.887C483.397 297.788 483.236 297.788 483.136 297.887C483.136 297.887 483.136 297.887 483.136 297.887L466.132 314.958C463.83 317.272 462.552 320.41 462.571 323.683L462.88 375.4Z" stroke="#FD8B0E"/>
<path d="M357.139 375.727L357.139 375.727C357.137 378.99 358.434 382.127 360.738 384.431L377.786 401.479C377.883 401.576 378.034 401.576 378.133 401.478L392.645 386.966C392.743 386.868 392.743 386.716 392.646 386.619L361.157 355.13C358.231 352.204 358.236 347.464 361.165 344.535L392.449 313.252C392.547 313.153 392.546 313.002 392.45 312.905L378.132 298.587C378.041 298.496 377.883 298.491 377.779 298.594C377.779 298.594 377.779 298.594 377.779 298.595L360.774 315.664C358.471 317.98 357.18 321.107 357.178 324.357C357.178 324.357 357.178 324.357 357.178 324.357L357.139 375.727Z" stroke="#009A08"/>
<path d="M462.821 479.999L462.821 479.999C462.796 483.239 464.063 486.343 466.333 488.613L483.151 505.431C483.239 505.519 483.387 505.526 483.49 505.423L498.002 490.91C498.105 490.808 498.099 490.659 498.01 490.571L466.947 459.507C464.054 456.614 464.098 451.904 467.022 448.979L498.306 417.696C498.409 417.593 498.402 417.444 498.314 417.356L484.189 403.232C484.107 403.149 483.952 403.138 483.843 403.246C483.843 403.246 483.843 403.246 483.843 403.246L466.838 420.316C464.533 422.633 463.231 425.748 463.206 428.976C463.206 428.976 463.206 428.976 463.206 428.976L462.821 479.999Z" stroke="#081224"/>
<path d="M356.756 479.999L356.756 479.999C356.731 483.239 357.998 486.343 360.269 488.613L377.086 505.431C377.174 505.519 377.323 505.526 377.426 505.423L391.938 490.91C392.041 490.808 392.034 490.659 391.946 490.571L360.882 459.507C357.989 456.614 358.033 451.904 360.958 448.979L392.241 417.696C392.344 417.593 392.337 417.444 392.249 417.356L378.125 403.232C378.042 403.149 377.887 403.138 377.779 403.246C377.779 403.246 377.779 403.246 377.779 403.246L360.773 420.316C358.469 422.633 357.166 425.748 357.141 428.976C357.141 428.976 357.141 428.976 357.141 428.976L356.756 479.999Z" stroke="#081224"/>
<path d="M450.779 324.012L450.779 324.012C450.804 320.772 449.537 317.668 447.266 315.397L430.449 298.58C430.361 298.492 430.212 298.485 430.109 298.588L415.597 313.1C415.494 313.203 415.501 313.352 415.589 313.44L446.653 344.503C449.546 347.397 449.502 352.107 446.578 355.031L415.294 386.315C415.191 386.418 415.198 386.566 415.286 386.654L429.41 400.779C429.493 400.861 429.648 400.873 429.756 400.765C429.756 400.765 429.756 400.764 429.756 400.764L446.762 383.695C449.066 381.378 450.369 378.262 450.394 375.034C450.394 375.034 450.394 375.034 450.394 375.034L450.779 324.012Z" stroke="#081224"/>
<path d="M450.72 428.611L450.72 428.611C450.701 425.325 449.372 422.155 447.034 419.817L429.756 402.539C429.651 402.434 429.496 402.439 429.402 402.533L414.89 417.045C414.796 417.139 414.791 417.294 414.896 417.399L446.811 449.313C449.769 452.271 449.803 457.041 446.869 459.975L415.586 491.258C415.492 491.352 415.487 491.507 415.592 491.612L430.103 506.124C430.203 506.223 430.364 506.223 430.463 506.124C430.463 506.123 430.463 506.123 430.464 506.123L447.468 489.053C449.769 486.739 451.047 483.601 451.028 480.327L450.72 428.611Z" stroke="#FD8B0E"/>
<path d="M559.997 324.339L559.997 324.339C560 321.076 558.703 317.939 556.398 315.635L539.351 298.587C539.254 298.49 539.102 298.49 539.004 298.588L524.492 313.1C524.393 313.198 524.394 313.35 524.491 313.447L555.98 344.936C558.906 347.862 558.9 352.602 555.971 355.531L524.688 386.814C524.589 386.913 524.59 387.064 524.687 387.161L539.005 401.479C539.096 401.57 539.254 401.575 539.358 401.472C539.358 401.472 539.358 401.472 539.358 401.471L556.363 384.402C558.666 382.086 559.956 378.959 559.959 375.709C559.959 375.709 559.959 375.709 559.959 375.709L559.997 324.339Z" stroke="#081224"/>
<path d="M559.997 428.991L559.997 428.991C560 425.728 558.703 422.591 556.398 420.287L539.351 403.239C539.254 403.142 539.102 403.141 539.004 403.24L524.492 417.752C524.393 417.85 524.394 418.002 524.491 418.099L555.98 449.588C558.906 452.513 558.9 457.253 555.971 460.182L524.688 491.466C524.589 491.564 524.59 491.716 524.687 491.813L539.005 506.131C539.096 506.222 539.254 506.227 539.358 506.124C539.358 506.123 539.358 506.123 539.358 506.123L556.363 489.053C558.666 486.738 559.956 483.611 559.959 480.36C559.959 480.36 559.959 480.36 559.959 480.36L559.997 428.991Z" stroke="#009A08"/>
<path d="M443.88 78.3997L443.88 78.3997C443.899 81.6858 445.227 84.8555 447.565 87.1938L464.843 104.472C464.949 104.577 465.103 104.572 465.197 104.478L479.71 89.9658C479.803 89.872 479.808 89.7171 479.703 89.612L447.789 57.6973C444.831 54.7394 444.797 49.9695 447.73 47.0359L479.014 15.7524C479.108 15.6585 479.113 15.5036 479.008 15.3986L464.496 0.887111C464.397 0.787789 464.236 0.78795 464.136 0.887169C464.136 0.887253 464.136 0.887338 464.136 0.887423L447.132 17.9577C444.83 20.2717 443.552 23.4101 443.571 26.6832L443.88 78.3997Z" stroke="#FD8B0E"/>
<path d="M338.139 78.727L338.139 78.7271C338.137 81.99 339.434 85.1269 341.738 87.4312L358.786 104.479C358.883 104.576 359.034 104.576 359.133 104.478L373.645 89.9658C373.743 89.8675 373.743 89.7157 373.646 89.6191L342.157 58.13C339.231 55.2044 339.236 50.4645 342.165 47.5353L373.449 16.2518C373.547 16.1535 373.546 16.0017 373.45 15.9051L359.132 1.58709C359.041 1.49615 358.883 1.49055 358.779 1.59427C358.779 1.59435 358.779 1.59443 358.779 1.59452L341.774 18.6644C339.471 20.9798 338.18 24.1069 338.178 27.3573C338.178 27.3573 338.178 27.3573 338.178 27.3574L338.139 78.727Z" stroke="#009A08"/>
<path d="M443.821 182.999L443.821 182.999C443.796 186.239 445.063 189.343 447.333 191.613L464.151 208.431C464.239 208.519 464.387 208.526 464.49 208.423L479.002 193.91C479.105 193.808 479.099 193.659 479.01 193.571L447.947 162.507C445.054 159.614 445.098 154.904 448.022 151.979L479.306 120.696C479.409 120.593 479.402 120.444 479.314 120.356L465.189 106.232C465.107 106.149 464.952 106.138 464.843 106.246C464.843 106.246 464.843 106.246 464.843 106.246L447.838 123.316C445.533 125.633 444.231 128.748 444.206 131.976C444.206 131.976 444.206 131.976 444.206 131.976L443.821 182.999Z" stroke="#081224"/>
<path d="M337.756 182.999L337.756 182.999C337.731 186.239 338.998 189.343 341.269 191.613L358.086 208.431C358.174 208.519 358.323 208.526 358.426 208.423L372.938 193.91C373.041 193.808 373.034 193.659 372.946 193.571L341.882 162.507C338.989 159.614 339.033 154.904 341.958 151.979L373.241 120.696C373.344 120.593 373.337 120.444 373.249 120.356L359.125 106.232C359.042 106.149 358.887 106.138 358.779 106.246C358.779 106.246 358.779 106.246 358.779 106.246L341.773 123.316C339.469 125.633 338.166 128.748 338.141 131.976C338.141 131.976 338.141 131.976 338.141 131.976L337.756 182.999Z" stroke="#081224"/>
<path d="M431.779 27.0116L431.779 27.0115C431.804 23.7717 430.537 20.6676 428.266 18.3973L411.449 1.57998C411.361 1.49182 411.212 1.48516 411.109 1.58801L396.597 16.1002C396.494 16.203 396.501 16.3516 396.589 16.4398L427.653 47.5034C430.546 50.3966 430.502 55.1067 427.578 58.0313L396.294 89.3148C396.191 89.4177 396.198 89.5663 396.286 89.6544L410.41 103.779C410.493 103.861 410.648 103.873 410.756 103.765C410.756 103.765 410.756 103.764 410.756 103.764L427.762 86.695C430.066 84.3781 431.369 81.2622 431.394 78.0345C431.394 78.0344 431.394 78.0344 431.394 78.0344L431.779 27.0116Z" stroke="#081224"/>
<path d="M431.72 131.611L431.72 131.611C431.701 128.325 430.372 125.155 428.034 122.817L410.756 105.539C410.651 105.434 410.496 105.439 410.402 105.533L395.89 120.045C395.796 120.139 395.791 120.294 395.896 120.399L427.811 152.313C430.769 155.271 430.803 160.041 427.869 162.975L396.586 194.258C396.492 194.352 396.487 194.507 396.592 194.612L411.103 209.124C411.203 209.223 411.364 209.223 411.463 209.124C411.463 209.123 411.463 209.123 411.464 209.123L428.468 192.053C430.769 189.739 432.047 186.601 432.028 183.327L431.72 131.611Z" stroke="#FD8B0E"/>
<path d="M540.997 27.339L540.997 27.3389C541 24.076 539.703 20.939 537.398 18.6347L520.351 1.58708C520.254 1.49045 520.102 1.4897 520.004 1.58799L505.492 16.1002C505.393 16.1985 505.394 16.3503 505.491 16.4469L536.98 47.936C539.906 50.8616 539.9 55.6015 536.971 58.5307L505.688 89.8142C505.589 89.9125 505.59 90.0643 505.687 90.1609L520.005 104.479C520.096 104.57 520.254 104.575 520.358 104.472C520.358 104.472 520.358 104.472 520.358 104.471L537.363 87.4016C539.666 85.0862 540.956 81.9591 540.959 78.7087C540.959 78.7087 540.959 78.7086 540.959 78.7086L540.997 27.339Z" stroke="#081224"/>
<path d="M540.997 131.991L540.997 131.991C541 128.728 539.703 125.591 537.398 123.287L520.351 106.239C520.254 106.142 520.102 106.141 520.004 106.24L505.492 120.752C505.393 120.85 505.394 121.002 505.491 121.099L536.98 152.588C539.906 155.513 539.9 160.253 536.971 163.182L505.688 194.466C505.589 194.564 505.59 194.716 505.687 194.813L520.005 209.131C520.096 209.222 520.254 209.227 520.358 209.124C520.358 209.123 520.358 209.123 520.358 209.123L537.363 192.053C539.666 189.738 540.956 186.611 540.959 183.36C540.959 183.36 540.959 183.36 540.959 183.36L540.997 131.991Z" stroke="#009A08"/>
<path d="M228.88 78.3997L228.88 78.3997C228.899 81.6858 230.227 84.8555 232.565 87.1938L249.843 104.472C249.949 104.577 250.103 104.572 250.197 104.478L264.71 89.9658C264.803 89.872 264.808 89.7171 264.703 89.612L232.789 57.6973C229.831 54.7394 229.797 49.9695 232.73 47.0359L264.014 15.7524C264.108 15.6585 264.113 15.5036 264.008 15.3986L249.496 0.887111C249.397 0.787789 249.236 0.78795 249.136 0.887169C249.136 0.887253 249.136 0.887338 249.136 0.887423L232.132 17.9577C229.83 20.2717 228.552 23.4101 228.571 26.6832L228.88 78.3997Z" stroke="#FD8B0E"/>
<path d="M228.821 182.999L228.821 182.999C228.796 186.239 230.063 189.343 232.333 191.613L249.151 208.431C249.239 208.519 249.387 208.526 249.49 208.423L264.002 193.91C264.105 193.808 264.099 193.659 264.01 193.571L232.947 162.507C230.054 159.614 230.098 154.904 233.022 151.979L264.306 120.696C264.409 120.593 264.402 120.444 264.314 120.356L250.189 106.232C250.107 106.149 249.952 106.138 249.843 106.246C249.843 106.246 249.843 106.246 249.843 106.246L232.838 123.316C230.533 125.633 229.231 128.748 229.206 131.976C229.206 131.976 229.206 131.976 229.206 131.976L228.821 182.999Z" stroke="#081224"/>
<path d="M216.779 27.0116L216.779 27.0115C216.804 23.7717 215.537 20.6676 213.266 18.3973L196.449 1.57998C196.361 1.49182 196.212 1.48516 196.109 1.58801L181.597 16.1002C181.494 16.203 181.501 16.3516 181.589 16.4398L212.653 47.5034C215.546 50.3966 215.502 55.1067 212.578 58.0313L181.294 89.3148C181.191 89.4177 181.198 89.5663 181.286 89.6544L195.41 103.779C195.493 103.861 195.648 103.873 195.756 103.765C195.756 103.765 195.756 103.764 195.756 103.764L212.762 86.695C215.066 84.3781 216.369 81.2622 216.394 78.0345C216.394 78.0344 216.394 78.0344 216.394 78.0344L216.779 27.0116Z" stroke="#081224"/>
<path d="M216.72 131.611L216.72 131.611C216.701 128.325 215.372 125.155 213.034 122.817L195.756 105.539C195.651 105.434 195.496 105.439 195.402 105.533L180.89 120.045C180.796 120.139 180.791 120.294 180.896 120.399L212.811 152.313C215.769 155.271 215.803 160.041 212.869 162.975L181.586 194.258C181.492 194.352 181.487 194.507 181.592 194.612L196.103 209.124C196.203 209.223 196.364 209.223 196.463 209.124C196.463 209.123 196.463 209.123 196.464 209.123L213.468 192.053C215.769 189.739 217.047 186.601 217.028 183.327L216.72 131.611Z" stroke="#FD8B0E"/>
<path d="M325.997 27.339L325.997 27.3389C326 24.076 324.703 20.939 322.398 18.6347L305.351 1.58708C305.254 1.49045 305.102 1.4897 305.004 1.58799L290.492 16.1002C290.393 16.1985 290.394 16.3503 290.491 16.4469L321.98 47.936C324.906 50.8616 324.9 55.6015 321.971 58.5307L290.688 89.8142C290.589 89.9125 290.59 90.0643 290.687 90.1609L305.005 104.479C305.096 104.57 305.254 104.575 305.358 104.472C305.358 104.472 305.358 104.472 305.358 104.471L322.363 87.4016C324.666 85.0862 325.956 81.9591 325.959 78.7087C325.959 78.7087 325.959 78.7086 325.959 78.7086L325.997 27.339Z" stroke="#081224"/>
<path d="M325.997 131.991L325.997 131.991C326 128.728 324.703 125.591 322.398 123.287L305.351 106.239C305.254 106.142 305.102 106.141 305.004 106.24L290.492 120.752C290.393 120.85 290.394 121.002 290.491 121.099L321.98 152.588C324.906 155.513 324.9 160.253 321.971 163.182L290.688 194.466C290.589 194.564 290.59 194.716 290.687 194.813L305.005 209.131C305.096 209.222 305.254 209.227 305.358 209.124C305.358 209.123 305.358 209.123 305.358 209.123L322.363 192.053C324.666 189.738 325.956 186.611 325.959 183.36C325.959 183.36 325.959 183.36 325.959 183.36L325.997 131.991Z" stroke="#009A08"/>
<path d="M659.88 78.3997L659.88 78.3997C659.899 81.6858 661.227 84.8555 663.565 87.1938L680.843 104.472C680.949 104.577 681.103 104.572 681.197 104.478L695.71 89.9658C695.803 89.872 695.808 89.7171 695.703 89.612L663.789 57.6973C660.831 54.7394 660.797 49.9695 663.73 47.0359L695.014 15.7524C695.108 15.6585 695.113 15.5036 695.008 15.3986L680.496 0.887111C680.397 0.787789 680.236 0.78795 680.136 0.887169C680.136 0.887253 680.136 0.887338 680.136 0.887423L663.132 17.9577C660.83 20.2717 659.552 23.4101 659.571 26.6832L659.88 78.3997Z" stroke="#FD8B0E"/>
<path d="M554.139 78.727L554.139 78.7271C554.137 81.99 555.434 85.1269 557.738 87.4312L574.786 104.479C574.883 104.576 575.034 104.576 575.133 104.478L589.645 89.9658C589.743 89.8675 589.743 89.7157 589.646 89.6191L558.157 58.13C555.231 55.2044 555.236 50.4645 558.165 47.5353L589.449 16.2518C589.547 16.1535 589.546 16.0017 589.45 15.9051L575.132 1.58709C575.041 1.49615 574.883 1.49055 574.779 1.59427C574.779 1.59435 574.779 1.59443 574.779 1.59452L557.774 18.6644C555.471 20.9798 554.18 24.1069 554.178 27.3573C554.178 27.3573 554.178 27.3573 554.178 27.3574L554.139 78.727Z" stroke="#009A08"/>
<path d="M659.821 182.999L659.821 182.999C659.796 186.239 661.063 189.343 663.333 191.613L680.151 208.431C680.239 208.519 680.387 208.526 680.49 208.423L695.002 193.91C695.105 193.808 695.099 193.659 695.01 193.571L663.947 162.507C661.054 159.614 661.098 154.904 664.022 151.979L695.306 120.696C695.409 120.593 695.402 120.444 695.314 120.356L681.189 106.232C681.107 106.149 680.952 106.138 680.843 106.246C680.843 106.246 680.843 106.246 680.843 106.246L663.838 123.316C661.533 125.633 660.231 128.748 660.206 131.976C660.206 131.976 660.206 131.976 660.206 131.976L659.821 182.999Z" stroke="#081224"/>
<path d="M553.756 182.999L553.756 182.999C553.731 186.239 554.998 189.343 557.269 191.613L574.086 208.431C574.174 208.519 574.323 208.526 574.426 208.423L588.938 193.91C589.041 193.808 589.034 193.659 588.946 193.571L557.882 162.507C554.989 159.614 555.033 154.904 557.958 151.979L589.241 120.696C589.344 120.593 589.337 120.444 589.249 120.356L575.125 106.232C575.042 106.149 574.887 106.138 574.779 106.246C574.779 106.246 574.779 106.246 574.779 106.246L557.773 123.316C555.469 125.633 554.166 128.748 554.141 131.976C554.141 131.976 554.141 131.976 554.141 131.976L553.756 182.999Z" stroke="#081224"/>
<path d="M647.779 27.0116L647.779 27.0115C647.804 23.7717 646.537 20.6676 644.266 18.3973L627.449 1.57998C627.361 1.49182 627.212 1.48516 627.109 1.58801L612.597 16.1002C612.494 16.203 612.501 16.3516 612.589 16.4398L643.653 47.5034C646.546 50.3966 646.502 55.1067 643.578 58.0313L612.294 89.3148C612.191 89.4177 612.198 89.5663 612.286 89.6544L626.41 103.779C626.493 103.861 626.648 103.873 626.756 103.765C626.756 103.765 626.756 103.764 626.756 103.764L643.762 86.695C646.066 84.3781 647.369 81.2622 647.394 78.0345C647.394 78.0344 647.394 78.0344 647.394 78.0344L647.779 27.0116Z" stroke="#081224"/>
<path d="M647.72 131.611L647.72 131.611C647.701 128.325 646.372 125.155 644.034 122.817L626.756 105.539C626.651 105.434 626.496 105.439 626.402 105.533L611.89 120.045C611.796 120.139 611.791 120.294 611.896 120.399L643.811 152.313C646.769 155.271 646.803 160.041 643.869 162.975L612.586 194.258C612.492 194.352 612.487 194.507 612.592 194.612L627.103 209.124C627.203 209.223 627.364 209.223 627.463 209.124C627.463 209.123 627.463 209.123 627.464 209.123L644.468 192.053C646.769 189.739 648.047 186.601 648.028 183.327L647.72 131.611Z" stroke="#FD8B0E"/>
<path d="M756.997 27.339L756.997 27.3389C757 24.076 755.703 20.939 753.398 18.6347L736.351 1.58708C736.254 1.49045 736.102 1.4897 736.004 1.58799L721.492 16.1002C721.393 16.1985 721.394 16.3503 721.491 16.4469L752.98 47.936C755.906 50.8616 755.9 55.6015 752.971 58.5307L721.688 89.8142C721.589 89.9125 721.59 90.0643 721.687 90.1609L736.005 104.479C736.096 104.57 736.254 104.575 736.358 104.472C736.358 104.472 736.358 104.472 736.358 104.471L753.363 87.4016C755.666 85.0862 756.956 81.9591 756.959 78.7087C756.959 78.7087 756.959 78.7086 756.959 78.7086L756.997 27.339Z" stroke="#081224"/>
<path d="M756.997 131.991L756.997 131.991C757 128.728 755.703 125.591 753.398 123.287L736.351 106.239C736.254 106.142 736.102 106.141 736.004 106.24L721.492 120.752C721.393 120.85 721.394 121.002 721.491 121.099L752.98 152.588C755.906 155.513 755.9 160.253 752.971 163.182L721.688 194.466C721.589 194.564 721.59 194.716 721.687 194.813L736.005 209.131C736.096 209.222 736.254 209.227 736.358 209.124C736.358 209.123 736.358 209.123 736.358 209.123L753.363 192.053C755.666 189.738 756.956 186.611 756.959 183.36C756.959 183.36 756.959 183.36 756.959 183.36L756.997 131.991Z" stroke="#009A08"/>
</svg>
