<svg width="123" height="101" viewBox="0 0 123 101" fill="none" xmlns="http://www.w3.org/2000/svg">
<mask id="path-1-inside-1_283_333" fill="white">
<path d="M64.0936 100.429L80.2378 100.429C80.5676 100.429 80.8314 100.166 80.8314 99.8376L80.8314 64.7495C80.8314 61.6825 83.323 59.1997 86.4009 59.1997L121.906 59.1997C122.236 59.1997 122.5 58.9368 122.5 58.6082L122.5 42.3311C122.5 42.0025 122.236 41.7396 121.906 41.7396L102.684 41.7396C99.9802 41.7396 97.3787 42.8131 95.466 44.719L66.5266 73.5489C64.6212 75.4475 63.544 78.0253 63.5366 80.7199L63.5 99.8303C63.5 100.159 63.7638 100.429 64.0936 100.429Z"/>
</mask>
<path d="M95.466 44.719L95.8189 45.0732L95.8189 45.0732L95.466 44.719ZM66.5266 73.5489L66.1737 73.1947L66.1737 73.1947L66.5266 73.5489ZM63.5366 80.7199L63.0366 80.7185L63.0366 80.7189L63.5366 80.7199ZM63.5 99.8303L63 99.8293L63 99.8303L63.5 99.8303ZM64.0936 100.929L80.2378 100.929L80.2378 99.9291L64.0936 99.9291L64.0936 100.929ZM80.2378 100.929C80.842 100.929 81.3314 100.444 81.3314 99.8376L80.3314 99.8376C80.3314 99.8884 80.2931 99.9291 80.2378 99.9291L80.2378 100.929ZM81.3314 99.8376L81.3314 64.7495L80.3314 64.7495L80.3314 99.8376L81.3314 99.8376ZM81.3314 64.7495C81.3314 61.9603 83.5975 59.6997 86.4009 59.6997L86.4009 58.6997C83.0485 58.6997 80.3314 61.4047 80.3314 64.7495L81.3314 64.7495ZM86.4009 59.6997L121.906 59.6997L121.906 58.6997L86.4009 58.6997L86.4009 59.6997ZM121.906 59.6997C122.511 59.6997 123 59.2146 123 58.6082L122 58.6082C122 58.659 121.962 58.6997 121.906 58.6997L121.906 59.6997ZM123 58.6082L123 42.3311L122 42.3311L122 58.6082L123 58.6082ZM123 42.3311C123 41.7247 122.511 41.2396 121.906 41.2396L121.906 42.2396C121.962 42.2396 122 42.2803 122 42.3311L123 42.3311ZM121.906 41.2396L102.684 41.2396L102.684 42.2396L121.906 42.2396L121.906 41.2396ZM102.684 41.2396C99.8482 41.2396 97.1196 42.3653 95.113 44.3648L95.8189 45.0732C97.6377 43.2608 100.112 42.2396 102.684 42.2396L102.684 41.2396ZM95.1131 44.3648L66.1737 73.1947L66.8795 73.9031L95.8189 45.0732L95.1131 44.3648ZM66.1737 73.1947C64.1746 75.1867 63.0443 77.8913 63.0366 80.7185L64.0366 80.7212C64.0436 78.1593 65.0678 75.7084 66.8795 73.9031L66.1737 73.1947ZM63.0366 80.7189L63 99.8293L64 99.8312L64.0366 80.7208L63.0366 80.7189ZM63 99.8303C63 100.429 63.4814 100.929 64.0936 100.929L64.0936 99.9291C64.0463 99.9291 64 99.8891 64 99.8303L63 99.8303Z" fill="#009A08" mask="url(#path-1-inside-1_283_333)"/>
<mask id="path-3-inside-2_283_333" fill="white">
<path d="M58.9064 100.429L42.7622 100.429C42.4324 100.429 42.1686 100.166 42.1686 99.8376L42.1686 64.7495C42.1686 61.6825 39.677 59.1997 36.5991 59.1997L1.0936 59.1997C0.763823 59.1997 0.500002 58.9368 0.500002 58.6082L0.5 42.3311C0.5 42.0025 0.763821 41.7396 1.09359 41.7396L20.3157 41.7396C23.0198 41.7396 25.6213 42.8131 27.534 44.719L56.4734 73.5489C58.3788 75.4475 59.456 78.0253 59.4634 80.7199L59.5 99.8303C59.5 100.159 59.2362 100.429 58.9064 100.429Z"/>
</mask>
<path d="M27.534 44.719L27.1811 45.0732L27.1811 45.0732L27.534 44.719ZM56.4734 73.5489L56.8263 73.1947L56.8263 73.1947L56.4734 73.5489ZM59.4634 80.7199L59.9634 80.7185L59.9634 80.7189L59.4634 80.7199ZM59.5 99.8303L60 99.8293L60 99.8303L59.5 99.8303ZM58.9064 100.929L42.7622 100.929L42.7622 99.9291L58.9064 99.9291L58.9064 100.929ZM42.7622 100.929C42.158 100.929 41.6686 100.444 41.6686 99.8376L42.6686 99.8376C42.6686 99.8884 42.7069 99.9291 42.7622 99.9291L42.7622 100.929ZM41.6686 99.8376L41.6686 64.7495L42.6686 64.7495L42.6686 99.8376L41.6686 99.8376ZM41.6686 64.7495C41.6686 61.9603 39.4025 59.6997 36.5991 59.6997L36.5991 58.6997C39.9515 58.6997 42.6686 61.4047 42.6686 64.7495L41.6686 64.7495ZM36.5991 59.6997L1.0936 59.6997L1.0936 58.6997L36.5991 58.6997L36.5991 59.6997ZM1.0936 59.6997C0.489352 59.6997 2.19617e-06 59.2146 2.11623e-06 58.6082L1 58.6082C1 58.659 1.03829 58.6997 1.0936 58.6997L1.0936 59.6997ZM2.11623e-06 58.6082L-2.95464e-08 42.3311L1 42.3311L1 58.6082L2.11623e-06 58.6082ZM-2.95464e-08 42.3311C-1.0949e-07 41.7247 0.489349 41.2396 1.09359 41.2396L1.09359 42.2396C1.03829 42.2396 1 42.2803 1 42.3311L-2.95464e-08 42.3311ZM1.09359 41.2396L20.3157 41.2396L20.3157 42.2396L1.09359 42.2396L1.09359 41.2396ZM20.3157 41.2396C23.1518 41.2396 25.8804 42.3653 27.887 44.3648L27.1811 45.0732C25.3623 43.2608 22.8878 42.2396 20.3157 42.2396L20.3157 41.2396ZM27.8869 44.3648L56.8263 73.1947L56.1205 73.9031L27.1811 45.0732L27.8869 44.3648ZM56.8263 73.1947C58.8254 75.1867 59.9557 77.8913 59.9634 80.7185L58.9634 80.7212C58.9564 78.1593 57.9322 75.7084 56.1205 73.9031L56.8263 73.1947ZM59.9634 80.7189L60 99.8293L59 99.8312L58.9634 80.7208L59.9634 80.7189ZM60 99.8303C60 100.429 59.5186 100.929 58.9064 100.929L58.9064 99.9291C58.9537 99.9291 59 99.8891 59 99.8303L60 99.8303Z" fill="#081224" mask="url(#path-3-inside-2_283_333)"/>
<mask id="path-5-inside-3_283_333" fill="white">
<path d="M64.0936 59.6448L80.2378 59.6448C80.5676 59.6448 80.8314 59.3819 80.8314 59.0533L80.8314 23.9653C80.8314 20.8982 83.323 18.4154 86.4009 18.4154L121.906 18.4154C122.236 18.4154 122.5 18.1525 122.5 17.8239L122.5 1.54686C122.5 1.21825 122.236 0.95536 121.906 0.95536L102.684 0.955358C99.9802 0.955358 97.3787 2.02882 95.466 3.93475L66.5266 32.7647C64.6212 34.6633 63.544 37.241 63.5366 39.9356L63.5 59.046C63.5 59.3746 63.7638 59.6448 64.0936 59.6448Z"/>
</mask>
<path d="M95.466 3.93475L95.8189 4.28897L95.8189 4.28892L95.466 3.93475ZM66.5266 32.7647L66.1737 32.4104L66.1737 32.4105L66.5266 32.7647ZM63.5366 39.9356L63.0366 39.9343L63.0366 39.9347L63.5366 39.9356ZM63.5 59.046L63 59.0451L63 59.046L63.5 59.046ZM64.0936 60.1448L80.2378 60.1448L80.2378 59.1448L64.0936 59.1448L64.0936 60.1448ZM80.2378 60.1448C80.842 60.1448 81.3314 59.6598 81.3314 59.0533L80.3314 59.0533C80.3314 59.1041 80.2931 59.1448 80.2378 59.1448L80.2378 60.1448ZM81.3314 59.0533L81.3314 23.9653L80.3314 23.9653L80.3314 59.0533L81.3314 59.0533ZM81.3314 23.9653C81.3314 21.176 83.5975 18.9154 86.4009 18.9154L86.4009 17.9154C83.0485 17.9154 80.3314 20.6204 80.3314 23.9653L81.3314 23.9653ZM86.4009 18.9154L121.906 18.9154L121.906 17.9154L86.4009 17.9154L86.4009 18.9154ZM121.906 18.9154C122.511 18.9154 123 18.4304 123 17.8239L122 17.8239C122 17.8747 121.962 17.9154 121.906 17.9154L121.906 18.9154ZM123 17.8239L123 1.54686L122 1.54686L122 17.8239L123 17.8239ZM123 1.54686C123 0.940434 122.511 0.45536 121.906 0.45536L121.906 1.45536C121.962 1.45536 122 1.49606 122 1.54686L123 1.54686ZM121.906 0.45536L102.684 0.455358L102.684 1.45536L121.906 1.45536L121.906 0.45536ZM102.684 0.455358C99.8482 0.455358 97.1196 1.58105 95.113 3.58057L95.8189 4.28892C97.6377 2.47658 100.112 1.45536 102.684 1.45536L102.684 0.455358ZM95.1131 3.58052L66.1737 32.4104L66.8795 33.1189L95.8189 4.28897L95.1131 3.58052ZM66.1737 32.4105C64.1746 34.4024 63.0443 37.107 63.0366 39.9343L64.0366 39.937C64.0436 37.3751 65.0678 34.9241 66.8795 33.1188L66.1737 32.4105ZM63.0366 39.9347L63 59.0451L64 59.047L64.0366 39.9366L63.0366 39.9347ZM63 59.046C63 59.6445 63.4814 60.1448 64.0936 60.1448L64.0936 59.1448C64.0463 59.1448 64 59.1048 64 59.046L63 59.046Z" fill="#081224" mask="url(#path-5-inside-3_283_333)"/>
<mask id="path-7-inside-4_283_333" fill="white">
<path d="M58.9064 59.6448L42.7622 59.6448C42.4324 59.6448 42.1686 59.3819 42.1686 59.0533L42.1686 23.9653C42.1686 20.8982 39.677 18.4154 36.5991 18.4154L1.0936 18.4154C0.763823 18.4154 0.500002 18.1525 0.500002 17.8239L0.5 1.54686C0.5 1.21825 0.763821 0.95536 1.09359 0.95536L20.3157 0.955358C23.0198 0.955358 25.6213 2.02882 27.534 3.93475L56.4734 32.7647C58.3788 34.6633 59.456 37.241 59.4634 39.9356L59.5 59.046C59.5 59.3746 59.2362 59.6448 58.9064 59.6448Z"/>
</mask>
<path d="M27.534 3.93475L27.1811 4.28897L27.1811 4.28892L27.534 3.93475ZM56.4734 32.7647L56.8263 32.4104L56.8263 32.4105L56.4734 32.7647ZM59.4634 39.9356L59.9634 39.9343L59.9634 39.9347L59.4634 39.9356ZM59.5 59.046L60 59.0451L60 59.046L59.5 59.046ZM58.9064 60.1448L42.7622 60.1448L42.7622 59.1448L58.9064 59.1448L58.9064 60.1448ZM42.7622 60.1448C42.158 60.1448 41.6686 59.6598 41.6686 59.0533L42.6686 59.0533C42.6686 59.1041 42.7069 59.1448 42.7622 59.1448L42.7622 60.1448ZM41.6686 59.0533L41.6686 23.9653L42.6686 23.9653L42.6686 59.0533L41.6686 59.0533ZM41.6686 23.9653C41.6686 21.176 39.4025 18.9154 36.5991 18.9154L36.5991 17.9154C39.9515 17.9154 42.6686 20.6204 42.6686 23.9653L41.6686 23.9653ZM36.5991 18.9154L1.0936 18.9154L1.0936 17.9154L36.5991 17.9154L36.5991 18.9154ZM1.0936 18.9154C0.489352 18.9154 2.19617e-06 18.4304 2.11623e-06 17.8239L1 17.8239C1 17.8747 1.03829 17.9154 1.0936 17.9154L1.0936 18.9154ZM2.11623e-06 17.8239L-2.95464e-08 1.54686L1 1.54686L1 17.8239L2.11623e-06 17.8239ZM-2.95464e-08 1.54686C-1.0949e-07 0.940434 0.489349 0.45536 1.09359 0.45536L1.09359 1.45536C1.03829 1.45536 1 1.49606 1 1.54686L-2.95464e-08 1.54686ZM1.09359 0.45536L20.3157 0.455358L20.3157 1.45536L1.09359 1.45536L1.09359 0.45536ZM20.3157 0.455358C23.1518 0.455358 25.8804 1.58105 27.887 3.58057L27.1811 4.28892C25.3623 2.47658 22.8878 1.45536 20.3157 1.45536L20.3157 0.455358ZM27.8869 3.58052L56.8263 32.4104L56.1205 33.1189L27.1811 4.28897L27.8869 3.58052ZM56.8263 32.4105C58.8254 34.4024 59.9557 37.107 59.9634 39.9343L58.9634 39.937C58.9564 37.3751 57.9322 34.9241 56.1205 33.1188L56.8263 32.4105ZM59.9634 39.9347L60 59.0451L59 59.047L58.9634 39.9366L59.9634 39.9347ZM60 59.046C60 59.6445 59.5186 60.1448 58.9064 60.1448L58.9064 59.1448C58.9537 59.1448 59 59.1048 59 59.046L60 59.046Z" fill="#FD8B0E" mask="url(#path-7-inside-4_283_333)"/>
</svg>
