<svg width="241" height="132" viewBox="0 0 241 132" fill="none" xmlns="http://www.w3.org/2000/svg">
<path d="M48.218 28.679L48.218 28.679C46.2659 26.7304 45.1665 24.0797 45.1665 21.3251L45.1665 0.799849C45.1665 0.72468 45.224 0.666014 45.3014 0.666014L62.774 0.666016C62.8514 0.666016 62.9089 0.724682 62.9089 0.79985L62.9089 38.7125C62.9089 42.276 65.7988 45.1596 69.3664 45.1596L107.032 45.1596C107.109 45.1596 107.167 45.2183 107.167 45.2935L107.167 62.5322C107.167 62.5993 107.109 62.6659 107.024 62.666C107.024 62.666 107.024 62.666 107.024 62.666L86.5111 62.6269C83.7504 62.6194 81.1099 61.5216 79.1654 59.5804C79.1653 59.5804 79.1653 59.5804 79.1653 59.5804L48.218 28.679Z" stroke="white"/>
<path d="M181.218 28.679L181.218 28.679C179.266 26.7304 178.166 24.0797 178.166 21.3251L178.167 0.799849C178.167 0.72468 178.224 0.666014 178.301 0.666014L195.774 0.666016C195.851 0.666016 195.909 0.724682 195.909 0.79985L195.909 38.7125C195.909 42.276 198.799 45.1596 202.366 45.1596L240.032 45.1596C240.109 45.1596 240.167 45.2183 240.167 45.2935L240.167 62.5322C240.167 62.5993 240.109 62.6659 240.024 62.666C240.024 62.666 240.024 62.666 240.024 62.666L219.511 62.6269C216.75 62.6194 214.11 61.5216 212.165 59.5804C212.165 59.5804 212.165 59.5804 212.165 59.5804L181.218 28.679Z" stroke="#134591"/>
<path d="M48.218 102.653L48.218 102.653C46.2659 104.602 45.1665 107.252 45.1665 110.007L45.1665 130.532C45.1665 130.607 45.224 130.666 45.3014 130.666L62.774 130.666C62.8514 130.666 62.909 130.607 62.909 130.532L62.9089 92.6195C62.9089 89.056 65.7988 86.1724 69.3664 86.1724L107.032 86.1724C107.109 86.1724 107.167 86.1137 107.167 86.0386L107.167 68.7999C107.167 68.7327 107.109 68.6662 107.024 68.666C107.024 68.666 107.024 68.666 107.024 68.666L86.5111 68.7051C83.7504 68.7126 81.1099 69.8105 79.1654 71.7516C79.1653 71.7516 79.1653 71.7516 79.1653 71.7517L48.218 102.653Z" stroke="white"/>
<path d="M181.218 102.653L181.218 102.653C179.266 104.602 178.167 107.252 178.167 110.007L178.167 130.532C178.167 130.607 178.224 130.666 178.301 130.666L195.774 130.666C195.851 130.666 195.909 130.607 195.909 130.532L195.909 92.6195C195.909 89.056 198.799 86.1724 202.366 86.1724L240.032 86.1724C240.109 86.1724 240.167 86.1137 240.167 86.0386L240.167 68.7999C240.167 68.7327 240.109 68.6662 240.024 68.666C240.024 68.666 240.024 68.666 240.024 68.666L219.511 68.7051C216.75 68.7126 214.11 69.8105 212.165 71.7516C212.165 71.7516 212.165 71.7516 212.165 71.7517L181.218 102.653Z" stroke="#134591"/>
<path d="M93.218 28.679L93.218 28.679C91.2659 26.7304 90.1665 24.0797 90.1665 21.3251L90.1665 0.799849C90.1665 0.72468 90.224 0.666014 90.3014 0.666014L107.774 0.666016C107.851 0.666016 107.909 0.724682 107.909 0.79985L107.909 38.7125C107.909 42.276 110.799 45.1596 114.366 45.1596L152.032 45.1596C152.109 45.1596 152.167 45.2183 152.167 45.2935L152.167 62.5322C152.167 62.5993 152.109 62.6659 152.024 62.666C152.024 62.666 152.024 62.666 152.024 62.666L131.511 62.6269C128.75 62.6194 126.11 61.5216 124.165 59.5804C124.165 59.5804 124.165 59.5804 124.165 59.5804L93.218 28.679Z" stroke="#009A08"/>
<path d="M93.218 102.653L93.218 102.653C91.2659 104.602 90.1665 107.252 90.1665 110.007L90.1665 130.532C90.1665 130.607 90.224 130.666 90.3014 130.666L107.774 130.666C107.851 130.666 107.909 130.607 107.909 130.532L107.909 92.6195C107.909 89.056 110.799 86.1724 114.366 86.1724L152.032 86.1724C152.109 86.1724 152.167 86.1137 152.167 86.0386L152.167 68.7999C152.167 68.7327 152.109 68.6662 152.024 68.666C152.024 68.666 152.024 68.666 152.024 68.666L131.511 68.7051C128.75 68.7126 126.11 69.8105 124.165 71.7516C124.165 71.7516 124.165 71.7516 124.165 71.7517L93.218 102.653Z" stroke="#009A08"/>
<path d="M4.218 28.679L4.21796 28.679C2.26593 26.7304 1.1665 24.0797 1.1665 21.3251L1.1665 0.799849C1.1665 0.72468 1.22402 0.666014 1.30144 0.666014L18.774 0.666016C18.8514 0.666016 18.9089 0.724682 18.9089 0.79985L18.9089 38.7125C18.9089 42.276 21.7988 45.1596 25.3664 45.1596L63.0316 45.1596C63.109 45.1596 63.1665 45.2183 63.1665 45.2935L63.1665 62.5322C63.1665 62.5993 63.1093 62.6659 63.024 62.666C63.0239 62.666 63.0238 62.666 63.0237 62.666L42.5111 62.6269C39.7504 62.6194 37.1099 61.5216 35.1654 59.5804C35.1653 59.5804 35.1653 59.5804 35.1653 59.5804L4.218 28.679Z" stroke="#FD8B0E"/>
<path d="M137.218 28.679L137.218 28.679C135.266 26.7304 134.166 24.0797 134.166 21.3251L134.167 0.799849C134.167 0.72468 134.224 0.666014 134.301 0.666014L151.774 0.666016C151.851 0.666016 151.909 0.724682 151.909 0.79985L151.909 38.7125C151.909 42.276 154.799 45.1596 158.366 45.1596L196.032 45.1596C196.109 45.1596 196.167 45.2183 196.167 45.2935L196.167 62.5322C196.167 62.5993 196.109 62.6659 196.024 62.666C196.024 62.666 196.024 62.666 196.024 62.666L175.511 62.6269C172.75 62.6194 170.11 61.5216 168.165 59.5804C168.165 59.5804 168.165 59.5804 168.165 59.5804L137.218 28.679Z" stroke="#134591"/>
<path d="M4.218 102.653L4.21796 102.653C2.26593 104.602 1.1665 107.252 1.1665 110.007L1.16651 130.532C1.16651 130.607 1.22403 130.666 1.30144 130.666L18.774 130.666C18.8514 130.666 18.909 130.607 18.909 130.532L18.9089 92.6195C18.9089 89.056 21.7988 86.1724 25.3664 86.1724L63.0316 86.1724C63.109 86.1724 63.1665 86.1137 63.1665 86.0386L63.1665 68.7999C63.1665 68.7327 63.1093 68.6662 63.024 68.666C63.0239 68.666 63.0238 68.666 63.0237 68.666L42.5111 68.7051C39.7504 68.7126 37.1099 69.8105 35.1654 71.7516C35.1653 71.7516 35.1653 71.7516 35.1653 71.7517L4.218 102.653Z" stroke="#FD8B0E"/>
<path d="M137.218 102.653L137.218 102.653C135.266 104.602 134.167 107.252 134.167 110.007L134.167 130.532C134.167 130.607 134.224 130.666 134.301 130.666L151.774 130.666C151.851 130.666 151.909 130.607 151.909 130.532L151.909 92.6195C151.909 89.056 154.799 86.1724 158.366 86.1724L196.032 86.1724C196.109 86.1724 196.167 86.1137 196.167 86.0386L196.167 68.7999C196.167 68.7327 196.109 68.6662 196.024 68.666C196.024 68.666 196.024 68.666 196.024 68.666L175.511 68.7051C172.75 68.7126 170.11 69.8105 168.165 71.7516C168.165 71.7516 168.165 71.7516 168.165 71.7517L137.218 102.653Z" stroke="#134591"/>
</svg>
