<svg width="240" height="132" viewBox="0 0 240 132" fill="none" xmlns="http://www.w3.org/2000/svg">
<path d="M47.5515 28.679L47.5515 28.679C45.5994 26.7304 44.5 24.0797 44.5 21.3251L44.5 0.799849C44.5 0.72468 44.5575 0.666014 44.6349 0.666014L62.1075 0.666016C62.1849 0.666016 62.2424 0.724682 62.2424 0.79985L62.2424 38.7125C62.2424 42.276 65.1323 45.1596 68.6999 45.1596L106.365 45.1596C106.442 45.1596 106.5 45.2183 106.5 45.2935L106.5 62.5322C106.5 62.5993 106.443 62.6659 106.358 62.666C106.357 62.666 106.357 62.666 106.357 62.666L85.8446 62.6269C83.0839 62.6194 80.4434 61.5216 78.4989 59.5804C78.4988 59.5804 78.4988 59.5804 78.4988 59.5804L47.5515 28.679Z" stroke="#134591"/>
<path d="M180.551 28.679L180.551 28.679C178.599 26.7304 177.5 24.0797 177.5 21.3251L177.5 0.799849C177.5 0.72468 177.558 0.666014 177.635 0.666014L195.108 0.666016C195.185 0.666016 195.242 0.724682 195.242 0.79985L195.242 38.7125C195.242 42.276 198.132 45.1596 201.7 45.1596L239.365 45.1596C239.442 45.1596 239.5 45.2183 239.5 45.2935L239.5 62.5322C239.5 62.5993 239.443 62.6659 239.358 62.666C239.357 62.666 239.357 62.666 239.357 62.666L218.845 62.6269C216.084 62.6194 213.443 61.5216 211.499 59.5804C211.499 59.5804 211.499 59.5804 211.499 59.5804L180.551 28.679Z" stroke="#134591"/>
<path d="M47.5515 102.653L47.5515 102.653C45.5994 104.602 44.5 107.252 44.5 110.007L44.5 130.532C44.5 130.607 44.5575 130.666 44.6349 130.666L62.1075 130.666C62.1849 130.666 62.2424 130.607 62.2424 130.532L62.2424 92.6195C62.2424 89.056 65.1323 86.1724 68.6999 86.1724L106.365 86.1724C106.442 86.1724 106.5 86.1137 106.5 86.0386L106.5 68.7999C106.5 68.7327 106.443 68.6662 106.358 68.666C106.357 68.666 106.357 68.666 106.357 68.666L85.8446 68.7051C83.0839 68.7126 80.4434 69.8105 78.4989 71.7516C78.4988 71.7516 78.4988 71.7516 78.4988 71.7517L47.5515 102.653Z" stroke="#134591"/>
<path d="M180.552 102.653L180.551 102.653C178.599 104.602 177.5 107.252 177.5 110.007L177.5 130.532C177.5 130.607 177.558 130.666 177.635 130.666L195.108 130.666C195.185 130.666 195.242 130.607 195.242 130.532L195.242 92.6195C195.242 89.056 198.132 86.1724 201.7 86.1724L239.365 86.1724C239.442 86.1724 239.5 86.1137 239.5 86.0386L239.5 68.7999C239.5 68.7327 239.443 68.6662 239.358 68.666C239.357 68.666 239.357 68.666 239.357 68.666L218.845 68.7051C216.084 68.7126 213.443 69.8105 211.499 71.7516C211.499 71.7516 211.499 71.7516 211.499 71.7517L180.552 102.653Z" stroke="#134591"/>
<path d="M92.5515 28.679L92.5515 28.679C90.5994 26.7304 89.5 24.0797 89.5 21.3251L89.5 0.799849C89.5 0.72468 89.5575 0.666014 89.6349 0.666014L107.108 0.666016C107.185 0.666016 107.242 0.724682 107.242 0.79985L107.242 38.7125C107.242 42.276 110.132 45.1596 113.7 45.1596L151.365 45.1596C151.442 45.1596 151.5 45.2183 151.5 45.2935L151.5 62.5322C151.5 62.5993 151.443 62.6659 151.358 62.666C151.357 62.666 151.357 62.666 151.357 62.666L130.845 62.6269C128.084 62.6194 125.443 61.5216 123.499 59.5804C123.499 59.5804 123.499 59.5804 123.499 59.5804L92.5515 28.679Z" stroke="#134591"/>
<path d="M92.5515 102.653L92.5515 102.653C90.5994 104.602 89.5 107.252 89.5 110.007L89.5 130.532C89.5 130.607 89.5575 130.666 89.6349 130.666L107.108 130.666C107.185 130.666 107.242 130.607 107.242 130.532L107.242 92.6195C107.242 89.056 110.132 86.1724 113.7 86.1724L151.365 86.1724C151.442 86.1724 151.5 86.1137 151.5 86.0386L151.5 68.7999C151.5 68.7327 151.443 68.6662 151.358 68.666C151.357 68.666 151.357 68.666 151.357 68.666L130.845 68.7051C128.084 68.7126 125.443 69.8105 123.499 71.7516C123.499 71.7516 123.499 71.7516 123.499 71.7517L92.5515 102.653Z" stroke="#134591"/>
<path d="M3.5515 28.679L3.55145 28.679C1.59942 26.7304 0.499996 24.0797 0.499996 21.3251L0.499998 0.799849C0.499998 0.72468 0.557516 0.666014 0.634935 0.666014L18.1075 0.666016C18.1849 0.666016 18.2424 0.724682 18.2424 0.79985L18.2424 38.7125C18.2424 42.276 21.1323 45.1596 24.6999 45.1596L62.3651 45.1596C62.4425 45.1596 62.5 45.2183 62.5 45.2935L62.5 62.5322C62.5 62.5993 62.4428 62.6659 62.3575 62.666C62.3574 62.666 62.3573 62.666 62.3572 62.666L41.8446 62.6269C39.0839 62.6194 36.4434 61.5216 34.4989 59.5804C34.4988 59.5804 34.4988 59.5804 34.4988 59.5804L3.5515 28.679Z" stroke="#FD8B0E"/>
<path d="M136.551 28.679L136.551 28.679C134.599 26.7304 133.5 24.0797 133.5 21.3251L133.5 0.799849C133.5 0.72468 133.558 0.666014 133.635 0.666014L151.108 0.666016C151.185 0.666016 151.242 0.724682 151.242 0.79985L151.242 38.7125C151.242 42.276 154.132 45.1596 157.7 45.1596L195.365 45.1596C195.442 45.1596 195.5 45.2183 195.5 45.2935L195.5 62.5322C195.5 62.5993 195.443 62.6659 195.358 62.666C195.357 62.666 195.357 62.666 195.357 62.666L174.845 62.6269C172.084 62.6194 169.443 61.5216 167.499 59.5804C167.499 59.5804 167.499 59.5804 167.499 59.5804L136.551 28.679Z" stroke="#134591"/>
<path d="M3.5515 102.653L3.55145 102.653C1.59943 104.602 0.499999 107.252 0.5 110.007L0.500003 130.532C0.500003 130.607 0.557521 130.666 0.634941 130.666L18.1075 130.666C18.1849 130.666 18.2424 130.607 18.2424 130.532L18.2424 92.6195C18.2424 89.056 21.1323 86.1724 24.6999 86.1724L62.3651 86.1724C62.4425 86.1724 62.5 86.1137 62.5 86.0386L62.5 68.7999C62.5 68.7327 62.4428 68.6662 62.3575 68.666C62.3574 68.666 62.3573 68.666 62.3572 68.666L41.8446 68.7051C39.0839 68.7126 36.4434 69.8105 34.4989 71.7516C34.4988 71.7516 34.4988 71.7516 34.4988 71.7517L3.5515 102.653Z" stroke="#FD8B0E"/>
<path d="M136.552 102.653L136.551 102.653C134.599 104.602 133.5 107.252 133.5 110.007L133.5 130.532C133.5 130.607 133.558 130.666 133.635 130.666L151.108 130.666C151.185 130.666 151.242 130.607 151.242 130.532L151.242 92.6195C151.242 89.056 154.132 86.1724 157.7 86.1724L195.365 86.1724C195.442 86.1724 195.5 86.1137 195.5 86.0386L195.5 68.7999C195.5 68.7327 195.443 68.6662 195.358 68.666C195.357 68.666 195.357 68.666 195.357 68.666L174.845 68.7051C172.084 68.7126 169.443 69.8105 167.499 71.7516C167.499 71.7516 167.499 71.7516 167.499 71.7517L136.552 102.653Z" stroke="#134591"/>
</svg>
