<svg width="241" height="132" viewBox="0 0 241 132" fill="none" xmlns="http://www.w3.org/2000/svg">
<path d="M47.8815 28.679L47.8814 28.679C45.9294 26.7304 44.83 24.0797 44.83 21.3251L44.83 0.799849C44.83 0.72468 44.8875 0.666014 44.9649 0.666014L62.4375 0.666016C62.5149 0.666016 62.5724 0.724682 62.5724 0.79985L62.5724 38.7125C62.5724 42.276 65.4622 45.1596 69.0298 45.1596L106.695 45.1596C106.772 45.1596 106.83 45.2183 106.83 45.2935L106.83 62.5322C106.83 62.5993 106.773 62.6659 106.687 62.666C106.687 62.666 106.687 62.666 106.687 62.666L86.1745 62.6269C83.4139 62.6194 80.7734 61.5216 78.8288 59.5804C78.8288 59.5804 78.8288 59.5804 78.8288 59.5804L47.8815 28.679Z" stroke="white"/>
<path d="M180.881 28.679L180.881 28.679C178.929 26.7304 177.83 24.0797 177.83 21.3251L177.83 0.799849C177.83 0.72468 177.887 0.666014 177.965 0.666014L195.437 0.666016C195.515 0.666016 195.572 0.724682 195.572 0.79985L195.572 38.7125C195.572 42.276 198.462 45.1596 202.03 45.1596L239.695 45.1596C239.772 45.1596 239.83 45.2183 239.83 45.2935L239.83 62.5322C239.83 62.5993 239.773 62.6659 239.687 62.666C239.687 62.666 239.687 62.666 239.687 62.666L219.175 62.6269C216.414 62.6194 213.773 61.5216 211.829 59.5804C211.829 59.5804 211.829 59.5804 211.829 59.5804L180.881 28.679Z" stroke="#FD8B0E"/>
<path d="M47.8815 102.653L47.8814 102.653C45.9294 104.602 44.83 107.252 44.83 110.007L44.83 130.532C44.83 130.607 44.8875 130.666 44.9649 130.666L62.4375 130.666C62.5149 130.666 62.5724 130.607 62.5724 130.532L62.5724 92.6195C62.5724 89.056 65.4622 86.1724 69.0298 86.1724L106.695 86.1724C106.772 86.1724 106.83 86.1137 106.83 86.0386L106.83 68.7999C106.83 68.7327 106.773 68.6662 106.687 68.666C106.687 68.666 106.687 68.666 106.687 68.666L86.1745 68.7051C83.4139 68.7126 80.7734 69.8105 78.8288 71.7516C78.8288 71.7516 78.8288 71.7516 78.8288 71.7517L47.8815 102.653Z" stroke="white"/>
<path d="M180.881 102.653L180.881 102.653C178.929 104.602 177.83 107.252 177.83 110.007L177.83 130.532C177.83 130.607 177.887 130.666 177.965 130.666L195.437 130.666C195.515 130.666 195.572 130.607 195.572 130.532L195.572 92.6195C195.572 89.056 198.462 86.1724 202.03 86.1724L239.695 86.1724C239.772 86.1724 239.83 86.1137 239.83 86.0386L239.83 68.7999C239.83 68.7327 239.773 68.6662 239.687 68.666C239.687 68.666 239.687 68.666 239.687 68.666L219.175 68.7051C216.414 68.7126 213.773 69.8105 211.829 71.7516C211.829 71.7516 211.829 71.7516 211.829 71.7517L180.881 102.653Z" stroke="#FD8B0E"/>
<path d="M92.8815 28.679L92.8814 28.679C90.9294 26.7304 89.83 24.0797 89.83 21.3251L89.83 0.799849C89.83 0.72468 89.8875 0.666014 89.9649 0.666014L107.437 0.666016C107.515 0.666016 107.572 0.724682 107.572 0.79985L107.572 38.7125C107.572 42.276 110.462 45.1596 114.03 45.1596L151.695 45.1596C151.772 45.1596 151.83 45.2183 151.83 45.2935L151.83 62.5322C151.83 62.5993 151.773 62.6659 151.687 62.666C151.687 62.666 151.687 62.666 151.687 62.666L131.175 62.6269C128.414 62.6194 125.773 61.5216 123.829 59.5804C123.829 59.5804 123.829 59.5804 123.829 59.5804L92.8815 28.679Z" stroke="#009A08"/>
<path d="M92.8815 102.653L92.8814 102.653C90.9294 104.602 89.83 107.252 89.83 110.007L89.83 130.532C89.83 130.607 89.8875 130.666 89.9649 130.666L107.437 130.666C107.515 130.666 107.572 130.607 107.572 130.532L107.572 92.6195C107.572 89.056 110.462 86.1724 114.03 86.1724L151.695 86.1724C151.772 86.1724 151.83 86.1137 151.83 86.0386L151.83 68.7999C151.83 68.7327 151.773 68.6662 151.687 68.666C151.687 68.666 151.687 68.666 151.687 68.666L131.175 68.7051C128.414 68.7126 125.773 69.8105 123.829 71.7516C123.829 71.7516 123.829 71.7516 123.829 71.7517L92.8815 102.653Z" stroke="#009A08"/>
<path d="M3.88145 28.679L3.88141 28.679C1.92938 26.7304 0.829952 24.0797 0.829952 21.3251L0.829954 0.799849C0.829954 0.72468 0.887472 0.666014 0.964891 0.666014L18.4375 0.666016C18.5149 0.666016 18.5724 0.724682 18.5724 0.79985L18.5724 38.7125C18.5724 42.276 21.4622 45.1596 25.0298 45.1596L62.695 45.1596C62.7724 45.1596 62.83 45.2183 62.83 45.2935L62.83 62.5322C62.83 62.5993 62.7728 62.6659 62.6875 62.666C62.6874 62.666 62.6873 62.666 62.6872 62.666L42.1745 62.6269C39.4139 62.6194 36.7734 61.5216 34.8288 59.5804C34.8288 59.5804 34.8288 59.5804 34.8288 59.5804L3.88145 28.679Z" stroke="#FD8B0E"/>
<path d="M136.881 28.679L136.881 28.679C134.929 26.7304 133.83 24.0797 133.83 21.3251L133.83 0.799849C133.83 0.72468 133.887 0.666014 133.965 0.666014L151.437 0.666016C151.515 0.666016 151.572 0.724682 151.572 0.79985L151.572 38.7125C151.572 42.276 154.462 45.1596 158.03 45.1596L195.695 45.1596C195.772 45.1596 195.83 45.2183 195.83 45.2935L195.83 62.5322C195.83 62.5993 195.773 62.6659 195.687 62.666C195.687 62.666 195.687 62.666 195.687 62.666L175.175 62.6269C172.414 62.6194 169.773 61.5216 167.829 59.5804C167.829 59.5804 167.829 59.5804 167.829 59.5804L136.881 28.679Z" stroke="white"/>
<path d="M3.88146 102.653L3.88141 102.653C1.92938 104.602 0.829955 107.252 0.829956 110.007L0.829959 130.532C0.829959 130.607 0.887477 130.666 0.964897 130.666L18.4375 130.666C18.5149 130.666 18.5724 130.607 18.5724 130.532L18.5724 92.6195C18.5724 89.056 21.4622 86.1724 25.0298 86.1724L62.695 86.1724C62.7724 86.1724 62.83 86.1137 62.83 86.0386L62.83 68.7999C62.83 68.7327 62.7728 68.6662 62.6875 68.666C62.6874 68.666 62.6873 68.666 62.6872 68.666L42.1745 68.7051C39.4139 68.7126 36.7734 69.8105 34.8288 71.7516C34.8288 71.7516 34.8288 71.7516 34.8288 71.7517L3.88146 102.653Z" stroke="#FD8B0E"/>
<path d="M136.881 102.653L136.881 102.653C134.929 104.602 133.83 107.252 133.83 110.007L133.83 130.532C133.83 130.607 133.887 130.666 133.965 130.666L151.437 130.666C151.515 130.666 151.572 130.607 151.572 130.532L151.572 92.6195C151.572 89.056 154.462 86.1724 158.03 86.1724L195.695 86.1724C195.772 86.1724 195.83 86.1137 195.83 86.0386L195.83 68.7999C195.83 68.7327 195.773 68.6662 195.687 68.666C195.687 68.666 195.687 68.666 195.687 68.666L175.175 68.7051C172.414 68.7126 169.773 69.8105 167.829 71.7516C167.829 71.7516 167.829 71.7516 167.829 71.7517L136.881 102.653Z" stroke="white"/>
</svg>
