<svg width="241" height="132" viewBox="0 0 241 132" fill="none" xmlns="http://www.w3.org/2000/svg">
<path d="M47.8849 28.679L47.8848 28.679C45.9328 26.7304 44.8334 24.0797 44.8334 21.3251L44.8334 0.799849C44.8334 0.72468 44.8909 0.666014 44.9683 0.666014L62.4409 0.666016C62.5183 0.666016 62.5758 0.724682 62.5758 0.79985L62.5758 38.7125C62.5758 42.276 65.4657 45.1596 69.0333 45.1596L106.698 45.1596C106.776 45.1596 106.833 45.2183 106.833 45.2935L106.833 62.5322C106.833 62.5993 106.776 62.6659 106.691 62.666C106.691 62.666 106.691 62.666 106.691 62.666L86.178 62.6269C83.4173 62.6194 80.7768 61.5216 78.8322 59.5804C78.8322 59.5804 78.8322 59.5804 78.8322 59.5804L47.8849 28.679Z" stroke="white"/>
<path d="M180.885 28.679L180.885 28.679C178.933 26.7304 177.833 24.0797 177.833 21.3251L177.833 0.799849C177.833 0.72468 177.891 0.666014 177.968 0.666014L195.441 0.666016C195.518 0.666016 195.576 0.724682 195.576 0.79985L195.576 38.7125C195.576 42.276 198.466 45.1596 202.033 45.1596L239.698 45.1596C239.776 45.1596 239.833 45.2183 239.833 45.2935L239.833 62.5322C239.833 62.5993 239.776 62.6659 239.691 62.666C239.691 62.666 239.691 62.666 239.691 62.666L219.178 62.6269C216.417 62.6194 213.777 61.5216 211.832 59.5804C211.832 59.5804 211.832 59.5804 211.832 59.5804L180.885 28.679Z" stroke="#134591"/>
<path d="M47.8849 102.653L47.8848 102.653C45.9328 104.602 44.8334 107.252 44.8334 110.007L44.8334 130.532C44.8334 130.607 44.8909 130.666 44.9683 130.666L62.4409 130.666C62.5183 130.666 62.5758 130.607 62.5758 130.532L62.5758 92.6195C62.5758 89.056 65.4657 86.1724 69.0333 86.1724L106.698 86.1724C106.776 86.1724 106.833 86.1137 106.833 86.0386L106.833 68.7999C106.833 68.7327 106.776 68.6662 106.691 68.666C106.691 68.666 106.691 68.666 106.691 68.666L86.178 68.7051C83.4173 68.7126 80.7768 69.8105 78.8322 71.7516C78.8322 71.7516 78.8322 71.7516 78.8322 71.7517L47.8849 102.653Z" stroke="white"/>
<path d="M180.885 102.653L180.885 102.653C178.933 104.602 177.833 107.252 177.833 110.007L177.833 130.532C177.833 130.607 177.891 130.666 177.968 130.666L195.441 130.666C195.518 130.666 195.576 130.607 195.576 130.532L195.576 92.6195C195.576 89.056 198.466 86.1724 202.033 86.1724L239.698 86.1724C239.776 86.1724 239.833 86.1137 239.833 86.0386L239.833 68.7999C239.833 68.7327 239.776 68.6662 239.691 68.666C239.691 68.666 239.691 68.666 239.691 68.666L219.178 68.7051C216.417 68.7126 213.777 69.8105 211.832 71.7516C211.832 71.7516 211.832 71.7516 211.832 71.7517L180.885 102.653Z" stroke="#134591"/>
<path d="M92.8849 28.679L92.8848 28.679C90.9328 26.7304 89.8334 24.0797 89.8334 21.3251L89.8334 0.799849C89.8334 0.72468 89.8909 0.666014 89.9683 0.666014L107.441 0.666016C107.518 0.666016 107.576 0.724682 107.576 0.79985L107.576 38.7125C107.576 42.276 110.466 45.1596 114.033 45.1596L151.698 45.1596C151.776 45.1596 151.833 45.2183 151.833 45.2935L151.833 62.5322C151.833 62.5993 151.776 62.6659 151.691 62.666C151.691 62.666 151.691 62.666 151.691 62.666L131.178 62.6269C128.417 62.6194 125.777 61.5216 123.832 59.5804C123.832 59.5804 123.832 59.5804 123.832 59.5804L92.8849 28.679Z" stroke="#134591"/>
<path d="M92.8849 102.653L92.8848 102.653C90.9328 104.602 89.8334 107.252 89.8334 110.007L89.8334 130.532C89.8334 130.607 89.8909 130.666 89.9683 130.666L107.441 130.666C107.518 130.666 107.576 130.607 107.576 130.532L107.576 92.6195C107.576 89.056 110.466 86.1724 114.033 86.1724L151.698 86.1724C151.776 86.1724 151.833 86.1137 151.833 86.0386L151.833 68.7999C151.833 68.7327 151.776 68.6662 151.691 68.666C151.691 68.666 151.691 68.666 151.691 68.666L131.178 68.7051C128.417 68.7126 125.777 69.8105 123.832 71.7516C123.832 71.7516 123.832 71.7516 123.832 71.7517L92.8849 102.653Z" stroke="#134591"/>
<path d="M3.88487 28.679L3.88483 28.679C1.9328 26.7304 0.83337 24.0797 0.83337 21.3251L0.833372 0.799849C0.833372 0.72468 0.89089 0.666014 0.968309 0.666014L18.4409 0.666016C18.5183 0.666016 18.5758 0.724682 18.5758 0.79985L18.5758 38.7125C18.5758 42.276 21.4657 45.1596 25.0333 45.1596L62.6984 45.1596C62.7759 45.1596 62.8334 45.2183 62.8334 45.2935L62.8334 62.5322C62.8334 62.5993 62.7762 62.6659 62.6909 62.666C62.6908 62.666 62.6907 62.666 62.6906 62.666L42.178 62.6269C39.4173 62.6194 36.7768 61.5216 34.8322 59.5804C34.8322 59.5804 34.8322 59.5804 34.8322 59.5804L3.88487 28.679Z" stroke="#FD8B0E"/>
<path d="M136.885 28.679L136.885 28.679C134.933 26.7304 133.833 24.0797 133.833 21.3251L133.833 0.799849C133.833 0.72468 133.891 0.666014 133.968 0.666014L151.441 0.666016C151.518 0.666016 151.576 0.724682 151.576 0.79985L151.576 38.7125C151.576 42.276 154.466 45.1596 158.033 45.1596L195.698 45.1596C195.776 45.1596 195.833 45.2183 195.833 45.2935L195.833 62.5322C195.833 62.5993 195.776 62.6659 195.691 62.666C195.691 62.666 195.691 62.666 195.691 62.666L175.178 62.6269C172.417 62.6194 169.777 61.5216 167.832 59.5804C167.832 59.5804 167.832 59.5804 167.832 59.5804L136.885 28.679Z" stroke="#134591"/>
<path d="M3.88487 102.653L3.88483 102.653C1.9328 104.602 0.833373 107.252 0.833374 110.007L0.833377 130.532C0.833377 130.607 0.890895 130.666 0.968315 130.666L18.4409 130.666C18.5183 130.666 18.5758 130.607 18.5758 130.532L18.5758 92.6195C18.5758 89.056 21.4657 86.1724 25.0333 86.1724L62.6984 86.1724C62.7759 86.1724 62.8334 86.1137 62.8334 86.0386L62.8334 68.7999C62.8334 68.7327 62.7762 68.6662 62.6909 68.666C62.6908 68.666 62.6907 68.666 62.6906 68.666L42.178 68.7051C39.4173 68.7126 36.7768 69.8105 34.8322 71.7516C34.8322 71.7516 34.8322 71.7516 34.8322 71.7517L3.88487 102.653Z" stroke="#FD8B0E"/>
<path d="M136.885 102.653L136.885 102.653C134.933 104.602 133.833 107.252 133.833 110.007L133.833 130.532C133.833 130.607 133.891 130.666 133.968 130.666L151.441 130.666C151.518 130.666 151.576 130.607 151.576 130.532L151.576 92.6195C151.576 89.056 154.466 86.1724 158.033 86.1724L195.698 86.1724C195.776 86.1724 195.833 86.1137 195.833 86.0386L195.833 68.7999C195.833 68.7327 195.776 68.6662 195.691 68.666C195.691 68.666 195.691 68.666 195.691 68.666L175.178 68.7051C172.417 68.7126 169.777 69.8105 167.832 71.7516C167.832 71.7516 167.832 71.7516 167.832 71.7517L136.885 102.653Z" stroke="#134591"/>
</svg>
