<svg width="490" height="412" viewBox="0 0 490 412" fill="none" xmlns="http://www.w3.org/2000/svg">
<path d="M154.522 88.7463L154.522 88.7463C156.233 87.0383 157.197 84.7149 157.197 82.3005L157.197 64.2876C157.197 64.2278 157.152 64.1813 157.09 64.1813L141.756 64.1813C141.694 64.1813 141.649 64.2278 141.649 64.2876L141.649 97.5596C141.649 100.693 139.108 103.229 135.97 103.229L102.916 103.229C102.854 103.229 102.808 103.275 102.808 103.335L102.808 118.464C102.808 118.516 102.853 118.57 102.922 118.57C102.922 118.57 102.922 118.57 102.922 118.57L120.924 118.536C123.344 118.529 125.659 117.567 127.363 115.865L154.522 88.7463Z" stroke="#081224" stroke-width="0.9"/>
<path d="M152.029 129.616L152.029 129.616C150.321 127.905 147.998 126.941 145.583 126.941L127.57 126.941C127.511 126.941 127.464 126.987 127.464 127.049L127.464 142.382C127.464 142.444 127.511 142.49 127.57 142.49L160.842 142.49C163.976 142.49 166.512 145.031 166.512 148.168L166.512 181.223C166.512 181.285 166.558 181.33 166.618 181.33L181.746 181.33C181.799 181.33 181.853 181.285 181.853 181.216C181.853 181.216 181.853 181.216 181.853 181.216L181.818 163.214C181.812 160.794 180.85 158.48 179.148 156.775C179.148 156.775 179.148 156.775 179.148 156.775L152.029 129.616Z" stroke="#009A08" stroke-width="0.9"/>
<path d="M420.742 89.404L420.742 89.404C419.034 87.693 416.711 86.7293 414.296 86.7293L396.283 86.7293C396.224 86.7293 396.177 86.7748 396.177 86.8366L396.177 102.17C396.177 102.232 396.224 102.278 396.283 102.278L429.555 102.278C432.689 102.278 435.224 104.819 435.224 107.956L435.224 141.011C435.224 141.072 435.271 141.118 435.331 141.118L450.459 141.118C450.512 141.118 450.565 141.073 450.566 141.004C450.566 141.004 450.566 141.004 450.566 141.004L450.531 123.002C450.525 120.582 449.562 118.268 447.861 116.563C447.861 116.563 447.861 116.563 447.861 116.563L420.742 89.404Z" stroke="#009A08" stroke-width="0.9"/>
<path d="M196.139 242.162L196.139 242.162C197.847 243.873 200.17 244.837 202.585 244.837L220.598 244.837C220.657 244.837 220.704 244.792 220.704 244.73L220.704 229.396C220.704 229.334 220.657 229.289 220.598 229.289L187.326 229.289C184.192 229.289 181.656 226.748 181.656 223.611L181.656 190.556C181.656 190.494 181.61 190.449 181.55 190.449L166.421 190.449C166.369 190.449 166.315 190.494 166.315 190.562C166.315 190.562 166.315 190.563 166.315 190.563L166.35 208.564C166.356 210.984 167.318 213.299 169.02 215.003C169.02 215.003 169.02 215.003 169.02 215.003L196.139 242.162Z" stroke="#081224" stroke-width="0.9"/>
<path d="M232.497 220.272L232.497 220.272C230.786 221.98 229.823 224.304 229.823 226.718L229.823 244.731C229.823 244.791 229.868 244.837 229.93 244.837L245.264 244.837C245.325 244.837 245.371 244.791 245.371 244.731L245.371 211.459C245.371 208.325 247.912 205.79 251.049 205.79L284.104 205.79C284.166 205.79 284.211 205.743 284.211 205.683L284.211 190.555C284.211 190.502 284.166 190.449 284.097 190.449C284.097 190.449 284.097 190.449 284.097 190.449L266.095 190.483C263.675 190.489 261.361 191.452 259.657 193.153L232.497 220.272Z" stroke="#081224" stroke-width="0.9"/>
<path d="M30.2736 203.311L30.2736 203.311C31.9816 205.022 34.305 205.986 36.7194 205.986L54.7323 205.986C54.7921 205.986 54.8386 205.94 54.8386 205.879L54.8386 190.545C54.8386 190.483 54.7921 190.437 54.7323 190.437L21.4603 190.437C18.3268 190.437 15.7911 187.896 15.7911 184.759L15.7911 151.704C15.7911 151.643 15.7447 151.597 15.6849 151.597L0.556251 151.597C0.503712 151.597 0.450146 151.642 0.45 151.711C0.45 151.711 0.45 151.711 0.45 151.711L0.484336 169.713C0.490882 172.133 1.45319 174.447 3.15463 176.152C3.15464 176.152 3.15465 176.152 3.15467 176.152L30.2736 203.311Z" stroke="#FD8B0E" stroke-width="0.9"/>
<path d="M232.497 117.166L232.497 117.166C230.786 118.874 229.823 121.198 229.823 123.612L229.823 141.625C229.823 141.685 229.868 141.731 229.93 141.731L245.264 141.731C245.325 141.731 245.371 141.685 245.371 141.625L245.371 108.353C245.371 105.22 247.912 102.684 251.049 102.684L284.104 102.684C284.166 102.684 284.211 102.637 284.211 102.578L284.211 87.4491C284.211 87.3965 284.166 87.343 284.097 87.3428C284.097 87.3428 284.097 87.3428 284.097 87.3428L266.095 87.3772C263.675 87.3837 261.361 88.346 259.657 90.0475C259.657 90.0475 259.657 90.0475 259.657 90.0475L232.497 117.166Z" stroke="#081224" stroke-width="0.9"/>
<path d="M296.004 53.6592L296.004 53.6593C294.293 55.3673 293.329 57.6907 293.329 60.1051L293.329 78.118C293.329 78.1778 293.375 78.2243 293.437 78.2243L308.77 78.2243C308.832 78.2243 308.878 78.1778 308.878 78.118L308.878 44.846C308.878 41.7124 311.419 39.1768 314.556 39.1768L347.611 39.1768C347.673 39.1768 347.718 39.1303 347.718 39.0706L347.718 23.9419C347.718 23.8894 347.673 23.8358 347.604 23.8357C347.604 23.8357 347.604 23.8357 347.604 23.8357L329.602 23.87C327.182 23.8766 324.868 24.8389 323.163 26.5403C323.163 26.5403 323.163 26.5403 323.163 26.5404L296.004 53.6592Z" stroke="#081224" stroke-width="0.9"/>
<path d="M437.836 220.266L437.836 220.266C436.125 221.974 435.161 224.297 435.161 226.712L435.161 244.725C435.161 244.784 435.207 244.831 435.269 244.831L450.603 244.831C450.664 244.831 450.71 244.784 450.71 244.725L450.71 211.453C450.71 208.319 453.251 205.783 456.388 205.783L489.443 205.783C489.505 205.783 489.55 205.737 489.55 205.677L489.55 190.549C489.55 190.496 489.505 190.442 489.436 190.442C489.436 190.442 489.436 190.442 489.436 190.442L471.434 190.477C469.014 190.483 466.7 191.446 464.995 193.147C464.995 193.147 464.995 193.147 464.995 193.147L437.836 220.266Z" stroke="#081224" stroke-width="0.9"/>
<path d="M362.752 201.817L362.752 201.817C364.46 203.528 366.783 204.491 369.198 204.491L387.211 204.491C387.271 204.491 387.317 204.446 387.317 204.384L387.317 189.05C387.317 188.989 387.271 188.943 387.211 188.943L353.939 188.943C350.805 188.943 348.27 186.402 348.27 183.265L348.27 150.21C348.27 150.148 348.223 150.103 348.163 150.103L333.035 150.103C332.982 150.103 332.929 150.148 332.929 150.217C332.929 150.217 332.929 150.217 332.929 150.217L332.963 168.219C332.969 170.639 333.932 172.953 335.633 174.657C335.633 174.657 335.633 174.658 335.633 174.658L362.752 201.817Z" stroke="#FD8B0E" stroke-width="0.9"/>
<path d="M196.139 139.057L196.139 139.057C197.847 140.768 200.17 141.731 202.585 141.731L220.598 141.731C220.657 141.731 220.704 141.686 220.704 141.624L220.704 126.29C220.704 126.229 220.657 126.183 220.598 126.183L187.326 126.183C184.192 126.183 181.656 123.642 181.656 120.505L181.656 87.45C181.656 87.3883 181.61 87.3428 181.55 87.3428L166.421 87.3428C166.369 87.3428 166.315 87.3878 166.315 87.4566C166.315 87.4567 166.315 87.4568 166.315 87.4569L166.35 105.459C166.356 107.879 167.318 110.193 169.02 111.897C169.02 111.897 169.02 111.897 169.02 111.897L196.139 139.057Z" stroke="#FD8B0E" stroke-width="0.9"/>
<path d="M259.647 305.67L259.647 305.67C261.355 307.381 263.678 308.344 266.092 308.344L284.105 308.344C284.165 308.344 284.212 308.299 284.212 308.237L284.212 292.903C284.212 292.841 284.165 292.796 284.105 292.796L250.833 292.796C247.7 292.796 245.164 290.255 245.164 287.118L245.164 254.063C245.164 254.001 245.118 253.956 245.058 253.956L229.929 253.956C229.877 253.956 229.823 254.001 229.823 254.069C229.823 254.07 229.823 254.07 229.823 254.07L229.857 272.072C229.864 274.491 230.826 276.806 232.528 278.51C232.528 278.51 232.528 278.51 232.528 278.51L259.647 305.67Z" stroke="#FD8B0E" stroke-width="0.9"/>
<path d="M132.632 305.67L132.632 305.67C134.34 307.381 136.663 308.344 139.078 308.344L157.091 308.344C157.15 308.344 157.197 308.299 157.197 308.237L157.197 292.903C157.197 292.841 157.15 292.796 157.091 292.796L123.819 292.796C120.685 292.796 118.15 290.255 118.15 287.118L118.15 254.063C118.15 254.001 118.103 253.956 118.043 253.956L102.915 253.956C102.862 253.956 102.809 254.001 102.808 254.069C102.808 254.07 102.808 254.07 102.808 254.07L102.843 272.072C102.849 274.491 103.812 276.806 105.513 278.51C105.513 278.51 105.513 278.51 105.513 278.51L132.632 305.67Z" stroke="#FD8B0E" stroke-width="0.9"/>
<path d="M317.894 193.123L317.894 193.123C316.186 191.412 313.863 190.449 311.449 190.449L293.436 190.449C293.376 190.449 293.329 190.494 293.329 190.556L293.329 205.89C293.329 205.951 293.376 205.997 293.436 205.997L326.708 205.997C329.841 205.997 332.377 208.538 332.377 211.675L332.377 244.73C332.377 244.792 332.423 244.837 332.483 244.837L347.612 244.837C347.664 244.837 347.718 244.792 347.718 244.723C347.718 244.723 347.718 244.723 347.718 244.723L347.684 226.721C347.677 224.301 346.715 221.987 345.013 220.283C345.013 220.283 345.013 220.282 345.013 220.282L317.894 193.123Z" stroke="#009A08" stroke-width="0.9"/>
<path d="M317.894 295.482L317.894 295.482C316.186 293.771 313.863 292.807 311.449 292.807L293.436 292.807C293.376 292.807 293.329 292.852 293.329 292.914L293.329 308.248C293.329 308.31 293.376 308.355 293.436 308.355L326.708 308.355C329.841 308.355 332.377 310.896 332.377 314.034L332.377 347.088C332.377 347.15 332.423 347.196 332.483 347.196L347.612 347.196C347.664 347.196 347.718 347.151 347.718 347.082C347.718 347.082 347.718 347.082 347.718 347.082L347.684 329.08C347.677 326.66 346.715 324.345 345.013 322.641C345.013 322.641 345.013 322.641 345.013 322.641L317.894 295.482Z" stroke="#009A08" stroke-width="0.9"/>
<path d="M344.914 381.242L344.914 381.242C346.625 379.534 347.589 377.211 347.589 374.796V356.783C347.589 356.724 347.543 356.677 347.481 356.677H332.148C332.086 356.677 332.04 356.724 332.04 356.783V390.055C332.04 393.189 329.499 395.725 326.362 395.725H293.307C293.245 395.725 293.2 395.771 293.2 395.831V410.959C293.2 411.012 293.245 411.066 293.314 411.066C293.314 411.066 293.314 411.066 293.314 411.066L311.316 411.031C313.736 411.025 316.05 410.062 317.755 408.361C317.755 408.361 317.755 408.361 317.755 408.361L344.914 381.242Z" stroke="#081224" stroke-width="0.9"/>
<path d="M88.5223 193.123L88.5223 193.123C86.8143 191.412 84.4909 190.449 82.0765 190.449L64.0636 190.449C64.0038 190.449 63.9573 190.494 63.9573 190.556L63.9573 205.89C63.9573 205.951 64.0038 205.997 64.0636 205.997L97.3356 205.997C100.469 205.997 103.005 208.538 103.005 211.675L103.005 244.73C103.005 244.792 103.051 244.837 103.111 244.837L118.24 244.837C118.292 244.837 118.346 244.792 118.346 244.723C118.346 244.723 118.346 244.723 118.346 244.723L118.312 226.721C118.305 224.301 117.343 221.987 115.641 220.283C115.641 220.283 115.641 220.282 115.641 220.282L88.5223 193.123Z" stroke="#009A08" stroke-width="0.9"/>
<path d="M447.402 278.521L447.402 278.521C449.113 276.813 450.077 274.489 450.077 272.075L450.077 254.062C450.077 254.002 450.031 253.956 449.97 253.956L434.636 253.956C434.574 253.956 434.529 254.002 434.529 254.062L434.529 287.334C434.529 290.467 431.987 293.003 428.85 293.003L395.796 293.003C395.734 293.003 395.688 293.05 395.688 293.109L395.688 308.238C395.688 308.29 395.733 308.344 395.802 308.344C395.802 308.344 395.802 308.344 395.802 308.344L413.804 308.31C416.224 308.303 418.538 307.341 420.243 305.64C420.243 305.64 420.243 305.64 420.243 305.64L447.402 278.521Z" stroke="#081224" stroke-width="0.9"/>
<path d="M317.894 90.0175L317.894 90.0175C316.186 88.3065 313.863 87.3428 311.449 87.3428L293.436 87.3428C293.376 87.3428 293.329 87.3882 293.329 87.45L293.329 102.784C293.329 102.846 293.376 102.891 293.436 102.891L326.708 102.891C329.841 102.891 332.377 105.432 332.377 108.569L332.377 141.624C332.377 141.686 332.423 141.731 332.483 141.731L347.612 141.731C347.664 141.731 347.718 141.686 347.718 141.618C347.718 141.617 347.718 141.617 347.718 141.617L347.684 123.616C347.677 121.196 346.715 118.881 345.013 117.177C345.013 117.177 345.013 117.177 345.013 117.177L317.894 90.0175Z" stroke="#009A08" stroke-width="0.9"/>
<path d="M362.005 305.67L362.005 305.67C363.713 307.381 366.036 308.344 368.451 308.344L386.464 308.344C386.524 308.344 386.57 308.299 386.57 308.237L386.57 292.903C386.57 292.841 386.524 292.796 386.464 292.796L353.192 292.796C350.058 292.796 347.523 290.255 347.523 287.118L347.523 254.063C347.523 254.001 347.476 253.956 347.416 253.956L332.288 253.956C332.235 253.956 332.182 254.001 332.181 254.069C332.181 254.07 332.181 254.07 332.181 254.07L332.216 272.072C332.222 274.491 333.185 276.806 334.886 278.51C334.886 278.51 334.886 278.51 334.886 278.51L362.005 305.67Z" stroke="#FD8B0E" stroke-width="0.9"/>
<path d="M218.029 278.521L218.029 278.521C219.74 276.813 220.704 274.489 220.704 272.075L220.704 254.062C220.704 254.002 220.658 253.956 220.597 253.956L205.263 253.956C205.201 253.956 205.156 254.002 205.156 254.062L205.156 287.334C205.156 290.467 202.614 293.003 199.477 293.003L166.422 293.003C166.361 293.003 166.315 293.05 166.315 293.109L166.315 308.238C166.315 308.29 166.36 308.344 166.429 308.344C166.429 308.344 166.429 308.344 166.429 308.344L184.431 308.31C186.851 308.303 189.165 307.341 190.87 305.64C190.87 305.64 190.87 305.64 190.87 305.64L218.029 278.521Z" stroke="#081224" stroke-width="0.9"/>
<path d="M447.891 174.552L447.891 174.552C449.602 172.844 450.566 170.52 450.566 168.106L450.566 150.093C450.566 150.033 450.521 149.987 450.459 149.987L435.125 149.987C435.063 149.987 435.018 150.033 435.018 150.093L435.018 183.365C435.018 186.499 432.477 189.034 429.34 189.034L396.285 189.034C396.223 189.034 396.178 189.081 396.178 189.141L396.178 204.269C396.178 204.322 396.223 204.375 396.291 204.375C396.291 204.375 396.292 204.375 396.292 204.375L414.293 204.341C416.713 204.335 419.028 203.372 420.732 201.671C420.732 201.671 420.732 201.671 420.732 201.671L447.891 174.552Z" stroke="#081224" stroke-width="0.9"/>
<path d="M41.9758 88.7463L41.9757 88.7463C40.2647 87.0383 39.3011 84.7149 39.3011 82.3005L39.3011 64.2876C39.3011 64.2278 39.3465 64.1813 39.4083 64.1813L54.7422 64.1813C54.8039 64.1813 54.8494 64.2278 54.8494 64.2876L54.8494 97.5596C54.8494 100.693 57.3905 103.229 60.5276 103.229L93.5824 103.229C93.6442 103.229 93.6896 103.275 93.6896 103.335L93.6896 118.464C93.6896 118.516 93.6447 118.57 93.5758 118.57C93.5757 118.57 93.5756 118.57 93.5756 118.57L75.5738 118.536C73.1539 118.529 70.8394 117.567 69.135 115.865L41.9758 88.7463Z" stroke="#FD8B0E" stroke-width="0.9"/>
<path d="M52.1639 30.4978L52.1639 30.4978C53.8749 32.2059 54.8386 34.5292 54.8386 36.9437L54.8386 54.9566C54.8386 55.0163 54.7931 55.0628 54.7314 55.0628L39.3975 55.0628C39.3357 55.0628 39.2903 55.0163 39.2903 54.9566L39.2903 21.6845C39.2903 18.551 36.7491 16.0154 33.612 16.0154L0.557222 16.0154C0.495442 16.0154 0.45 15.9689 0.45 15.9091L0.45 0.780494C0.45 0.727955 0.494972 0.674389 0.563816 0.674243C0.56391 0.674243 0.564003 0.674243 0.564097 0.674243L18.5659 0.708578C20.9857 0.715124 23.3002 1.67745 25.0046 3.37891L52.1639 30.4978Z" stroke="#009A08" stroke-width="0.9"/>
</svg>
