<svg width="1440" height="473" viewBox="0 0 1440 473" fill="none" xmlns="http://www.w3.org/2000/svg">
<path d="M1327.81 120.462L1327.49 120.781L1327.81 120.462C1325.45 118.11 1324.12 114.91 1324.12 111.585L1324.12 87.0956C1324.12 86.9247 1324.26 86.7893 1324.43 86.7893L1345.28 86.7893C1345.45 86.7893 1345.59 86.9247 1345.59 87.0956L1345.59 132.33C1345.59 136.5 1348.97 139.875 1353.14 139.875L1398.08 139.875C1398.26 139.875 1398.39 140.011 1398.39 140.181L1398.39 160.749C1398.39 160.913 1398.25 161.055 1398.07 161.055C1398.07 161.055 1398.07 161.055 1398.07 161.055L1373.6 161.009C1370.27 161 1367.08 159.674 1364.73 157.331C1364.73 157.331 1364.73 157.331 1364.73 157.331L1327.81 120.462Z" fill="white" stroke="#081224" stroke-width="0.9"/>
<path d="M1331.2 175.797L1330.88 175.479L1331.2 175.797C1333.55 173.44 1336.75 172.113 1340.08 172.113L1364.56 172.113C1364.73 172.113 1364.87 172.248 1364.87 172.421L1364.87 193.267C1364.87 193.44 1364.73 193.575 1364.56 193.575L1319.33 193.575C1315.16 193.575 1311.78 196.957 1311.78 201.133L1311.78 246.072C1311.78 246.245 1311.65 246.379 1311.48 246.379L1290.91 246.379C1290.75 246.379 1290.6 246.243 1290.6 246.063C1290.6 246.062 1290.6 246.062 1290.6 246.062L1290.65 221.588C1290.66 218.255 1291.99 215.068 1294.33 212.72C1294.33 212.72 1294.33 212.72 1294.33 212.72L1331.2 175.797Z" fill="white" stroke="#009A08" stroke-width="0.9"/>
<path d="M134.863 283.969L134.545 283.651L134.863 283.969C137.216 281.612 140.416 280.285 143.741 280.285L168.23 280.285C168.401 280.285 168.536 280.42 168.536 280.593L168.536 301.439C168.536 301.612 168.401 301.747 168.23 301.747L122.996 301.747C118.826 301.747 115.451 305.129 115.451 309.305L115.451 354.244C115.451 354.417 115.315 354.551 115.144 354.551L94.5765 354.551C94.4129 354.551 94.2705 354.415 94.2703 354.235C94.2703 354.235 94.2703 354.234 94.2703 354.234L94.317 329.76C94.326 326.428 95.6512 323.24 97.9946 320.893C97.9946 320.893 97.9946 320.893 97.9947 320.893L134.863 283.969Z" fill="white" stroke="#009A08" stroke-width="0.9"/>
<path d="M1271.46 329.035L1271.78 329.353L1271.46 329.035C1269.1 331.391 1265.9 332.719 1262.58 332.719L1238.09 332.719C1237.92 332.719 1237.78 332.584 1237.78 332.411L1237.78 311.564C1237.78 311.391 1237.92 311.257 1238.09 311.257L1283.32 311.257C1287.49 311.257 1290.87 307.875 1290.87 303.699L1290.87 258.76C1290.87 258.587 1291.01 258.452 1291.18 258.452L1311.74 258.452C1311.91 258.452 1312.05 258.589 1312.05 258.769C1312.05 258.769 1312.05 258.769 1312.05 258.769L1312 283.244C1311.99 286.576 1310.67 289.764 1308.33 292.111C1308.33 292.111 1308.33 292.111 1308.33 292.111L1271.46 329.035Z" fill="white" stroke="#081224" stroke-width="0.9"/>
<path d="M1222.03 299.046L1222.35 298.727L1222.03 299.046C1224.38 301.398 1225.71 304.598 1225.71 307.923L1225.71 332.412C1225.71 332.583 1225.58 332.719 1225.4 332.719L1204.56 332.718C1204.38 332.718 1204.25 332.583 1204.25 332.412L1204.25 287.178C1204.25 283.008 1200.87 279.633 1196.69 279.633L1151.75 279.633C1151.58 279.633 1151.45 279.497 1151.45 279.326L1151.45 258.759C1151.45 258.595 1151.58 258.453 1151.76 258.452C1151.76 258.452 1151.76 258.452 1151.76 258.452L1176.24 258.499C1179.57 258.508 1182.76 259.833 1185.1 262.177C1185.1 262.177 1185.1 262.177 1185.1 262.177L1222.03 299.046Z" fill="white" stroke="#081224" stroke-width="0.9"/>
<path d="M1222.03 158.871L1222.35 158.553L1222.03 158.871C1224.38 161.223 1225.71 164.423 1225.71 167.749L1225.71 192.238C1225.71 192.409 1225.58 192.544 1225.4 192.544L1204.56 192.544C1204.38 192.544 1204.25 192.409 1204.25 192.238L1204.25 147.004C1204.25 142.833 1200.87 139.458 1196.69 139.458L1151.75 139.458C1151.58 139.458 1151.45 139.323 1151.45 139.152L1151.45 118.584C1151.45 118.421 1151.58 118.278 1151.76 118.278C1151.76 118.278 1151.76 118.278 1151.76 118.278L1176.24 118.325C1179.57 118.334 1182.76 119.659 1185.1 122.002C1185.1 122.002 1185.1 122.002 1185.1 122.002L1222.03 158.871Z" fill="white" stroke="#081224" stroke-width="0.9"/>
<path d="M337.372 93.0432L337.69 92.7247L337.372 93.0432C339.729 95.3956 341.056 98.5954 341.056 101.921L341.056 126.41C341.056 126.581 340.921 126.716 340.748 126.716L319.902 126.716C319.729 126.716 319.594 126.581 319.594 126.41L319.594 81.1758C319.594 77.0053 316.212 73.6303 312.036 73.6303L267.097 73.6303C266.924 73.6303 266.79 73.4949 266.79 73.324L266.79 52.7563C266.79 52.5927 266.926 52.4502 267.106 52.4501C267.107 52.4501 267.107 52.4501 267.107 52.4501L291.581 52.4967C294.913 52.5058 298.101 53.831 300.448 56.1744C300.448 56.1744 300.448 56.1744 300.448 56.1744L337.372 93.0432Z" fill="white" stroke="#081224" stroke-width="0.9"/>
<path d="M251.372 181.043L251.69 180.725L251.372 181.043C253.729 183.396 255.056 186.595 255.056 189.921L255.056 214.41C255.056 214.581 254.921 214.716 254.748 214.716L233.902 214.716C233.729 214.716 233.594 214.581 233.594 214.41L233.594 169.176C233.594 165.005 230.212 161.63 226.036 161.63L181.097 161.63C180.924 161.63 180.79 161.495 180.79 161.324L180.79 140.756C180.79 140.593 180.926 140.45 181.106 140.45C181.107 140.45 181.107 140.45 181.107 140.45L205.581 140.497C208.913 140.506 212.101 141.831 214.448 144.174C214.448 144.174 214.448 144.174 214.448 144.174L251.372 181.043Z" fill="white" stroke="#081224" stroke-width="0.9"/>
<path d="M1135.65 72.567L1136.01 72.2132L1135.65 72.5671C1138 74.9101 1139.32 78.0972 1139.32 81.4094L1139.32 105.898C1139.32 106.042 1139.21 106.155 1139.06 106.155L1118.22 106.155C1118.07 106.155 1117.96 106.042 1117.96 105.898L1117.96 60.6643C1117.96 56.4661 1114.56 53.0687 1110.35 53.0687L1065.41 53.0687C1065.27 53.0687 1065.16 52.9557 1065.16 52.8125L1065.16 32.2448C1065.16 32.1096 1065.27 31.9887 1065.42 31.9885C1065.42 31.9885 1065.42 31.9885 1065.42 31.9885L1089.9 32.0352C1093.22 32.0442 1096.39 33.3642 1098.73 35.6982C1098.73 35.6982 1098.73 35.6982 1098.73 35.6983L1135.65 72.567Z" stroke="#081224"/>
<path d="M664.997 193.078L665.35 192.725L664.997 193.079C667.344 195.422 668.666 198.609 668.666 201.921L668.666 226.41C668.666 226.553 668.554 226.666 668.409 226.666L647.562 226.666C647.416 226.666 647.304 226.553 647.304 226.41L647.304 181.176C647.304 176.978 643.9 173.58 639.696 173.58L594.758 173.58C594.612 173.58 594.5 173.467 594.5 173.324L594.5 152.756C594.5 152.621 594.613 152.5 594.767 152.5C594.767 152.5 594.767 152.5 594.767 152.5L619.241 152.547C622.56 152.556 625.735 153.876 628.073 156.21C628.073 156.21 628.073 156.21 628.073 156.21L664.997 193.078Z" stroke="#081224"/>
<path d="M804.032 332.043L804.35 331.725L804.032 332.043C806.389 334.396 807.716 337.595 807.716 340.921L807.716 365.41C807.716 365.581 807.582 365.716 807.409 365.716L786.562 365.716C786.389 365.716 786.254 365.581 786.254 365.41L786.254 320.176C786.254 316.005 782.872 312.63 778.696 312.63L733.758 312.63C733.584 312.63 733.45 312.495 733.45 312.324L733.45 291.756C733.45 291.593 733.586 291.45 733.767 291.45C733.767 291.45 733.767 291.45 733.767 291.45L758.241 291.497C761.574 291.506 764.761 292.831 767.109 295.174C767.109 295.174 767.109 295.174 767.109 295.174L804.032 332.043Z" fill="white" stroke="#081224" stroke-width="0.9"/>
<path d="M251.032 321.043L251.35 320.725L251.032 321.043C253.389 323.396 254.716 326.595 254.716 329.921L254.716 354.41C254.716 354.581 254.582 354.716 254.409 354.716L233.562 354.716C233.389 354.716 233.254 354.581 233.254 354.41L233.254 309.176C233.254 305.005 229.872 301.63 225.696 301.63L180.758 301.63C180.584 301.63 180.45 301.495 180.45 301.324L180.45 280.756C180.45 280.593 180.586 280.45 180.767 280.45C180.767 280.45 180.767 280.45 180.767 280.45L205.241 280.497C208.574 280.506 211.761 281.831 214.109 284.174C214.109 284.174 214.109 284.174 214.109 284.174L251.032 321.043Z" fill="white" stroke="#081224" stroke-width="0.9"/>
<path d="M1019.04 36.1338L1018.72 35.8158L1019.04 36.1337C1021.4 33.7772 1024.6 32.45 1027.92 32.45L1052.41 32.45C1052.58 32.45 1052.72 32.5845 1052.72 32.7575L1052.72 53.6043C1052.72 53.7774 1052.58 53.9118 1052.41 53.9118L1007.18 53.9118C1003.01 53.9118 999.63 57.2939 999.63 61.4697L999.63 106.409C999.63 106.582 999.495 106.716 999.324 106.716L978.756 106.716C978.593 106.716 978.45 106.58 978.45 106.4C978.45 106.399 978.45 106.399 978.45 106.399L978.497 81.9249C978.506 78.5925 979.831 75.4049 982.174 73.0575C982.174 73.0575 982.174 73.0574 982.174 73.0574L1019.04 36.1338Z" fill="white" stroke="#009A08" stroke-width="0.9"/>
<path d="M1044.95 274.184L1045.26 274.502L1044.95 274.184C1042.59 276.54 1039.39 277.868 1036.07 277.868L1011.58 277.868C1011.41 277.868 1011.27 277.733 1011.27 277.56L1011.27 256.713C1011.27 256.54 1011.41 256.406 1011.58 256.406L1056.81 256.406C1060.98 256.406 1064.36 253.024 1064.36 248.848L1064.36 203.909C1064.36 203.736 1064.49 203.602 1064.66 203.602L1085.23 203.602C1085.4 203.602 1085.54 203.738 1085.54 203.918C1085.54 203.918 1085.54 203.918 1085.54 203.919L1085.49 228.393C1085.48 231.725 1084.16 234.913 1081.81 237.26C1081.81 237.26 1081.81 237.26 1081.81 237.26L1044.95 274.184Z" fill="white" stroke="#FD8B0E" stroke-width="0.9"/>
<path d="M628.088 448.997L628.441 449.35L628.087 448.997C625.744 451.344 622.557 452.666 619.245 452.666L594.756 452.666C594.613 452.666 594.5 452.554 594.5 452.409L594.5 431.562C594.5 431.416 594.613 431.304 594.756 431.304L639.99 431.304C644.188 431.304 647.586 427.9 647.586 423.696L647.586 378.758C647.586 378.612 647.699 378.5 647.842 378.5L668.41 378.5C668.545 378.5 668.666 378.613 668.666 378.767C668.666 378.767 668.666 378.767 668.666 378.767L668.619 403.241C668.61 406.56 667.29 409.735 664.956 412.073C664.956 412.073 664.956 412.073 664.956 412.073L628.088 448.997Z" stroke="#FD8B0E"/>
<path d="M353.123 438.032L353.441 438.35L353.123 438.032C350.77 440.389 347.571 441.716 344.245 441.716L319.756 441.716C319.585 441.716 319.45 441.582 319.45 441.409L319.45 420.562C319.45 420.389 319.585 420.254 319.756 420.254L364.99 420.254C369.161 420.254 372.536 416.872 372.536 412.696L372.536 367.758C372.536 367.585 372.671 367.45 372.842 367.45L393.41 367.45C393.573 367.45 393.716 367.586 393.716 367.767C393.716 367.767 393.716 367.767 393.716 367.767L393.669 392.241C393.66 395.574 392.335 398.761 389.992 401.109C389.992 401.109 389.992 401.109 389.992 401.109L353.123 438.032Z" fill="white" stroke="#FD8B0E" stroke-width="0.9"/>
<path d="M694.881 56.2792L694.563 55.9613L694.881 56.2792C697.233 53.9227 700.433 52.5954 703.759 52.5954L728.248 52.5954C728.419 52.5954 728.554 52.7299 728.554 52.903L728.554 73.7497C728.554 73.9228 728.419 74.0573 728.248 74.0573L683.014 74.0573C678.843 74.0573 675.468 77.4393 675.468 81.6152L675.468 126.554C675.468 126.727 675.333 126.862 675.162 126.862L654.594 126.862C654.431 126.862 654.288 126.725 654.288 126.545C654.288 126.545 654.288 126.545 654.288 126.545L654.335 102.07C654.344 98.7379 655.669 95.5504 658.012 93.2029C658.012 93.2029 658.012 93.2029 658.012 93.2029L694.881 56.2792Z" fill="white" stroke="#FD8B0E" stroke-width="0.9"/>
<path d="M498.078 56.1691L497.725 55.8158L498.079 56.1691C500.422 53.8219 503.609 52.5 506.921 52.5L531.41 52.5C531.553 52.5 531.666 52.612 531.666 52.7575L531.666 73.6043C531.666 73.7498 531.553 73.8618 531.41 73.8618L486.176 73.8618C481.978 73.8618 478.58 77.2664 478.58 81.4697L478.58 126.409C478.58 126.554 478.467 126.666 478.324 126.666L457.756 126.666C457.621 126.666 457.5 126.553 457.5 126.4C457.5 126.399 457.5 126.399 457.5 126.399L457.547 101.925C457.556 98.6058 458.876 95.4309 461.21 93.0928C461.21 93.0928 461.21 93.0928 461.21 93.0928L498.078 56.1691Z" stroke="#FD8B0E"/>
<path d="M1271.46 188.86L1271.78 189.178L1271.46 188.86C1269.1 191.217 1265.9 192.544 1262.58 192.544L1238.09 192.544C1237.92 192.544 1237.78 192.409 1237.78 192.236L1237.78 171.39C1237.78 171.217 1237.92 171.082 1238.09 171.082L1283.32 171.082C1287.49 171.082 1290.87 167.7 1290.87 163.524L1290.87 118.585C1290.87 118.412 1291.01 118.278 1291.18 118.278L1311.74 118.278C1311.91 118.278 1312.05 118.414 1312.05 118.594C1312.05 118.595 1312.05 118.595 1312.05 118.595L1312 143.069C1311.99 146.401 1310.67 149.589 1308.33 151.936C1308.33 151.937 1308.33 151.937 1308.33 151.937L1271.46 188.86Z" fill="white" stroke="#FD8B0E" stroke-width="0.9"/>
<path d="M351.123 297.032L351.441 297.35L351.123 297.032C348.77 299.389 345.571 300.716 342.245 300.716L317.756 300.716C317.585 300.716 317.45 300.582 317.45 300.409L317.45 279.562C317.45 279.389 317.585 279.254 317.756 279.254L362.99 279.254C367.161 279.254 370.536 275.872 370.536 271.696L370.536 226.758C370.536 226.584 370.671 226.45 370.842 226.45L391.41 226.45C391.573 226.45 391.716 226.586 391.716 226.767C391.716 226.767 391.716 226.767 391.716 226.767L391.669 251.241C391.66 254.574 390.335 257.761 387.992 260.109C387.992 260.109 387.992 260.109 387.992 260.109L351.123 297.032Z" fill="white" stroke="#FD8B0E" stroke-width="0.9"/>
<path d="M300.801 211.032L301.119 211.35L300.801 211.032C298.448 213.389 295.248 214.716 291.923 214.716L267.434 214.716C267.263 214.716 267.128 214.582 267.128 214.409L267.128 193.562C267.128 193.389 267.263 193.254 267.434 193.254L312.668 193.254C316.838 193.254 320.214 189.872 320.214 185.696L320.214 140.758C320.214 140.584 320.349 140.45 320.52 140.45L341.088 140.45C341.251 140.45 341.394 140.586 341.394 140.767C341.394 140.767 341.394 140.767 341.394 140.767L341.347 165.241C341.338 168.574 340.013 171.761 337.669 174.109C337.669 174.109 337.669 174.109 337.669 174.109L300.801 211.032Z" fill="white" stroke="#FD8B0E" stroke-width="0.9"/>
<path d="M492.123 297.032L492.441 297.35L492.123 297.032C489.77 299.389 486.571 300.716 483.245 300.716L458.756 300.716C458.585 300.716 458.45 300.582 458.45 300.409L458.45 279.562C458.45 279.389 458.585 279.254 458.756 279.254L503.99 279.254C508.161 279.254 511.536 275.872 511.536 271.696L511.536 226.758C511.536 226.584 511.671 226.45 511.842 226.45L532.41 226.45C532.573 226.45 532.716 226.586 532.716 226.767C532.716 226.767 532.716 226.767 532.716 226.767L532.669 251.241C532.66 254.574 531.335 257.761 528.992 260.109C528.992 260.109 528.992 260.109 528.992 260.109L492.123 297.032Z" fill="white" stroke="#FD8B0E" stroke-width="0.9"/>
<path d="M74.1229 158.032L74.4413 158.35L74.1229 158.032C71.7705 160.389 68.5706 161.716 65.2452 161.716L40.7562 161.716C40.5853 161.716 40.45 161.582 40.45 161.409L40.45 140.562C40.45 140.389 40.5853 140.254 40.7562 140.254L85.9903 140.254C90.1608 140.254 93.5358 136.872 93.5358 132.696L93.5358 87.7576C93.5358 87.5845 93.6712 87.45 93.8421 87.45L114.41 87.45C114.573 87.45 114.716 87.5864 114.716 87.7666C114.716 87.7667 114.716 87.7668 114.716 87.7669L114.669 112.241C114.66 115.574 113.335 118.761 110.992 121.109C110.992 121.109 110.992 121.109 110.992 121.109L74.1229 158.032Z" fill="white" stroke="#FD8B0E" stroke-width="0.9"/>
<path d="M75.0875 296.997L75.4413 297.35L75.0875 296.997C72.7444 299.344 69.5574 300.666 66.2452 300.666L41.7562 300.666C41.613 300.666 41.5 300.554 41.5 300.409L41.5 279.562C41.5 279.416 41.613 279.304 41.7562 279.304L86.9903 279.304C91.1885 279.304 94.5858 275.9 94.5858 271.696L94.5858 226.758C94.5858 226.612 94.6989 226.5 94.8421 226.5L115.41 226.5C115.545 226.5 115.666 226.613 115.666 226.767C115.666 226.767 115.666 226.767 115.666 226.767L115.619 251.241C115.61 254.56 114.29 257.735 111.956 260.073C111.956 260.073 111.956 260.073 111.956 260.073L75.0875 296.997Z" stroke="#FD8B0E"/>
<path d="M1185.12 415.374L1185.44 415.692L1185.12 415.374C1182.77 417.731 1179.57 419.058 1176.24 419.058L1151.75 419.058C1151.58 419.058 1151.45 418.923 1151.45 418.75L1151.45 397.904C1151.45 397.731 1151.58 397.596 1151.75 397.596L1196.99 397.596C1201.16 397.596 1204.53 394.214 1204.53 390.038L1204.53 345.099C1204.53 344.926 1204.67 344.792 1204.84 344.792L1225.41 344.792C1225.57 344.792 1225.71 344.928 1225.71 345.108C1225.71 345.108 1225.71 345.109 1225.71 345.109L1225.67 369.583C1225.66 372.915 1224.33 376.103 1221.99 378.45C1221.99 378.45 1221.99 378.45 1221.99 378.45L1185.12 415.374Z" fill="white" stroke="#FD8B0E" stroke-width="0.9"/>
<path d="M1357.8 415.374L1358.12 415.692L1357.8 415.374C1355.44 417.731 1352.24 419.058 1348.92 419.058L1324.43 419.058C1324.26 419.058 1324.12 418.923 1324.12 418.75L1324.12 397.904C1324.12 397.731 1324.26 397.596 1324.43 397.596L1369.66 397.596C1373.83 397.596 1377.21 394.214 1377.21 390.038L1377.21 345.099C1377.21 344.926 1377.35 344.792 1377.52 344.792L1398.08 344.792C1398.25 344.792 1398.39 344.928 1398.39 345.108C1398.39 345.108 1398.39 345.109 1398.39 345.109L1398.34 369.583C1398.33 372.915 1397.01 376.103 1394.67 378.45C1394.67 378.45 1394.67 378.45 1394.67 378.45L1357.8 415.374Z" fill="white" stroke="#FD8B0E" stroke-width="0.9"/>
<path d="M1105.73 262.171L1105.38 261.818L1105.73 262.171C1108.08 259.824 1111.26 258.502 1114.58 258.502L1139.07 258.502C1139.21 258.502 1139.32 258.614 1139.32 258.76L1139.32 279.607C1139.32 279.752 1139.21 279.864 1139.07 279.864L1093.83 279.864C1089.63 279.864 1086.24 283.269 1086.24 287.472L1086.24 332.411C1086.24 332.556 1086.12 332.668 1085.98 332.668L1065.41 332.668C1065.28 332.668 1065.16 332.555 1065.16 332.402C1065.16 332.402 1065.16 332.402 1065.16 332.402L1065.2 307.927C1065.21 304.608 1066.53 301.433 1068.87 299.095C1068.87 299.095 1068.87 299.095 1068.87 299.095L1105.73 262.171Z" stroke="#009A08"/>
<path d="M549.043 295.134L548.725 294.816L549.043 295.134C551.396 292.777 554.595 291.45 557.921 291.45L582.41 291.45C582.581 291.45 582.716 291.584 582.716 291.758L582.716 312.604C582.716 312.777 582.581 312.912 582.41 312.912L537.176 312.912C533.005 312.912 529.63 316.294 529.63 320.47L529.63 365.409C529.63 365.582 529.495 365.716 529.324 365.716L508.756 365.716C508.593 365.716 508.45 365.58 508.45 365.4C508.45 365.399 508.45 365.399 508.45 365.399L508.497 340.925C508.506 337.592 509.831 334.405 512.174 332.057C512.174 332.057 512.174 332.057 512.174 332.057L549.043 295.134Z" fill="white" stroke="#009A08" stroke-width="0.9"/>
<path d="M1105.7 401.295L1105.38 400.977L1105.7 401.295C1108.05 398.938 1111.25 397.611 1114.58 397.611L1139.07 397.611C1139.24 397.611 1139.37 397.746 1139.37 397.919L1139.37 418.765C1139.37 418.939 1139.24 419.073 1139.07 419.073L1093.83 419.073C1089.66 419.073 1086.29 422.455 1086.29 426.631L1086.29 471.57C1086.29 471.743 1086.15 471.877 1085.98 471.877L1065.41 471.877C1065.25 471.877 1065.11 471.741 1065.11 471.561C1065.11 471.561 1065.11 471.56 1065.11 471.56L1065.15 447.086C1065.16 443.754 1066.49 440.566 1068.83 438.219C1068.83 438.219 1068.83 438.219 1068.83 438.219L1105.7 401.295Z" fill="white" stroke="#081224" stroke-width="0.9"/>
<path d="M827.043 125.953L826.725 125.635L827.043 125.953C829.396 123.597 832.595 122.269 835.921 122.269L860.41 122.269C860.581 122.269 860.716 122.404 860.716 122.577L860.716 143.424C860.716 143.597 860.581 143.731 860.41 143.731L815.176 143.731C811.005 143.731 807.63 147.113 807.63 151.289L807.63 196.228C807.63 196.401 807.495 196.535 807.324 196.535L786.756 196.535C786.593 196.535 786.45 196.399 786.45 196.219C786.45 196.219 786.45 196.219 786.45 196.219L786.497 171.744C786.506 168.412 787.831 165.224 790.174 162.877C790.174 162.877 790.174 162.877 790.174 162.877L827.043 125.953Z" fill="white" stroke="#009A08" stroke-width="0.9"/>
<path d="M1417.54 262.136L1417.22 261.818L1417.54 262.136C1419.89 259.78 1423.09 258.452 1426.41 258.452L1450.9 258.452C1451.07 258.452 1451.21 258.587 1451.21 258.76L1451.21 279.607C1451.21 279.78 1451.07 279.914 1450.9 279.914L1405.67 279.914C1401.5 279.914 1398.12 283.296 1398.12 287.472L1398.12 332.411C1398.12 332.584 1397.99 332.718 1397.82 332.718L1377.25 332.718C1377.09 332.718 1376.94 332.582 1376.94 332.402C1376.94 332.402 1376.94 332.402 1376.94 332.402L1376.99 307.927C1377 304.595 1378.33 301.407 1380.67 299.06C1380.67 299.06 1380.67 299.06 1380.67 299.06L1417.54 262.136Z" fill="white" stroke="#009A08" stroke-width="0.9"/>
<path d="M946.75 69L926.182 69C925.762 69 925.426 69.3367 925.426 69.7576L925.426 114.696C925.426 118.624 922.251 121.804 918.33 121.804L873.096 121.804C872.676 121.804 872.34 122.141 872.34 122.562L872.34 143.409C872.34 143.829 872.676 144.166 873.096 144.166L897.585 144.166C901.03 144.166 904.344 142.791 906.781 140.35L943.65 103.427C946.077 100.995 947.45 97.6935 947.459 94.2424L947.506 69.7669C947.506 69.346 947.17 69 946.75 69Z" fill="white"/>
<path d="M617.41 -3.30561e-08L596.842 -9.321e-07C596.422 -9.50465e-07 596.086 0.336693 596.086 0.757556L596.086 45.6963C596.086 49.6244 592.911 52.8042 588.99 52.8042L543.756 52.8042C543.336 52.8042 543 53.1409 543 53.5618L543 74.4085C543 74.8294 543.336 75.1661 543.756 75.1661L568.245 75.1661C571.69 75.1661 575.005 73.7913 577.441 71.3502L614.31 34.4266C616.738 31.9949 618.11 28.6935 618.119 25.2424L618.166 0.766902C618.166 0.34604 617.83 -1.46916e-08 617.41 -3.30561e-08Z" fill="white"/>
<path d="M929.632 378.465L929.314 378.783L929.632 378.465C927.275 376.112 925.948 372.913 925.948 369.587L925.948 345.098C925.948 344.927 926.082 344.792 926.256 344.792L947.102 344.792C947.275 344.792 947.41 344.927 947.41 345.098L947.41 390.332C947.41 394.503 950.792 397.878 954.968 397.878L999.907 397.878C1000.08 397.878 1000.21 398.013 1000.21 398.184L1000.21 418.752C1000.21 418.915 1000.08 419.058 999.898 419.058C999.897 419.058 999.897 419.058 999.897 419.058L975.423 419.011C972.09 419.002 968.903 417.677 966.555 415.334C966.555 415.334 966.555 415.334 966.555 415.334L929.632 378.465Z" fill="white" stroke="#081224" stroke-width="0.9"/>
<path d="M111.032 41.0431L111.35 40.7247L111.032 41.0431C113.389 43.3955 114.716 46.5954 114.716 49.9208L114.716 74.4098C114.716 74.5807 114.582 74.716 114.409 74.716L93.5618 74.716C93.3887 74.716 93.2543 74.5807 93.2543 74.4098L93.2542 29.1757C93.2542 25.0052 89.8722 21.6302 85.6963 21.6302L40.7576 21.6302C40.5845 21.6302 40.45 21.4948 40.45 21.324L40.45 0.756235C40.45 0.592627 40.5864 0.450182 40.7666 0.45C40.7667 0.45 40.7668 0.45 40.7669 0.45L65.2412 0.496675C68.5736 0.50569 71.7611 1.83093 74.1086 4.17429C74.1086 4.17431 74.1086 4.17432 74.1087 4.17433L111.032 41.0431Z" fill="white" stroke="#081224" stroke-width="0.9"/>
<path d="M966.201 125.953L965.883 125.635L966.201 125.953C968.554 123.597 971.754 122.269 975.079 122.269L999.568 122.269C999.739 122.269 999.874 122.404 999.874 122.577L999.874 143.424C999.874 143.597 999.739 143.731 999.568 143.731L954.334 143.731C950.163 143.731 946.788 147.113 946.788 151.289L946.788 196.228C946.788 196.401 946.653 196.535 946.482 196.535L925.914 196.535C925.751 196.535 925.608 196.399 925.608 196.219C925.608 196.219 925.608 196.219 925.608 196.219L925.655 171.744C925.664 168.412 926.989 165.224 929.333 162.877C929.333 162.877 929.333 162.877 929.333 162.877L966.201 125.953Z" fill="white" stroke="#081224" stroke-width="0.9"/>
<path d="M1105.7 121.962L1105.38 121.644L1105.7 121.962C1108.05 119.605 1111.25 118.278 1114.58 118.278L1139.07 118.278C1139.24 118.278 1139.37 118.412 1139.37 118.585L1139.37 139.432C1139.37 139.605 1139.24 139.74 1139.07 139.74L1093.83 139.74C1089.66 139.74 1086.29 143.122 1086.29 147.298L1086.29 192.236C1086.29 192.409 1086.15 192.544 1085.98 192.544L1065.41 192.544C1065.25 192.544 1065.11 192.407 1065.11 192.227C1065.11 192.227 1065.11 192.227 1065.11 192.227L1065.15 167.753C1065.16 164.42 1066.49 161.233 1068.83 158.885C1068.83 158.885 1068.83 158.885 1068.83 158.885L1105.7 121.962Z" fill="white" stroke="#009A08" stroke-width="0.9"/>
<path d="M221.078 56.1691L220.725 55.8158L221.079 56.169C223.422 53.8219 226.609 52.4999 229.921 52.4999L254.41 52.4999C254.553 52.4999 254.666 52.612 254.666 52.7575L254.666 73.6042C254.666 73.7498 254.553 73.8618 254.41 73.8618L209.176 73.8618C204.978 73.8618 201.58 77.2663 201.58 81.4697L201.58 126.408C201.58 126.554 201.467 126.666 201.324 126.666L180.756 126.666C180.621 126.666 180.5 126.553 180.5 126.399C180.5 126.399 180.5 126.399 180.5 126.399L180.547 101.925C180.556 98.6057 181.876 95.4308 184.21 93.0927C184.21 93.0927 184.21 93.0927 184.21 93.0927L221.078 56.1691Z" stroke="#009A08"/>
<path d="M-3.9569 4.13379L-4.27534 3.81582L-3.95687 4.13375C-1.60445 1.77724 1.59537 0.449995 4.92086 0.449995L29.4098 0.449994C29.5807 0.449994 29.716 0.584477 29.716 0.75755L29.716 21.6043C29.716 21.7774 29.5807 21.9118 29.4098 21.9118L-15.8243 21.9118C-19.9947 21.9118 -23.3698 25.2939 -23.3698 29.4697L-23.3698 74.4085C-23.3698 74.5816 -23.5052 74.7161 -23.676 74.7161L-44.2438 74.7161C-44.4074 74.7161 -44.5498 74.5796 -44.55 74.3995C-44.55 74.3994 -44.55 74.3993 -44.55 74.3992L-44.5033 49.9249C-44.4943 46.5925 -43.1691 43.4049 -40.8257 41.0575C-40.8257 41.0575 -40.8257 41.0574 -40.8257 41.0574L-3.9569 4.13379Z" fill="white" stroke="#009A08" stroke-width="0.9"/>
<path d="M135.043 144.134L134.725 143.816L135.043 144.134C137.396 141.777 140.595 140.45 143.921 140.45L168.41 140.45C168.581 140.45 168.716 140.584 168.716 140.757L168.716 161.604C168.716 161.777 168.581 161.912 168.41 161.912L123.176 161.912C119.005 161.912 115.63 165.294 115.63 169.47L115.63 214.408C115.63 214.582 115.495 214.716 115.324 214.716L94.7562 214.716C94.5926 214.716 94.4502 214.58 94.45 214.399C94.45 214.399 94.45 214.399 94.45 214.399L94.4967 189.925C94.5057 186.592 95.8309 183.405 98.1743 181.057C98.1743 181.057 98.1743 181.057 98.1743 181.057L135.043 144.134Z" fill="white" stroke="#009A08" stroke-width="0.9"/>
<path d="M688.043 295.134L687.725 294.816L688.043 295.134C690.396 292.777 693.595 291.45 696.921 291.45L721.41 291.45C721.581 291.45 721.716 291.584 721.716 291.757L721.716 312.604C721.716 312.777 721.581 312.912 721.41 312.912L676.176 312.912C672.005 312.912 668.63 316.294 668.63 320.47L668.63 365.408C668.63 365.582 668.495 365.716 668.324 365.716L647.756 365.716C647.593 365.716 647.45 365.58 647.45 365.399C647.45 365.399 647.45 365.399 647.45 365.399L647.497 340.925C647.506 337.592 648.831 334.405 651.174 332.057C651.174 332.057 651.174 332.057 651.174 332.057L688.043 295.134Z" fill="white" stroke="#009A08" stroke-width="0.9"/>
<path d="M413.078 284.169L412.725 283.816L413.079 284.169C415.422 281.822 418.609 280.5 421.921 280.5L446.41 280.5C446.553 280.5 446.666 280.612 446.666 280.758L446.666 301.604C446.666 301.75 446.553 301.862 446.41 301.862L401.176 301.862C396.978 301.862 393.58 305.266 393.58 309.47L393.58 354.409C393.58 354.554 393.467 354.666 393.324 354.666L372.756 354.666C372.621 354.666 372.5 354.553 372.5 354.4C372.5 354.399 372.5 354.399 372.5 354.399L372.547 329.925C372.556 326.606 373.876 323.431 376.21 321.093C376.21 321.093 376.21 321.093 376.21 321.093L413.078 284.169Z" stroke="#009A08"/>
<path d="M1045.96 415.374L1046.28 415.692L1045.96 415.374C1043.61 417.731 1040.41 419.058 1037.08 419.058L1012.59 419.058C1012.42 419.058 1012.29 418.923 1012.29 418.75L1012.29 397.904C1012.29 397.731 1012.42 397.596 1012.59 397.596L1057.83 397.596C1062 397.596 1065.37 394.214 1065.37 390.038L1065.37 345.099C1065.37 344.926 1065.51 344.792 1065.68 344.792L1086.25 344.792C1086.41 344.792 1086.55 344.928 1086.55 345.108C1086.55 345.108 1086.55 345.109 1086.55 345.109L1086.51 369.583C1086.5 372.915 1085.17 376.103 1082.83 378.45C1082.83 378.45 1082.83 378.45 1082.83 378.45L1045.96 415.374Z" fill="white" stroke="#FD8B0E" stroke-width="0.9"/>
<path d="M412.043 142.134L411.725 141.816L412.043 142.134C414.396 139.777 417.595 138.45 420.921 138.45L445.41 138.45C445.581 138.45 445.716 138.585 445.716 138.758L445.716 159.604C445.716 159.778 445.581 159.912 445.41 159.912L400.176 159.912C396.005 159.912 392.63 163.294 392.63 167.47L392.63 212.409C392.63 212.582 392.495 212.716 392.324 212.716L371.756 212.716C371.593 212.716 371.45 212.58 371.45 212.4C371.45 212.4 371.45 212.399 371.45 212.399L371.497 187.925C371.506 184.593 372.831 181.405 375.174 179.058C375.174 179.058 375.174 179.058 375.174 179.058L412.043 142.134Z" fill="white" stroke="#009A08" stroke-width="0.9"/>
<path d="M-4.9569 144.134L-5.27534 143.816L-4.95687 144.134C-2.60445 141.777 0.595372 140.45 3.92086 140.45L28.4098 140.45C28.5807 140.45 28.716 140.584 28.716 140.758L28.716 161.604C28.716 161.777 28.5807 161.912 28.4098 161.912L-16.8243 161.912C-20.9947 161.912 -24.3698 165.294 -24.3698 169.47L-24.3698 214.409C-24.3698 214.582 -24.5052 214.716 -24.676 214.716L-45.2438 214.716C-45.4074 214.716 -45.5498 214.58 -45.55 214.4C-45.55 214.399 -45.55 214.399 -45.55 214.399L-45.5033 189.925C-45.4943 186.592 -44.1691 183.405 -41.8257 181.057C-41.8257 181.057 -41.8257 181.057 -41.8257 181.057L-4.9569 144.134Z" fill="white" stroke="#009A08" stroke-width="0.9"/>
<path d="M744.311 86.2685L743.993 86.5869L744.311 86.2684C741.955 83.916 740.628 80.7162 740.628 77.3907L740.628 52.9018C740.628 52.7309 740.762 52.5955 740.935 52.5955L761.782 52.5955C761.955 52.5955 762.09 52.7309 762.09 52.9018L762.09 98.1358C762.09 102.306 765.472 105.681 769.647 105.681L814.586 105.681C814.759 105.681 814.894 105.817 814.894 105.988L814.894 126.555C814.894 126.719 814.757 126.861 814.577 126.862C814.577 126.862 814.577 126.862 814.577 126.862L790.103 126.815C786.77 126.806 783.583 125.481 781.235 123.137C781.235 123.137 781.235 123.137 781.235 123.137L744.311 86.2685Z" fill="white" stroke="#081224" stroke-width="0.9"/>
<path d="M906.427 279.156L906.781 279.509L906.427 279.156C904.084 281.503 900.897 282.825 897.585 282.825L873.096 282.825C872.953 282.825 872.84 282.713 872.84 282.567L872.84 261.72C872.84 261.575 872.953 261.463 873.096 261.463L918.33 261.463C922.528 261.463 925.926 258.058 925.926 253.855L925.926 208.916C925.926 208.771 926.039 208.659 926.182 208.659L946.75 208.659C946.885 208.659 947.006 208.772 947.006 208.925C947.006 208.925 947.006 208.925 947.006 208.926L946.959 233.4C946.95 236.719 945.63 239.894 943.296 242.232C943.296 242.232 943.296 242.232 943.296 242.232L906.427 279.156Z" stroke="#FD8B0E"/>
<path d="M628.123 309.032L628.441 309.35L628.123 309.032C625.77 311.389 622.571 312.716 619.245 312.716L594.756 312.716C594.585 312.716 594.45 312.582 594.45 312.409L594.45 291.562C594.45 291.389 594.585 291.254 594.756 291.254L639.99 291.254C644.161 291.254 647.536 287.872 647.536 283.696L647.536 238.758C647.536 238.584 647.671 238.45 647.842 238.45L668.41 238.45C668.573 238.45 668.716 238.586 668.716 238.767C668.716 238.767 668.716 238.767 668.716 238.767L668.669 263.241C668.66 266.574 667.335 269.761 664.992 272.109C664.992 272.109 664.992 272.109 664.992 272.109L628.123 309.032Z" fill="white" stroke="#FD8B0E" stroke-width="0.9"/>
<path d="M528.372 179.043L528.69 178.725L528.372 179.043C530.729 181.396 532.056 184.595 532.056 187.921V212.41C532.056 212.581 531.921 212.716 531.748 212.716L510.902 212.716C510.729 212.716 510.594 212.581 510.594 212.41L510.594 167.176C510.594 163.005 507.212 159.63 503.036 159.63L458.097 159.63C457.924 159.63 457.79 159.495 457.79 159.324L457.79 138.756C457.79 138.593 457.926 138.45 458.106 138.45C458.107 138.45 458.107 138.45 458.107 138.45L482.581 138.497C485.913 138.506 489.101 139.831 491.448 142.174C491.448 142.174 491.448 142.174 491.448 142.174L528.372 179.043Z" fill="white" stroke="#081224" stroke-width="0.9"/>
<path d="M790.134 242.282L789.816 242.6L790.134 242.282C787.777 239.929 786.45 236.729 786.45 233.404L786.45 208.915C786.45 208.744 786.584 208.609 786.757 208.609L807.604 208.609C807.777 208.609 807.912 208.744 807.912 208.915L807.912 254.149C807.912 258.32 811.294 261.695 815.47 261.695L860.408 261.695C860.582 261.695 860.716 261.83 860.716 262.001L860.716 282.569C860.716 282.732 860.58 282.875 860.399 282.875C860.399 282.875 860.399 282.875 860.399 282.875L835.925 282.828C832.592 282.819 829.405 281.494 827.057 279.151C827.057 279.151 827.057 279.15 827.057 279.15L790.134 242.282Z" fill="white" stroke="#081224" stroke-width="0.9"/>
<path d="M1241.47 378.465L1241.15 378.783L1241.47 378.465C1239.11 376.112 1237.78 372.912 1237.78 369.587L1237.78 345.098C1237.78 344.927 1237.92 344.792 1238.09 344.792L1258.94 344.792C1259.11 344.792 1259.25 344.927 1259.25 345.098L1259.25 390.332C1259.25 394.503 1262.63 397.878 1266.8 397.878L1311.74 397.878C1311.92 397.878 1312.05 398.013 1312.05 398.184L1312.05 418.752C1312.05 418.915 1311.91 419.058 1311.73 419.058C1311.73 419.058 1311.73 419.058 1311.73 419.058L1287.26 419.011C1283.93 419.002 1280.74 417.677 1278.39 415.334C1278.39 415.333 1278.39 415.333 1278.39 415.333L1241.47 378.465Z" fill="white" stroke="#081224" stroke-width="0.9"/>
<path d="M512.134 412.123L511.816 412.441L512.134 412.123C509.777 409.77 508.45 406.571 508.45 403.245L508.45 378.756C508.45 378.585 508.584 378.45 508.757 378.45L529.604 378.45C529.777 378.45 529.912 378.585 529.912 378.756L529.912 423.99C529.912 428.161 533.294 431.536 537.47 431.536L582.408 431.536C582.582 431.536 582.716 431.671 582.716 431.842L582.716 452.41C582.716 452.573 582.58 452.716 582.399 452.716C582.399 452.716 582.399 452.716 582.399 452.716L557.925 452.669C554.592 452.66 551.405 451.335 549.057 448.992C549.057 448.992 549.057 448.992 549.057 448.992L512.134 412.123Z" fill="white" stroke="#081224" stroke-width="0.9"/>
<path d="M97.1691 401.088L96.8158 401.441L97.169 401.087C94.8219 398.744 93.4999 395.557 93.4999 392.245L93.4999 367.756C93.4999 367.613 93.612 367.5 93.7575 367.5L114.604 367.5C114.75 367.5 114.862 367.613 114.862 367.756L114.862 412.99C114.862 417.188 118.266 420.586 122.47 420.586L167.408 420.586C167.554 420.586 167.666 420.699 167.666 420.842L167.666 441.41C167.666 441.545 167.553 441.666 167.399 441.666C167.399 441.666 167.399 441.666 167.399 441.666L142.925 441.619C139.606 441.61 136.431 440.29 134.093 437.956C134.093 437.956 134.093 437.956 134.093 437.956L97.1691 401.088Z" stroke="#081224"/>
<path d="M790.134 412.123L789.816 412.441L790.134 412.123C787.777 409.77 786.45 406.571 786.45 403.245L786.45 378.756C786.45 378.585 786.584 378.45 786.757 378.45L807.604 378.45C807.777 378.45 807.912 378.585 807.912 378.756L807.912 423.99C807.912 428.161 811.294 431.536 815.47 431.536L860.408 431.536C860.582 431.536 860.716 431.671 860.716 431.842L860.716 452.41C860.716 452.573 860.58 452.716 860.399 452.716C860.399 452.716 860.399 452.716 860.399 452.716L835.925 452.669C832.592 452.66 829.405 451.335 827.057 448.992C827.057 448.992 827.057 448.992 827.057 448.992L790.134 412.123Z" fill="white" stroke="#081224" stroke-width="0.9"/>
<path d="M308.166 441.41L308.166 420.842C308.166 420.422 307.829 420.086 307.408 420.086L262.47 420.086C258.542 420.086 255.362 416.911 255.362 412.99L255.362 367.756C255.362 367.336 255.025 367 254.604 367L233.757 367C233.337 367 233 367.336 233 367.756L233 392.245C233 395.69 234.375 399.005 236.816 401.441L273.739 438.31C276.171 440.738 279.473 442.11 282.924 442.119L307.399 442.166C307.82 442.166 308.166 441.83 308.166 441.41Z" fill="white"/>
<path d="M-40.8663 260.123L-41.1842 260.441L-40.8663 260.123C-43.2228 257.77 -44.5501 254.571 -44.5501 251.245L-44.5501 226.756C-44.5501 226.585 -44.4156 226.45 -44.2425 226.45L-23.3958 226.45C-23.2227 226.45 -23.0882 226.585 -23.0882 226.756L-23.0882 271.99C-23.0882 276.161 -19.7062 279.536 -15.5303 279.536L29.4085 279.536C29.5815 279.536 29.716 279.671 29.716 279.842L29.716 300.41C29.716 300.573 29.5796 300.716 29.3995 300.716C29.3993 300.716 29.3992 300.716 29.3991 300.716L4.92483 300.669C1.59241 300.66 -1.59513 299.335 -3.94259 296.992C-3.94261 296.992 -3.94262 296.992 -3.94263 296.992L-40.8663 260.123Z" fill="white" stroke="#081224" stroke-width="0.9"/>
<path d="M1481.05 41.0431L1481.36 40.7247L1481.05 41.0431C1483.4 43.3956 1484.73 46.5954 1484.73 49.9209L1484.73 74.4098C1484.73 74.5807 1484.6 74.7161 1484.42 74.7161L1463.58 74.7161C1463.4 74.7161 1463.27 74.5807 1463.27 74.4098L1463.27 29.1758C1463.27 25.0053 1459.89 21.6302 1455.71 21.6302L1410.77 21.6302C1410.6 21.6302 1410.46 21.4948 1410.46 21.324L1410.46 0.756235C1410.46 0.592627 1410.6 0.450182 1410.78 0.45C1410.78 0.45 1410.78 0.45 1410.78 0.45L1435.25 0.496684C1438.59 0.5057 1441.77 1.83094 1444.12 4.17431C1444.12 4.17432 1444.12 4.17433 1444.12 4.17435L1481.05 41.0431Z" fill="white" stroke="#081224" stroke-width="0.9"/>
<path d="M74.3721 351.043L74.6901 350.725L74.3722 351.043C76.7287 353.396 78.0559 356.595 78.0559 359.921L78.0559 384.41C78.0559 384.581 77.9214 384.716 77.7484 384.716L56.9016 384.716C56.7286 384.716 56.5941 384.581 56.5941 384.41L56.5941 339.176C56.5941 335.005 53.212 331.63 49.0362 331.63L4.0974 331.63C3.92432 331.63 3.78984 331.495 3.78984 331.324L3.78984 310.756C3.78984 310.593 3.92627 310.45 4.1064 310.45C4.10652 310.45 4.10663 310.45 4.10675 310.45L28.581 310.497C31.9134 310.506 35.101 311.831 37.4485 314.174C37.4485 314.174 37.4485 314.174 37.4485 314.174L74.3721 351.043Z" fill="white" stroke="#081224" stroke-width="0.9"/>
<path d="M1481.01 120.427L1481.01 120.427C1483.36 118.084 1484.68 114.897 1484.68 111.585L1484.68 87.0956C1484.68 86.9524 1484.57 86.8393 1484.42 86.8393L1463.58 86.8393C1463.43 86.8393 1463.32 86.9524 1463.32 87.0956L1463.32 132.33C1463.32 136.528 1459.91 139.925 1455.71 139.925L1410.77 139.925C1410.63 139.925 1410.51 140.038 1410.51 140.181L1410.51 160.749C1410.51 160.884 1410.63 161.005 1410.78 161.005C1410.78 161.005 1410.78 161.005 1410.78 161.005L1435.25 160.959C1438.57 160.95 1441.75 159.63 1444.09 157.296C1444.09 157.296 1444.09 157.296 1444.09 157.296L1481.01 120.427Z" stroke="#FD8B0E"/>
<path d="M74.3721 430.462L74.6901 430.781L74.3722 430.462C76.7287 428.11 78.0559 424.91 78.0559 421.585L78.0559 397.096C78.0559 396.925 77.9214 396.789 77.7484 396.789L56.9016 396.789C56.7286 396.789 56.5941 396.925 56.5941 397.096L56.5941 442.33C56.5941 446.5 53.212 449.875 49.0362 449.875L4.0974 449.875C3.92432 449.875 3.78984 450.011 3.78984 450.181L3.78984 470.749C3.78984 470.913 3.92627 471.055 4.1064 471.055C4.10652 471.055 4.10663 471.055 4.10675 471.055L28.581 471.009C31.9134 471 35.101 469.674 37.4485 467.331C37.4485 467.331 37.4485 467.331 37.4485 467.331L74.3721 430.462Z" fill="white" stroke="#FD8B0E" stroke-width="0.9"/>
<path d="M1327.84 41.0785L1327.84 41.0785C1325.5 43.4216 1324.17 46.6087 1324.17 49.9209V74.4098C1324.17 74.553 1324.29 74.6661 1324.43 74.6661L1345.28 74.6661C1345.42 74.6661 1345.54 74.553 1345.54 74.4098L1345.54 29.1757C1345.54 24.9776 1348.94 21.5802 1353.14 21.5802L1398.08 21.5802C1398.23 21.5802 1398.34 21.4671 1398.34 21.324V0.756235C1398.34 0.621118 1398.23 0.500187 1398.07 0.5C1398.07 0.5 1398.07 0.5 1398.07 0.5L1373.6 0.546679C1370.28 0.555659 1367.1 1.87566 1364.77 4.20968C1364.77 4.2097 1364.77 4.20971 1364.77 4.20973L1327.84 41.0785Z" stroke="#009A08"/>
<path d="M843.294 386.059L842.976 385.74L843.294 386.059C840.937 388.411 839.61 391.611 839.61 394.937V419.426C839.61 419.596 839.745 419.732 839.918 419.732L860.764 419.732C860.937 419.732 861.072 419.596 861.072 419.426L861.072 374.191C861.072 370.021 864.454 366.646 868.63 366.646L913.569 366.646C913.742 366.646 913.876 366.511 913.876 366.34L913.876 345.772C913.876 345.608 913.74 345.466 913.56 345.466C913.559 345.466 913.559 345.466 913.559 345.466L889.085 345.512C885.753 345.521 882.565 346.847 880.218 349.19C880.218 349.19 880.218 349.19 880.218 349.19L843.294 386.059Z" fill="white" stroke="#009A08" stroke-width="0.9"/>
</svg>
