<svg width="163" height="162" viewBox="0 0 163 162" fill="none" xmlns="http://www.w3.org/2000/svg">
<path d="M4.70124 120.639L4.55992 120.781L4.70121 120.639C2.29776 118.24 0.944088 114.976 0.944089 111.585L0.944091 87.0956C0.944091 86.7862 1.19091 86.5393 1.50165 86.5393L22.3484 86.5393C22.6591 86.5393 22.9059 86.7862 22.9059 87.0956L22.9059 132.33C22.9059 136.362 26.1756 139.625 30.2138 139.625L75.1526 139.625C75.4633 139.625 75.7102 139.872 75.7102 140.181L75.7102 160.749C75.7102 161.055 75.4573 161.305 75.1434 161.305C75.1434 161.305 75.1433 161.305 75.1433 161.305L50.6683 161.259C47.27 161.249 44.0191 159.898 41.6249 157.508L4.70124 120.639Z" stroke="white" stroke-width="0.4"/>
<path d="M158.299 40.8662L158.44 40.7247L158.299 40.8662C160.702 43.2655 162.056 46.529 162.056 49.9209L162.056 74.4098C162.056 74.7192 161.809 74.9661 161.498 74.9661L140.652 74.9661C140.341 74.9661 140.094 74.7192 140.094 74.4098L140.094 29.1758C140.094 25.1437 136.824 21.8802 132.786 21.8802L87.8474 21.8802C87.5367 21.8802 87.2898 21.6333 87.2898 21.324L87.2898 0.756235C87.2898 0.450127 87.5427 0.200095 87.8566 0.2C87.8566 0.2 87.8567 0.2 87.8567 0.2L112.332 0.246685C115.73 0.255879 118.981 1.60734 121.375 3.9974L158.299 40.8662Z" stroke="white" stroke-width="0.4"/>
<path d="M158.299 120.639L158.44 120.781L158.299 120.639C160.702 118.24 162.056 114.976 162.056 111.585L162.056 87.0956C162.056 86.7862 161.809 86.5393 161.498 86.5393L140.652 86.5393C140.341 86.5393 140.094 86.7862 140.094 87.0956L140.094 132.33C140.094 136.362 136.824 139.625 132.786 139.625L87.8474 139.625C87.5367 139.625 87.2898 139.872 87.2898 140.181L87.2898 160.749C87.2898 161.055 87.5427 161.305 87.8566 161.305C87.8566 161.305 87.8567 161.305 87.8567 161.305L112.332 161.259C115.73 161.249 118.981 159.898 121.375 157.508L158.299 120.639Z" stroke="#FD8B0E" stroke-width="0.4"/>
<path d="M4.70124 40.8662L4.55992 40.7247L4.70122 40.8662C2.29777 43.2655 0.944092 46.5289 0.944092 49.9209L0.944092 74.4098C0.944092 74.7192 1.19091 74.9661 1.50164 74.9661L22.3484 74.9661C22.6591 74.9661 22.9059 74.7192 22.9059 74.4098L22.9059 29.1757C22.9059 25.1437 26.1756 21.8802 30.2138 21.8802L75.1526 21.8802C75.4633 21.8802 75.7102 21.6333 75.7102 21.324L75.7102 0.756235C75.7102 0.450127 75.4573 0.200095 75.1434 0.2C75.1434 0.2 75.1433 0.2 75.1433 0.2L50.6683 0.24668C47.27 0.255874 44.0191 1.60734 41.6249 3.99739L4.70124 40.8662Z" stroke="#009A08" stroke-width="0.4"/>
</svg>
