<svg width="214" height="228" viewBox="0 0 214 228" fill="none" xmlns="http://www.w3.org/2000/svg">
<path d="M108.609 105.633L108.609 76.5773C108.609 75.9838 108.124 75.5089 107.518 75.5089L42.751 75.5089C37.0898 75.5089 32.507 71.0246 32.507 65.4852L32.507 1.58402C32.507 0.990518 32.0218 0.515702 31.4152 0.515702L1.37053 0.5157C0.763979 0.515699 0.278734 0.990515 0.278734 1.58402L0.278731 36.179C0.27873 41.0458 2.26015 45.7279 5.77817 49.1703L58.9932 101.254C62.4977 104.683 67.2558 106.622 72.2296 106.635L107.504 106.701C108.111 106.701 108.609 106.226 108.609 105.633Z" fill="#FD8B0E"/>
<path d="M108.609 1.58406V30.6397C108.609 31.2332 109.08 31.708 109.669 31.708L172.512 31.708C178.005 31.708 182.451 36.1923 182.451 41.7317V105.633C182.451 106.226 182.922 106.701 183.511 106.701H212.663C213.251 106.701 213.722 106.226 213.722 105.633V71.0379C213.722 66.1711 211.8 61.489 208.386 58.0466L156.752 5.96285C153.351 2.53368 148.735 0.594882 143.909 0.581693L109.682 0.515747C109.093 0.515747 108.609 0.990555 108.609 1.58406Z" fill="#081224"/>
<path d="M108.609 226.835L108.609 197.779C108.609 197.185 108.124 196.711 107.518 196.711L42.751 196.711C37.0898 196.711 32.507 192.226 32.507 186.687L32.507 122.786C32.507 122.192 32.0218 121.717 31.4152 121.717L1.37053 121.717C0.763979 121.717 0.278734 122.192 0.278734 122.786L0.278731 157.381C0.27873 162.247 2.26015 166.93 5.77817 170.372L58.9932 222.456C62.4977 225.885 67.2558 227.824 72.2296 227.837L107.504 227.903C108.111 227.903 108.609 227.428 108.609 226.835Z" fill="#081224"/>
<path d="M108.609 122.786V151.841C108.609 152.435 109.08 152.91 109.669 152.91H172.512C178.005 152.91 182.451 157.394 182.451 162.933V226.835C182.451 227.428 182.922 227.903 183.511 227.903H212.663C213.251 227.903 213.722 227.428 213.722 226.835V192.24C213.722 187.373 211.8 182.691 208.386 179.248L156.752 127.165C153.351 123.735 148.735 121.797 143.909 121.783L109.682 121.717C109.093 121.717 108.609 122.192 108.609 122.786Z" fill="#009A08"/>
</svg>
