<svg width="228" height="228" viewBox="0 0 228 228" fill="none" xmlns="http://www.w3.org/2000/svg">
<path d="M106.449 1.5841V30.6405C106.449 31.234 105.974 31.7088 105.38 31.7088H41.9321C36.3874 31.7088 31.8988 36.1933 31.8988 41.7328V105.636C31.8988 106.229 31.4236 106.704 30.8295 106.704H1.38965C0.795574 106.704 0.320312 106.229 0.320312 105.636V71.0398C0.320312 66.1729 2.26097 61.4906 5.70661 58.0482L57.8534 5.963C61.2859 2.53374 65.9461 0.594887 70.8175 0.581697L105.366 0.51575C105.96 0.51575 106.449 0.990571 106.449 1.5841Z" fill="#FD8B0E"/>
<path d="M121.578 1.58409V30.6405C121.578 31.234 122.053 31.7088 122.647 31.7088H186.082C191.626 31.7088 196.115 36.1933 196.115 41.7328V105.636C196.115 106.229 196.59 106.704 197.184 106.704H226.611C227.205 106.704 227.68 106.229 227.68 105.636V71.0398C227.68 66.1729 225.74 61.4906 222.294 58.0482L170.174 5.963C166.741 2.53374 162.081 0.594884 157.21 0.581694L122.661 0.515747C122.067 0.515747 121.578 0.990568 121.578 1.58409Z" fill="#081224"/>
<path d="M106.449 226.794V197.738C106.449 197.144 105.974 196.669 105.38 196.669H41.9321C36.3874 196.669 31.8988 192.185 31.8988 186.645V122.742C31.8988 122.149 31.4236 121.674 30.8295 121.674H1.38965C0.795574 121.674 0.320312 122.149 0.320312 122.742V157.338C0.320312 162.205 2.26097 166.888 5.70661 170.33L57.8534 222.428C61.2991 225.871 65.9593 227.797 70.8175 227.81L105.38 227.876C105.974 227.876 106.462 227.401 106.462 226.807L106.449 226.794Z" fill="#081224"/>
<path d="M121.578 226.794V197.738C121.578 197.144 122.053 196.669 122.647 196.669H186.082C191.626 196.669 196.115 192.185 196.115 186.645V122.742C196.115 122.149 196.59 121.674 197.184 121.674H226.611C227.205 121.674 227.68 122.149 227.68 122.742V157.338C227.68 162.205 225.74 166.888 222.294 170.33L170.147 222.428C166.702 225.871 162.041 227.797 157.183 227.81L122.621 227.876C122.027 227.876 121.538 227.401 121.538 226.807L121.578 226.794Z" fill="#009A08"/>
</svg>
