<svg width="228" height="228" viewBox="0 0 228 228" fill="none" xmlns="http://www.w3.org/2000/svg">
<path d="M122.044 105.633L122.044 76.5773C122.044 75.9838 122.515 75.5089 123.103 75.5089L185.946 75.5089C191.439 75.5089 195.886 71.0246 195.886 65.4852L195.886 1.58402C195.886 0.990518 196.357 0.515702 196.945 0.515702L226.097 0.5157C226.686 0.5157 227.157 0.990515 227.157 1.58402L227.157 36.179C227.157 41.0458 225.234 45.7279 221.821 49.1703L170.186 101.254C166.786 104.683 162.169 106.622 157.343 106.635L123.116 106.701C122.528 106.701 122.044 106.226 122.044 105.633Z" fill="#081224"/>
<path d="M107.028 122.786L107.028 151.841C107.028 152.435 106.553 152.91 105.958 152.91L42.4741 152.91C36.925 152.91 32.4329 157.394 32.4329 162.933L32.4329 226.835C32.4329 227.428 31.9573 227.903 31.3628 227.903L1.91303 227.903C1.31849 227.903 0.842857 227.428 0.842857 226.835L0.842857 192.24C0.842857 187.373 2.78503 182.691 6.23339 179.248L58.3947 127.165C61.8298 123.735 66.4937 121.797 71.3689 121.783L105.945 121.717C106.539 121.717 107.028 122.192 107.028 122.786Z" fill="#081224"/>
<path d="M107.028 105.633L107.028 76.5773C107.028 75.9838 106.553 75.5089 105.958 75.5089L42.4741 75.5089C36.925 75.5089 32.4329 71.0246 32.4329 65.4852L32.4329 1.58402C32.4329 0.990518 31.9573 0.515702 31.3627 0.515702L1.91302 0.5157C1.31848 0.5157 0.842836 0.990515 0.842836 1.58402L0.842833 36.179C0.842833 41.0458 2.78502 45.7279 6.23337 49.1703L58.3946 101.254C61.8298 104.683 66.4937 106.622 71.3689 106.635L105.945 106.701C106.539 106.701 107.028 106.226 107.028 105.633Z" fill="#FD8B0E"/>
<path d="M122.044 122.786L122.044 151.841C122.044 152.435 122.515 152.91 123.103 152.91L185.946 152.91C191.439 152.91 195.886 157.394 195.886 162.933L195.886 226.835C195.886 227.428 196.357 227.903 196.945 227.903L226.097 227.903C226.686 227.903 227.157 227.428 227.157 226.835L227.157 192.24C227.157 187.373 225.234 182.691 221.821 179.248L170.186 127.165C166.786 123.735 162.169 121.797 157.343 121.783L123.116 121.717C122.528 121.717 122.044 122.192 122.044 122.786Z" fill="#009A08"/>
</svg>
