<svg width="854" height="508" viewBox="0 0 854 508" fill="none" xmlns="http://www.w3.org/2000/svg">
<path d="M697.134 120.462L696.816 120.781L697.134 120.462C694.777 118.11 693.45 114.91 693.45 111.585L693.45 87.0956C693.45 86.9248 693.584 86.7894 693.758 86.7894L714.604 86.7894C714.777 86.7894 714.912 86.9248 714.912 87.0956L714.912 132.33C714.912 136.5 718.294 139.875 722.47 139.875L767.408 139.875C767.582 139.875 767.716 140.011 767.716 140.181L767.716 160.749C767.716 160.913 767.58 161.055 767.399 161.055C767.399 161.055 767.399 161.055 767.399 161.055L742.925 161.009C739.592 161 736.405 159.675 734.057 157.331C734.057 157.331 734.057 157.331 734.057 157.331L697.134 120.462Z" stroke="#081224" stroke-width="0.9"/>
<path d="M677.372 387.043L677.69 386.725L677.372 387.043C679.729 389.396 681.056 392.595 681.056 395.921L681.056 420.41C681.056 420.581 680.921 420.716 680.748 420.716L659.902 420.716C659.729 420.716 659.594 420.581 659.594 420.41L659.594 375.176C659.594 371.005 656.212 367.63 652.036 367.63L607.097 367.63C606.924 367.63 606.79 367.495 606.79 367.324L606.79 346.756C606.79 346.593 606.926 346.45 607.106 346.45C607.107 346.45 607.107 346.45 607.107 346.45L631.581 346.497C634.913 346.506 638.101 347.831 640.448 350.174C640.448 350.174 640.448 350.174 640.448 350.174L677.372 387.043Z" stroke="#081224" stroke-width="0.9"/>
<path d="M640.463 503.372L640.781 503.69L640.463 503.372C638.11 505.728 634.91 507.055 631.585 507.055L607.096 507.055C606.925 507.055 606.79 506.921 606.79 506.748L606.79 485.901C606.79 485.728 606.925 485.594 607.096 485.594L652.33 485.594C656.501 485.594 659.876 482.212 659.876 478.036L659.876 433.097C659.876 432.924 660.011 432.789 660.182 432.789L680.75 432.789C680.913 432.789 681.056 432.926 681.056 433.106C681.056 433.106 681.056 433.106 681.056 433.106L681.009 457.581C681 460.913 679.675 464.101 677.332 466.448C677.332 466.448 677.332 466.448 677.332 466.448L640.463 503.372Z" stroke="#FD8B0E" stroke-width="0.9"/>
<path d="M561.043 350.134L560.725 349.816L561.043 350.134C563.396 347.777 566.595 346.45 569.921 346.45L594.41 346.45C594.581 346.45 594.716 346.584 594.716 346.758L594.716 367.604C594.716 367.777 594.581 367.912 594.41 367.912L549.176 367.912C545.005 367.912 541.63 371.294 541.63 375.47L541.63 420.409C541.63 420.582 541.495 420.716 541.324 420.716L520.756 420.716C520.593 420.716 520.45 420.58 520.45 420.4C520.45 420.399 520.45 420.399 520.45 420.399L520.497 395.925C520.506 392.592 521.831 389.405 524.174 387.057C524.174 387.057 524.174 387.057 524.174 387.057L561.043 350.134Z" stroke="#009A08" stroke-width="0.9"/>
<path d="M524.315 466.462L523.997 466.781L524.315 466.462C521.959 464.11 520.632 460.91 520.632 457.585L520.632 433.096C520.632 432.925 520.766 432.789 520.939 432.789L541.786 432.789C541.959 432.789 542.093 432.925 542.093 433.096L542.093 478.33C542.093 482.5 545.475 485.875 549.651 485.875L594.59 485.875C594.763 485.875 594.898 486.011 594.898 486.182L594.898 506.749C594.898 506.913 594.761 507.055 594.581 507.055C594.581 507.055 594.581 507.055 594.581 507.055L570.106 507.009C566.774 507 563.587 505.675 561.239 503.331C561.239 503.331 561.239 503.331 561.239 503.331L524.315 466.462Z" stroke="#081224" stroke-width="0.9"/>
<path d="M351.134 466.462L350.816 466.781L351.134 466.462C348.777 464.11 347.45 460.91 347.45 457.585L347.45 433.096C347.45 432.925 347.584 432.789 347.758 432.789L368.604 432.789C368.777 432.789 368.912 432.925 368.912 433.096L368.912 478.33C368.912 482.5 372.294 485.875 376.47 485.875L421.408 485.875C421.582 485.875 421.716 486.011 421.716 486.181L421.716 506.749C421.716 506.913 421.58 507.055 421.399 507.055C421.399 507.055 421.399 507.055 421.399 507.055L396.925 507.009C393.592 507 390.405 505.674 388.057 503.331C388.057 503.331 388.057 503.331 388.057 503.331L351.134 466.462Z" stroke="#081224" stroke-width="0.9"/>
<path d="M504.372 387.043L504.69 386.725L504.372 387.043C506.729 389.396 508.056 392.595 508.056 395.921L508.056 420.41C508.056 420.581 507.921 420.716 507.748 420.716L486.902 420.716C486.729 420.716 486.594 420.581 486.594 420.41L486.594 375.176C486.594 371.005 483.212 367.63 479.036 367.63L434.097 367.63C433.924 367.63 433.79 367.495 433.79 367.324L433.79 346.756C433.79 346.593 433.926 346.45 434.106 346.45C434.107 346.45 434.107 346.45 434.107 346.45L458.581 346.497C461.913 346.506 465.101 347.831 467.448 350.174C467.448 350.174 467.448 350.174 467.448 350.174L504.372 387.043Z" stroke="#081224" stroke-width="0.9"/>
<path d="M504.372 466.462L504.69 466.781L504.372 466.462C506.729 464.11 508.056 460.91 508.056 457.585L508.056 433.096C508.056 432.925 507.921 432.789 507.748 432.789L486.902 432.789C486.729 432.789 486.594 432.925 486.594 433.096L486.594 478.33C486.594 482.5 483.212 485.875 479.036 485.875L434.097 485.875C433.924 485.875 433.79 486.011 433.79 486.181L433.79 506.749C433.79 506.913 433.926 507.055 434.106 507.055C434.107 507.055 434.107 507.055 434.107 507.055L458.581 507.009C461.913 507 465.101 505.674 467.448 503.331C467.448 503.331 467.448 503.331 467.448 503.331L504.372 466.462Z" stroke="#FD8B0E" stroke-width="0.9"/>
<path d="M351.134 387.043L350.816 386.725L351.134 387.043C348.777 389.396 347.45 392.595 347.45 395.921L347.45 420.41C347.45 420.581 347.584 420.716 347.757 420.716L368.604 420.716C368.777 420.716 368.912 420.581 368.912 420.41L368.912 375.176C368.912 371.005 372.294 367.63 376.47 367.63L421.408 367.63C421.582 367.63 421.716 367.495 421.716 367.324L421.716 346.756C421.716 346.593 421.58 346.45 421.399 346.45C421.399 346.45 421.399 346.45 421.399 346.45L396.925 346.497C393.592 346.506 390.405 347.831 388.057 350.174C388.057 350.174 388.057 350.174 388.057 350.174L351.134 387.043Z" stroke="#009A08" stroke-width="0.9"/>
<path d="M850.372 41.0431L850.69 40.7247L850.372 41.0431C852.729 43.3956 854.056 46.5954 854.056 49.9209L854.056 74.4098C854.056 74.5807 853.921 74.7161 853.748 74.7161L832.902 74.7161C832.729 74.7161 832.594 74.5807 832.594 74.4098L832.594 29.1758C832.594 25.0053 829.212 21.6302 825.036 21.6302L780.097 21.6302C779.924 21.6302 779.79 21.4948 779.79 21.324L779.79 0.756235C779.79 0.592627 779.926 0.450182 780.106 0.45C780.107 0.45 780.107 0.45 780.107 0.45L804.581 0.496684C807.913 0.5057 811.101 1.83094 813.448 4.17431C813.448 4.17432 813.448 4.17433 813.448 4.17435L850.372 41.0431Z" stroke="#081224" stroke-width="0.9"/>
<path d="M850.372 120.462L850.69 120.781L850.372 120.462C852.729 118.11 854.056 114.91 854.056 111.585L854.056 87.0956C854.056 86.9248 853.921 86.7894 853.748 86.7894L832.902 86.7894C832.729 86.7894 832.594 86.9248 832.594 87.0956L832.594 132.33C832.594 136.5 829.212 139.875 825.036 139.875L780.097 139.875C779.924 139.875 779.79 140.011 779.79 140.181L779.79 160.749C779.79 160.913 779.926 161.055 780.106 161.055C780.107 161.055 780.107 161.055 780.107 161.055L804.581 161.009C807.913 161 811.101 159.675 813.448 157.331C813.448 157.331 813.448 157.331 813.448 157.331L850.372 120.462Z" stroke="#FD8B0E" stroke-width="0.9"/>
<path d="M697.134 41.0431L696.816 40.7247L697.134 41.0431C694.777 43.3956 693.45 46.5954 693.45 49.9209V74.4098C693.45 74.5807 693.584 74.7161 693.757 74.7161L714.604 74.7161C714.777 74.7161 714.912 74.5807 714.912 74.4098L714.912 29.1757C714.912 25.0053 718.294 21.6302 722.47 21.6302L767.408 21.6302C767.582 21.6302 767.716 21.4948 767.716 21.324L767.716 0.756235C767.716 0.592627 767.58 0.450182 767.399 0.45C767.399 0.45 767.399 0.45 767.399 0.45L742.925 0.49668C739.592 0.505695 736.405 1.83094 734.057 4.1743C734.057 4.17431 734.057 4.17433 734.057 4.17434L697.134 41.0431Z" stroke="#009A08" stroke-width="0.9"/>
<path d="M697.134 293.462L696.816 293.781L697.134 293.462C694.777 291.11 693.45 287.91 693.45 284.585L693.45 260.096C693.45 259.925 693.584 259.789 693.758 259.789L714.604 259.789C714.777 259.789 714.912 259.925 714.912 260.096L714.912 305.33C714.912 309.5 718.294 312.875 722.47 312.875L767.408 312.875C767.582 312.875 767.716 313.011 767.716 313.181L767.716 333.749C767.716 333.913 767.58 334.055 767.399 334.055C767.399 334.055 767.399 334.055 767.399 334.055L742.925 334.009C739.592 334 736.405 332.675 734.057 330.331C734.057 330.331 734.057 330.331 734.057 330.331L697.134 293.462Z" stroke="#081224" stroke-width="0.9"/>
<path d="M850.372 214.043L850.69 213.725L850.372 214.043C852.729 216.396 854.056 219.595 854.056 222.921L854.056 247.41C854.056 247.581 853.921 247.716 853.748 247.716L832.902 247.716C832.729 247.716 832.594 247.581 832.594 247.41L832.594 202.176C832.594 198.005 829.212 194.63 825.036 194.63L780.097 194.63C779.924 194.63 779.79 194.495 779.79 194.324L779.79 173.756C779.79 173.593 779.926 173.45 780.106 173.45C780.107 173.45 780.107 173.45 780.107 173.45L804.581 173.497C807.913 173.506 811.101 174.831 813.448 177.174C813.448 177.174 813.448 177.174 813.448 177.174L850.372 214.043Z" stroke="#081224" stroke-width="0.9"/>
<path d="M850.372 293.462L850.69 293.781L850.372 293.462C852.729 291.11 854.056 287.91 854.056 284.585L854.056 260.096C854.056 259.925 853.921 259.789 853.748 259.789L832.902 259.789C832.729 259.789 832.594 259.925 832.594 260.096L832.594 305.33C832.594 309.5 829.212 312.875 825.036 312.875L780.097 312.875C779.924 312.875 779.79 313.011 779.79 313.181L779.79 333.749C779.79 333.913 779.926 334.055 780.106 334.055C780.107 334.055 780.107 334.055 780.107 334.055L804.581 334.009C807.913 334 811.101 332.675 813.448 330.331C813.448 330.331 813.448 330.331 813.448 330.331L850.372 293.462Z" stroke="#FD8B0E" stroke-width="0.9"/>
<path d="M697.134 214.043L696.816 213.725L697.134 214.043C694.777 216.396 693.45 219.595 693.45 222.921V247.41C693.45 247.581 693.584 247.716 693.757 247.716L714.604 247.716C714.777 247.716 714.912 247.581 714.912 247.41L714.912 202.176C714.912 198.005 718.294 194.63 722.47 194.63L767.408 194.63C767.582 194.63 767.716 194.495 767.716 194.324L767.716 173.756C767.716 173.593 767.58 173.45 767.399 173.45C767.399 173.45 767.399 173.45 767.399 173.45L742.925 173.497C739.592 173.506 736.405 174.831 734.057 177.174C734.057 177.174 734.057 177.174 734.057 177.174L697.134 214.043Z" stroke="#009A08" stroke-width="0.9"/>
<path d="M524.134 293.462L523.816 293.781L524.134 293.462C521.777 291.11 520.45 287.91 520.45 284.585L520.45 260.096C520.45 259.925 520.584 259.789 520.758 259.789L541.604 259.789C541.777 259.789 541.912 259.925 541.912 260.096L541.912 305.33C541.912 309.5 545.294 312.875 549.47 312.875L594.408 312.875C594.582 312.875 594.716 313.011 594.716 313.181L594.716 333.749C594.716 333.913 594.58 334.055 594.399 334.055C594.399 334.055 594.399 334.055 594.399 334.055L569.925 334.009C566.592 334 563.405 332.675 561.057 330.331C561.057 330.331 561.057 330.331 561.057 330.331L524.134 293.462Z" stroke="#081224" stroke-width="0.9"/>
<path d="M677.372 214.043L677.69 213.725L677.372 214.043C679.729 216.396 681.056 219.595 681.056 222.921L681.056 247.41C681.056 247.581 680.921 247.716 680.748 247.716L659.902 247.716C659.729 247.716 659.594 247.581 659.594 247.41L659.594 202.176C659.594 198.005 656.212 194.63 652.036 194.63L607.097 194.63C606.924 194.63 606.79 194.495 606.79 194.324L606.79 173.756C606.79 173.593 606.926 173.45 607.106 173.45C607.107 173.45 607.107 173.45 607.107 173.45L631.581 173.497C634.913 173.506 638.101 174.831 640.448 177.174C640.448 177.174 640.448 177.174 640.448 177.174L677.372 214.043Z" stroke="#081224" stroke-width="0.9"/>
<path d="M677.372 293.462L677.69 293.781L677.372 293.462C679.729 291.11 681.056 287.91 681.056 284.585L681.056 260.096C681.056 259.925 680.921 259.789 680.748 259.789L659.902 259.789C659.729 259.789 659.594 259.925 659.594 260.096L659.594 305.33C659.594 309.5 656.212 312.875 652.036 312.875L607.097 312.875C606.924 312.875 606.79 313.011 606.79 313.181L606.79 333.749C606.79 333.913 606.926 334.055 607.106 334.055C607.107 334.055 607.107 334.055 607.107 334.055L631.581 334.009C634.913 334 638.101 332.675 640.448 330.331C640.448 330.331 640.448 330.331 640.448 330.331L677.372 293.462Z" stroke="#FD8B0E" stroke-width="0.9"/>
<path d="M524.134 214.043L523.816 213.725L524.134 214.043C521.777 216.396 520.45 219.595 520.45 222.921V247.41C520.45 247.581 520.584 247.716 520.757 247.716L541.604 247.716C541.777 247.716 541.912 247.581 541.912 247.41L541.912 202.176C541.912 198.005 545.294 194.63 549.47 194.63L594.408 194.63C594.582 194.63 594.716 194.495 594.716 194.324L594.716 173.756C594.716 173.593 594.58 173.45 594.399 173.45C594.399 173.45 594.399 173.45 594.399 173.45L569.925 173.497C566.592 173.506 563.405 174.831 561.057 177.174C561.057 177.174 561.057 177.174 561.057 177.174L524.134 214.043Z" stroke="#009A08" stroke-width="0.9"/>
<path d="M351.134 293.462L350.816 293.781L351.134 293.462C348.777 291.11 347.45 287.91 347.45 284.585L347.45 260.096C347.45 259.925 347.584 259.789 347.758 259.789L368.604 259.789C368.777 259.789 368.912 259.925 368.912 260.096L368.912 305.33C368.912 309.5 372.294 312.875 376.47 312.875L421.408 312.875C421.582 312.875 421.716 313.011 421.716 313.181L421.716 333.749C421.716 333.913 421.58 334.055 421.399 334.055C421.399 334.055 421.399 334.055 421.399 334.055L396.925 334.009C393.592 334 390.405 332.675 388.057 330.331C388.057 330.331 388.057 330.331 388.057 330.331L351.134 293.462Z" stroke="#081224" stroke-width="0.9"/>
<path d="M504.372 214.043L504.69 213.725L504.372 214.043C506.729 216.396 508.056 219.595 508.056 222.921L508.056 247.41C508.056 247.581 507.921 247.716 507.748 247.716L486.902 247.716C486.729 247.716 486.594 247.581 486.594 247.41L486.594 202.176C486.594 198.005 483.212 194.63 479.036 194.63L434.097 194.63C433.924 194.63 433.79 194.495 433.79 194.324L433.79 173.756C433.79 173.593 433.926 173.45 434.106 173.45C434.107 173.45 434.107 173.45 434.107 173.45L458.581 173.497C461.913 173.506 465.101 174.831 467.448 177.174C467.448 177.174 467.448 177.174 467.448 177.174L504.372 214.043Z" stroke="#081224" stroke-width="0.9"/>
<path d="M504.372 293.462L504.69 293.781L504.372 293.462C506.729 291.11 508.056 287.91 508.056 284.585L508.056 260.096C508.056 259.925 507.921 259.789 507.748 259.789L486.902 259.789C486.729 259.789 486.594 259.925 486.594 260.096L486.594 305.33C486.594 309.5 483.212 312.875 479.036 312.875L434.097 312.875C433.924 312.875 433.79 313.011 433.79 313.181L433.79 333.749C433.79 333.913 433.926 334.055 434.106 334.055C434.107 334.055 434.107 334.055 434.107 334.055L458.581 334.009C461.913 334 465.101 332.675 467.448 330.331C467.448 330.331 467.448 330.331 467.448 330.331L504.372 293.462Z" stroke="#FD8B0E" stroke-width="0.9"/>
<path d="M351.134 214.043L350.816 213.725L351.134 214.043C348.777 216.396 347.45 219.595 347.45 222.921L347.45 247.41C347.45 247.581 347.584 247.716 347.757 247.716L368.604 247.716C368.777 247.716 368.912 247.581 368.912 247.41L368.912 202.176C368.912 198.005 372.294 194.63 376.47 194.63L421.408 194.63C421.582 194.63 421.716 194.495 421.716 194.324L421.716 173.756C421.716 173.593 421.58 173.45 421.399 173.45C421.399 173.45 421.399 173.45 421.399 173.45L396.925 173.497C393.592 173.506 390.405 174.831 388.057 177.174C388.057 177.174 388.057 177.174 388.057 177.174L351.134 214.043Z" stroke="#009A08" stroke-width="0.9"/>
<path d="M524.134 120.462L523.816 120.781L524.134 120.462C521.777 118.11 520.45 114.91 520.45 111.585L520.45 87.0956C520.45 86.9248 520.584 86.7894 520.758 86.7894L541.604 86.7894C541.777 86.7894 541.912 86.9248 541.912 87.0956L541.912 132.33C541.912 136.5 545.294 139.875 549.47 139.875L594.408 139.875C594.582 139.875 594.716 140.011 594.716 140.181L594.716 160.749C594.716 160.913 594.58 161.055 594.399 161.055C594.399 161.055 594.399 161.055 594.399 161.055L569.925 161.009C566.592 161 563.405 159.675 561.057 157.331C561.057 157.331 561.057 157.331 561.057 157.331L524.134 120.462Z" stroke="#081224" stroke-width="0.9"/>
<path d="M677.372 41.0431L677.69 40.7247L677.372 41.0431C679.729 43.3956 681.056 46.5954 681.056 49.9209L681.056 74.4098C681.056 74.5807 680.921 74.7161 680.748 74.7161L659.902 74.7161C659.729 74.7161 659.594 74.5807 659.594 74.4098L659.594 29.1758C659.594 25.0053 656.212 21.6302 652.036 21.6302L607.097 21.6302C606.924 21.6302 606.79 21.4948 606.79 21.324L606.79 0.756235C606.79 0.592627 606.926 0.450182 607.106 0.45C607.107 0.45 607.107 0.45 607.107 0.45L631.581 0.496684C634.913 0.5057 638.101 1.83094 640.448 4.17431C640.448 4.17432 640.448 4.17433 640.448 4.17435L677.372 41.0431Z" stroke="#081224" stroke-width="0.9"/>
<path d="M677.372 120.462L677.69 120.781L677.372 120.462C679.729 118.11 681.056 114.91 681.056 111.585L681.056 87.0956C681.056 86.9248 680.921 86.7894 680.748 86.7894L659.902 86.7894C659.729 86.7894 659.594 86.9248 659.594 87.0956L659.594 132.33C659.594 136.5 656.212 139.875 652.036 139.875L607.097 139.875C606.924 139.875 606.79 140.011 606.79 140.181L606.79 160.749C606.79 160.913 606.926 161.055 607.106 161.055C607.107 161.055 607.107 161.055 607.107 161.055L631.581 161.009C634.913 161 638.101 159.675 640.448 157.331C640.448 157.331 640.448 157.331 640.448 157.331L677.372 120.462Z" stroke="#FD8B0E" stroke-width="0.9"/>
<path d="M524.134 41.0431L523.816 40.7247L524.134 41.0431C521.777 43.3956 520.45 46.5954 520.45 49.9209V74.4098C520.45 74.5807 520.584 74.7161 520.757 74.7161L541.604 74.7161C541.777 74.7161 541.912 74.5807 541.912 74.4098L541.912 29.1757C541.912 25.0053 545.294 21.6302 549.47 21.6302L594.408 21.6302C594.582 21.6302 594.716 21.4948 594.716 21.324L594.716 0.756235C594.716 0.592627 594.58 0.450182 594.399 0.45C594.399 0.45 594.399 0.45 594.399 0.45L569.925 0.49668C566.592 0.505695 563.405 1.83094 561.057 4.1743C561.057 4.17431 561.057 4.17433 561.057 4.17434L524.134 41.0431Z" stroke="#009A08" stroke-width="0.9"/>
<path d="M351.134 120.462L350.816 120.781L351.134 120.462C348.777 118.11 347.45 114.91 347.45 111.585L347.45 87.0956C347.45 86.9248 347.584 86.7894 347.758 86.7894L368.604 86.7894C368.777 86.7894 368.912 86.9248 368.912 87.0956L368.912 132.33C368.912 136.5 372.294 139.875 376.47 139.875L421.408 139.875C421.582 139.875 421.716 140.011 421.716 140.181L421.716 160.749C421.716 160.913 421.58 161.055 421.399 161.055C421.399 161.055 421.399 161.055 421.399 161.055L396.925 161.009C393.592 161 390.405 159.675 388.057 157.331C388.057 157.331 388.057 157.331 388.057 157.331L351.134 120.462Z" stroke="#081224" stroke-width="0.9"/>
<path d="M504.372 41.0431L504.69 40.7247L504.372 41.0431C506.729 43.3956 508.056 46.5954 508.056 49.9209L508.056 74.4098C508.056 74.5807 507.921 74.7161 507.748 74.7161L486.902 74.7161C486.729 74.7161 486.594 74.5807 486.594 74.4098L486.594 29.1758C486.594 25.0053 483.212 21.6302 479.036 21.6302L434.097 21.6302C433.924 21.6302 433.79 21.4948 433.79 21.324L433.79 0.756235C433.79 0.592627 433.926 0.450182 434.106 0.45C434.107 0.45 434.107 0.45 434.107 0.45L458.581 0.496684C461.913 0.5057 465.101 1.83094 467.448 4.17431C467.448 4.17432 467.448 4.17433 467.448 4.17435L504.372 41.0431Z" stroke="#081224" stroke-width="0.9"/>
<path d="M504.372 120.462L504.69 120.781L504.372 120.462C506.729 118.11 508.056 114.91 508.056 111.585L508.056 87.0956C508.056 86.9248 507.921 86.7894 507.748 86.7894L486.902 86.7894C486.729 86.7894 486.594 86.9248 486.594 87.0956L486.594 132.33C486.594 136.5 483.212 139.875 479.036 139.875L434.097 139.875C433.924 139.875 433.79 140.011 433.79 140.181L433.79 160.749C433.79 160.913 433.926 161.055 434.106 161.055C434.107 161.055 434.107 161.055 434.107 161.055L458.581 161.009C461.913 161 465.101 159.675 467.448 157.331C467.448 157.331 467.448 157.331 467.448 157.331L504.372 120.462Z" stroke="#FD8B0E" stroke-width="0.9"/>
<path d="M351.134 41.0431L350.816 40.7247L351.134 41.0431C348.777 43.3956 347.45 46.5954 347.45 49.9209L347.45 74.4098C347.45 74.5807 347.584 74.7161 347.757 74.7161L368.604 74.7161C368.777 74.7161 368.912 74.5807 368.912 74.4098L368.912 29.1757C368.912 25.0053 372.294 21.6302 376.47 21.6302L421.408 21.6302C421.582 21.6302 421.716 21.4948 421.716 21.324L421.716 0.756235C421.716 0.592627 421.58 0.450182 421.399 0.45C421.399 0.45 421.399 0.45 421.399 0.45L396.925 0.49668C393.592 0.505695 390.405 1.83094 388.057 4.1743C388.057 4.17431 388.057 4.17433 388.057 4.17434L351.134 41.0431Z" stroke="#009A08" stroke-width="0.9"/>
<path d="M178.134 466.462L177.816 466.781L178.134 466.462C175.777 464.11 174.45 460.91 174.45 457.585L174.45 433.096C174.45 432.925 174.584 432.789 174.758 432.789L195.604 432.789C195.777 432.789 195.912 432.925 195.912 433.096L195.912 478.33C195.912 482.5 199.294 485.875 203.47 485.875L248.408 485.875C248.582 485.875 248.716 486.011 248.716 486.182L248.716 506.749C248.716 506.913 248.58 507.055 248.399 507.055C248.399 507.055 248.399 507.055 248.399 507.055L223.925 507.009C220.592 507 217.405 505.675 215.057 503.331C215.057 503.331 215.057 503.331 215.057 503.331L178.134 466.462Z" stroke="#081224" stroke-width="0.9"/>
<path d="M331.372 387.043L331.69 386.725L331.372 387.043C333.729 389.396 335.056 392.595 335.056 395.921L335.056 420.41C335.056 420.581 334.921 420.716 334.748 420.716L313.902 420.716C313.729 420.716 313.594 420.581 313.594 420.41L313.594 375.176C313.594 371.005 310.212 367.63 306.036 367.63L261.097 367.63C260.924 367.63 260.79 367.495 260.79 367.324L260.79 346.756C260.79 346.593 260.926 346.45 261.106 346.45C261.107 346.45 261.107 346.45 261.107 346.45L285.581 346.497C288.913 346.506 292.101 347.831 294.448 350.174C294.448 350.174 294.448 350.174 294.448 350.174L331.372 387.043Z" stroke="#081224" stroke-width="0.9"/>
<path d="M331.372 466.462L331.69 466.781L331.372 466.462C333.729 464.11 335.056 460.91 335.056 457.585L335.056 433.096C335.056 432.925 334.921 432.789 334.748 432.789L313.902 432.789C313.729 432.789 313.594 432.925 313.594 433.096L313.594 478.33C313.594 482.5 310.212 485.875 306.036 485.875L261.097 485.875C260.924 485.875 260.79 486.011 260.79 486.182L260.79 506.749C260.79 506.913 260.926 507.055 261.106 507.055C261.107 507.055 261.107 507.055 261.107 507.055L285.581 507.009C288.913 507 292.101 505.675 294.448 503.331C294.448 503.331 294.448 503.331 294.448 503.331L331.372 466.462Z" stroke="#FD8B0E" stroke-width="0.9"/>
<path d="M178.134 387.043L177.816 386.725L178.134 387.043C175.777 389.396 174.45 392.595 174.45 395.921L174.45 420.41C174.45 420.581 174.584 420.716 174.757 420.716L195.604 420.716C195.777 420.716 195.912 420.581 195.912 420.41L195.912 375.176C195.912 371.005 199.294 367.63 203.47 367.63L248.408 367.63C248.582 367.63 248.716 367.495 248.716 367.324L248.716 346.756C248.716 346.593 248.58 346.45 248.399 346.45C248.399 346.45 248.399 346.45 248.399 346.45L223.925 346.497C220.592 346.506 217.405 347.831 215.057 350.174C215.057 350.174 215.057 350.174 215.057 350.174L178.134 387.043Z" stroke="#009A08" stroke-width="0.9"/>
<path d="M4.13374 466.462L3.81578 466.781L4.1337 466.462C1.77719 464.11 0.449948 460.91 0.449948 457.585L0.44995 433.096C0.44995 432.925 0.584433 432.789 0.757506 432.789L21.6042 432.789C21.7773 432.789 21.9118 432.925 21.9118 433.096L21.9118 478.33C21.9118 482.5 25.2938 485.875 29.4697 485.875L74.4085 485.875C74.5815 485.875 74.716 486.011 74.716 486.182L74.716 506.749C74.716 506.913 74.5796 507.055 74.3995 507.055C74.3993 507.055 74.3992 507.055 74.3991 507.055L49.9248 507.009C46.5924 507 43.4049 505.675 41.0574 503.331C41.0574 503.331 41.0574 503.331 41.0574 503.331L4.13374 466.462Z" stroke="#081224" stroke-width="0.9"/>
<path d="M157.372 387.043L157.69 386.725L157.372 387.043C159.729 389.396 161.056 392.595 161.056 395.921L161.056 420.41C161.056 420.581 160.921 420.716 160.748 420.716L139.902 420.716C139.729 420.716 139.594 420.581 139.594 420.41L139.594 375.176C139.594 371.005 136.212 367.63 132.036 367.63L87.0974 367.63C86.9243 367.63 86.7898 367.495 86.7898 367.324L86.7898 346.756C86.7898 346.593 86.9263 346.45 87.1064 346.45C87.1065 346.45 87.1066 346.45 87.1067 346.45L111.581 346.497C114.913 346.506 118.101 347.831 120.448 350.174C120.448 350.174 120.448 350.174 120.448 350.174L157.372 387.043Z" stroke="#081224" stroke-width="0.9"/>
<path d="M157.372 466.462L157.69 466.781L157.372 466.462C159.729 464.11 161.056 460.91 161.056 457.585L161.056 433.096C161.056 432.925 160.921 432.789 160.748 432.789L139.902 432.789C139.729 432.789 139.594 432.925 139.594 433.096L139.594 478.33C139.594 482.5 136.212 485.875 132.036 485.875L87.0974 485.875C86.9243 485.875 86.7898 486.011 86.7898 486.182L86.7898 506.749C86.7898 506.913 86.9263 507.055 87.1064 507.055C87.1065 507.055 87.1066 507.055 87.1067 507.055L111.581 507.009C114.913 507 118.101 505.675 120.448 503.331C120.448 503.331 120.448 503.331 120.448 503.331L157.372 466.462Z" stroke="#FD8B0E" stroke-width="0.9"/>
<path d="M4.13374 387.043L3.81578 386.725L4.13371 387.043C1.77719 389.396 0.449951 392.595 0.449951 395.921L0.449951 420.41C0.449951 420.581 0.584435 420.716 0.7575 420.716L21.6042 420.716C21.7773 420.716 21.9118 420.581 21.9118 420.41L21.9118 375.176C21.9118 371.005 25.2938 367.63 29.4697 367.63L74.4085 367.63C74.5815 367.63 74.716 367.495 74.716 367.324L74.716 346.756C74.716 346.593 74.5796 346.45 74.3995 346.45C74.3993 346.45 74.3992 346.45 74.3991 346.45L49.9248 346.497C46.5924 346.506 43.4049 347.831 41.0574 350.174C41.0574 350.174 41.0574 350.174 41.0574 350.174L4.13374 387.043Z" stroke="#009A08" stroke-width="0.9"/>
<path d="M697.134 466.462L696.816 466.781L697.134 466.462C694.777 464.11 693.45 460.91 693.45 457.585L693.45 433.096C693.45 432.925 693.584 432.789 693.758 432.789L714.604 432.789C714.777 432.789 714.912 432.925 714.912 433.096L714.912 478.33C714.912 482.5 718.294 485.875 722.47 485.875L767.408 485.875C767.582 485.875 767.716 486.011 767.716 486.182L767.716 506.749C767.716 506.913 767.58 507.055 767.399 507.055C767.399 507.055 767.399 507.055 767.399 507.055L742.925 507.009C739.592 507 736.405 505.675 734.057 503.331C734.057 503.331 734.057 503.331 734.057 503.331L697.134 466.462Z" stroke="#081224" stroke-width="0.9"/>
<path d="M850.372 387.043L850.69 386.725L850.372 387.043C852.729 389.396 854.056 392.595 854.056 395.921L854.056 420.41C854.056 420.581 853.921 420.716 853.748 420.716L832.902 420.716C832.729 420.716 832.594 420.581 832.594 420.41L832.594 375.176C832.594 371.005 829.212 367.63 825.036 367.63L780.097 367.63C779.924 367.63 779.79 367.495 779.79 367.324L779.79 346.756C779.79 346.593 779.926 346.45 780.106 346.45C780.107 346.45 780.107 346.45 780.107 346.45L804.581 346.497C807.913 346.506 811.101 347.831 813.448 350.174C813.448 350.174 813.448 350.174 813.448 350.174L850.372 387.043Z" stroke="#081224" stroke-width="0.9"/>
<path d="M850.372 466.462L850.69 466.781L850.372 466.462C852.729 464.11 854.056 460.91 854.056 457.585L854.056 433.096C854.056 432.925 853.921 432.789 853.748 432.789L832.902 432.789C832.729 432.789 832.594 432.925 832.594 433.096L832.594 478.33C832.594 482.5 829.212 485.875 825.036 485.875L780.097 485.875C779.924 485.875 779.79 486.011 779.79 486.182L779.79 506.749C779.79 506.913 779.926 507.055 780.106 507.055C780.107 507.055 780.107 507.055 780.107 507.055L804.581 507.009C807.913 507 811.101 505.675 813.448 503.331C813.448 503.331 813.448 503.331 813.448 503.331L850.372 466.462Z" stroke="#FD8B0E" stroke-width="0.9"/>
<path d="M697.134 387.043L696.816 386.725L697.134 387.043C694.777 389.396 693.45 392.595 693.45 395.921V420.41C693.45 420.581 693.584 420.716 693.757 420.716L714.604 420.716C714.777 420.716 714.912 420.581 714.912 420.41L714.912 375.176C714.912 371.005 718.294 367.63 722.47 367.63L767.408 367.63C767.582 367.63 767.716 367.495 767.716 367.324L767.716 346.756C767.716 346.593 767.58 346.45 767.399 346.45C767.399 346.45 767.399 346.45 767.399 346.45L742.925 346.497C739.592 346.506 736.405 347.831 734.057 350.174C734.057 350.174 734.057 350.174 734.057 350.174L697.134 387.043Z" stroke="#009A08" stroke-width="0.9"/>
</svg>
