<svg width="86" height="87" viewBox="0 0 86 87" fill="none" xmlns="http://www.w3.org/2000/svg">
<path d="M37.9777 18.8195L37.9778 18.8195C39.1861 17.6132 39.8667 15.9723 39.8667 14.2673L39.8667 1.29931L28.937 1.29931L28.937 25.3345C28.937 27.7034 27.0159 29.6199 24.645 29.6199L0.766601 29.6199L0.766602 40.3992L13.7317 40.3745C13.7318 40.3745 13.7318 40.3745 13.7319 40.3745C15.4411 40.3698 17.0758 39.6901 18.2794 38.4885C18.2794 38.4885 18.2795 38.4885 18.2795 38.4885L37.9777 18.8195Z" stroke="#FD8B0E"/>
<path d="M48.2889 18.8195L48.2888 18.8195C47.0805 17.6132 46.3999 15.9723 46.3999 14.2673L46.3999 1.29931L57.3296 1.29931L57.3296 25.3345C57.3296 27.7034 59.2507 29.6199 61.6216 29.6199L85.5 29.6199L85.5 40.3992L72.5349 40.3745C72.5348 40.3745 72.5348 40.3745 72.5347 40.3745C70.8255 40.3698 69.1908 39.6901 67.9872 38.4885C67.9872 38.4885 67.9871 38.4885 67.9871 38.4885L48.2889 18.8195Z" stroke="#081224"/>
<path d="M37.9777 68.5125L37.9778 68.5126C39.1861 69.7188 39.8667 71.3597 39.8667 73.0647L39.8667 86.0327L28.937 86.0327L28.937 61.9975C28.937 59.6286 27.0159 57.7121 24.645 57.7121L0.7666 57.7121L0.766601 46.9328L13.7317 46.9575C13.7318 46.9575 13.7318 46.9575 13.7319 46.9575C15.4411 46.9622 17.0758 47.6419 18.2794 48.8435C18.2794 48.8435 18.2795 48.8435 18.2795 48.8435L37.9777 68.5125Z" stroke="#081224"/>
<path d="M48.2889 68.5125L48.2888 68.5126C47.0805 69.7188 46.3999 71.3597 46.3999 73.0647L46.3999 86.0327L57.3296 86.0327L57.3296 61.9975C57.3296 59.6286 59.2507 57.7121 61.6216 57.7121L85.5 57.7121L85.5 46.9328L72.5349 46.9575C72.5348 46.9575 72.5348 46.9575 72.5347 46.9575C70.8255 46.9622 69.1908 47.6419 67.9872 48.8435C67.9872 48.8435 67.9871 48.8435 67.9871 48.8435L48.2889 68.5125Z" stroke="#009A08"/>
</svg>
