<svg width="329" height="330" viewBox="0 0 329 330" fill="none" xmlns="http://www.w3.org/2000/svg">
<path d="M226.937 78.1159L226.937 78.1159C225.419 76.6005 224.564 74.5392 224.564 72.397L224.564 56.5084C224.564 56.4297 224.625 56.3677 224.706 56.3677L238.231 56.3677C238.311 56.3677 238.373 56.4297 238.373 56.5084L238.373 85.8566C238.373 88.5946 240.593 90.8103 243.334 90.8103L272.491 90.8103C272.571 90.8103 272.632 90.8722 272.632 90.951L272.632 104.295C272.632 104.369 272.571 104.436 272.485 104.436C272.485 104.436 272.485 104.436 272.485 104.436L256.606 104.406C254.459 104.4 252.406 103.546 250.893 102.037L226.937 78.1159Z" stroke="#081224" stroke-width="0.7"/>
<path d="M214.034 251.158L214.034 251.158C215.552 252.673 216.407 254.735 216.407 256.877L216.407 272.766C216.407 272.844 216.346 272.906 216.265 272.906L202.74 272.906C202.659 272.906 202.598 272.844 202.598 272.766L202.598 243.417C202.598 240.679 200.378 238.464 197.636 238.464L168.48 238.464C168.399 238.464 168.338 238.402 168.338 238.323L168.338 224.979C168.338 224.905 168.4 224.838 168.486 224.838C168.486 224.838 168.486 224.838 168.486 224.838L184.365 224.868C186.512 224.874 188.565 225.728 190.077 227.237L214.034 251.158Z" stroke="#081224" stroke-width="0.7"/>
<path d="M190.086 326.551L190.086 326.551C188.57 328.069 186.509 328.924 184.367 328.924L168.478 328.924C168.399 328.924 168.337 328.863 168.337 328.783L168.337 315.257C168.337 315.177 168.399 315.115 168.478 315.115L197.826 315.115C200.564 315.115 202.78 312.895 202.78 310.154L202.78 280.997C202.78 280.917 202.842 280.856 202.921 280.856L216.265 280.856C216.338 280.856 216.406 280.917 216.406 281.003C216.406 281.003 216.406 281.003 216.406 281.003L216.376 296.882C216.37 299.029 215.516 301.082 214.006 302.595L190.086 326.551Z" stroke="#FD8B0E" stroke-width="0.7"/>
<path d="M138.639 227.211L138.639 227.211C140.154 225.693 142.216 224.838 144.358 224.838L160.246 224.838C160.325 224.838 160.387 224.899 160.387 224.979L160.387 238.505C160.387 238.585 160.325 238.646 160.246 238.646L130.898 238.646C128.16 238.646 125.945 240.867 125.945 243.608L125.945 272.765C125.945 272.845 125.883 272.906 125.804 272.906L112.459 272.906C112.386 272.906 112.319 272.845 112.319 272.759C112.319 272.759 112.319 272.759 112.319 272.759L112.349 256.88C112.355 254.733 113.209 252.679 114.718 251.167L138.639 227.211Z" stroke="#009A08" stroke-width="0.7"/>
<path d="M114.81 302.604L114.81 302.604C113.292 301.088 112.437 299.027 112.437 296.885L112.437 280.996C112.437 280.918 112.498 280.856 112.579 280.856L126.104 280.856C126.184 280.856 126.246 280.918 126.246 280.996L126.246 310.345C126.246 313.083 128.466 315.298 131.207 315.298L160.364 315.298C160.444 315.298 160.505 315.36 160.505 315.439L160.505 328.783C160.505 328.856 160.444 328.924 160.358 328.924C160.358 328.924 160.358 328.924 160.358 328.924L144.479 328.894C142.332 328.888 140.279 328.034 138.766 326.525L114.81 302.604Z" stroke="#081224" stroke-width="0.7"/>
<path d="M102.063 251.158L102.063 251.158C103.581 252.673 104.436 254.735 104.436 256.877L104.436 272.766C104.436 272.844 104.375 272.906 104.294 272.906L90.7689 272.906C90.6886 272.906 90.6274 272.844 90.6274 272.766L90.6274 243.417C90.6274 240.679 88.407 238.464 85.6658 238.464L56.5091 238.464C56.4287 238.464 56.3676 238.402 56.3676 238.323L56.3676 224.978C56.3676 224.905 56.4291 224.838 56.5149 224.838C56.515 224.838 56.5151 224.838 56.5152 224.838L72.3941 224.868C74.5409 224.874 76.5944 225.728 78.1066 227.237L102.063 251.158Z" stroke="#081224" stroke-width="0.7"/>
<path d="M78.1169 326.551L78.1169 326.551C76.6015 328.069 74.5402 328.924 72.398 328.924L56.5094 328.924C56.4307 328.924 56.3687 328.863 56.3687 328.783L56.3687 315.257C56.3687 315.177 56.4307 315.115 56.5094 315.115L85.8576 315.115C88.5956 315.115 90.8113 312.895 90.8113 310.154L90.8113 280.997C90.8113 280.917 90.8732 280.856 90.9519 280.856L104.296 280.856C104.37 280.856 104.437 280.917 104.437 281.003C104.437 281.003 104.437 281.003 104.437 281.003L104.407 296.882C104.401 299.029 103.547 301.082 102.038 302.595L78.1169 326.551Z" stroke="#FD8B0E" stroke-width="0.7"/>
<path d="M26.6702 227.211L26.6702 227.211C28.1856 225.693 30.2469 224.838 32.3891 224.838L48.2777 224.838C48.3565 224.838 48.4184 224.899 48.4184 224.979L48.4184 238.505C48.4184 238.585 48.3565 238.646 48.2777 238.646L18.9295 238.646C16.1915 238.646 13.9758 240.867 13.9758 243.608L13.9758 272.765C13.9758 272.845 13.9139 272.906 13.8352 272.906L0.490652 272.906C0.417573 272.906 0.350128 272.845 0.35 272.759C0.35 272.759 0.35 272.759 0.35 272.759L0.380285 256.88C0.386093 254.733 1.23985 252.679 2.74942 251.167L26.6702 227.211Z" stroke="#009A08" stroke-width="0.7"/>
<path d="M2.84135 302.604L2.84132 302.604C1.32329 301.088 0.468306 299.027 0.468307 296.885L0.468308 280.996C0.468308 280.918 0.52948 280.856 0.609814 280.856L14.1354 280.856C14.2157 280.856 14.2769 280.918 14.2769 280.996L14.2769 310.345C14.2769 313.083 16.4973 315.298 19.2385 315.298L48.3952 315.298C48.4755 315.298 48.5367 315.36 48.5367 315.439L48.5367 328.783C48.5367 328.856 48.4752 328.924 48.3894 328.924C48.3893 328.924 48.3892 328.924 48.3891 328.924L32.5102 328.894C30.3634 328.888 28.3099 328.034 26.7977 326.525L2.84135 302.604Z" stroke="#081224" stroke-width="0.7"/>
<path d="M326.278 26.6702L326.278 26.6702C327.796 28.1856 328.651 30.2469 328.651 32.3891L328.651 48.2777C328.651 48.3565 328.59 48.4184 328.509 48.4184L314.984 48.4184C314.903 48.4184 314.842 48.3565 314.842 48.2777L314.842 18.9295C314.842 16.1915 312.622 13.9758 309.881 13.9758L280.724 13.9758C280.644 13.9758 280.582 13.9139 280.582 13.8352L280.582 0.490652C280.582 0.417573 280.644 0.350128 280.73 0.35C280.73 0.35 280.73 0.35 280.73 0.35L296.609 0.380289C298.756 0.386097 300.809 1.23985 302.321 2.74943L326.278 26.6702Z" stroke="#081224" stroke-width="0.7"/>
<path d="M326.278 78.1159L326.278 78.1159C327.796 76.6005 328.651 74.5392 328.651 72.397L328.651 56.5084C328.651 56.4297 328.59 56.3677 328.509 56.3677L314.984 56.3677C314.903 56.3677 314.842 56.4297 314.842 56.5084L314.842 85.8566C314.842 88.5946 312.622 90.8103 309.881 90.8103L280.724 90.8103C280.644 90.8103 280.582 90.8722 280.582 90.951L280.582 104.295C280.582 104.369 280.644 104.436 280.73 104.436C280.73 104.436 280.73 104.436 280.73 104.436L296.609 104.406C298.756 104.4 300.809 103.546 302.321 102.037L326.278 78.1159Z" stroke="#FD8B0E" stroke-width="0.7"/>
<path d="M226.937 26.6702L226.937 26.6702C225.419 28.1856 224.564 30.2469 224.564 32.3891L224.564 48.2777C224.564 48.3565 224.625 48.4184 224.706 48.4184L238.231 48.4184C238.311 48.4184 238.373 48.3565 238.373 48.2777L238.373 18.9295C238.373 16.1915 240.593 13.9758 243.334 13.9758L272.491 13.9758C272.571 13.9758 272.632 13.9139 272.632 13.8352L272.632 0.490652C272.632 0.417573 272.571 0.350128 272.485 0.35C272.485 0.35 272.485 0.35 272.485 0.35L256.606 0.380286C254.459 0.386094 252.406 1.23985 250.893 2.74942L226.937 26.6702Z" stroke="#009A08" stroke-width="0.7"/>
<path d="M226.937 190.36L226.937 190.36C225.419 188.844 224.564 186.783 224.564 184.641L224.564 168.752C224.564 168.674 224.625 168.612 224.706 168.612L238.231 168.612C238.311 168.612 238.373 168.674 238.373 168.752L238.373 198.101C238.373 200.839 240.593 203.054 243.334 203.054L272.491 203.054C272.571 203.054 272.632 203.116 272.632 203.195L272.632 216.539C272.632 216.613 272.571 216.68 272.485 216.68C272.485 216.68 272.485 216.68 272.485 216.68L256.606 216.65C254.459 216.644 252.406 215.79 250.893 214.281L226.937 190.36Z" stroke="#081224" stroke-width="0.7"/>
<path d="M326.278 138.914L326.278 138.914C327.796 140.43 328.651 142.491 328.651 144.633L328.651 160.522C328.651 160.6 328.59 160.662 328.509 160.662L314.984 160.662C314.903 160.662 314.842 160.6 314.842 160.522L314.842 131.173C314.842 128.435 312.622 126.22 309.881 126.22L280.724 126.22C280.644 126.22 280.582 126.158 280.582 126.079L280.582 112.735C280.582 112.662 280.644 112.594 280.73 112.594C280.73 112.594 280.73 112.594 280.73 112.594L296.609 112.624C298.756 112.63 300.809 113.484 302.321 114.993L326.278 138.914Z" stroke="#081224" stroke-width="0.7"/>
<path d="M326.278 190.36L326.278 190.36C327.796 188.844 328.651 186.783 328.651 184.641L328.651 168.752C328.651 168.674 328.59 168.612 328.509 168.612L314.984 168.612C314.903 168.612 314.842 168.674 314.842 168.752L314.842 198.101C314.842 200.839 312.622 203.054 309.881 203.054L280.724 203.054C280.644 203.054 280.582 203.116 280.582 203.195L280.582 216.539C280.582 216.613 280.644 216.68 280.73 216.68C280.73 216.68 280.73 216.68 280.73 216.68L296.609 216.65C298.756 216.644 300.809 215.79 302.321 214.281L326.278 190.36Z" stroke="#FD8B0E" stroke-width="0.7"/>
<path d="M226.937 138.914L226.937 138.914C225.419 140.43 224.564 142.491 224.564 144.633L224.564 160.522C224.564 160.6 224.625 160.662 224.706 160.662L238.231 160.662C238.311 160.662 238.373 160.6 238.373 160.522L238.373 131.173C238.373 128.435 240.593 126.22 243.334 126.22L272.491 126.22C272.571 126.22 272.632 126.158 272.632 126.079L272.632 112.735C272.632 112.662 272.571 112.594 272.485 112.594C272.485 112.594 272.485 112.594 272.485 112.594L256.606 112.624C254.459 112.63 252.406 113.484 250.893 114.993L226.937 138.914Z" stroke="#009A08" stroke-width="0.7"/>
<path d="M114.693 190.36L114.693 190.36C113.175 188.844 112.32 186.783 112.32 184.641L112.32 168.752C112.32 168.674 112.381 168.612 112.461 168.612L125.987 168.612C126.067 168.612 126.128 168.674 126.128 168.752L126.128 198.101C126.128 200.839 128.349 203.054 131.09 203.054L160.247 203.054C160.327 203.054 160.388 203.116 160.388 203.195L160.388 216.539C160.388 216.613 160.327 216.68 160.241 216.68C160.241 216.68 160.241 216.68 160.241 216.68L144.362 216.65C142.215 216.644 140.161 215.79 138.649 214.281L114.693 190.36Z" stroke="#081224" stroke-width="0.7"/>
<path d="M214.034 138.914L214.034 138.914C215.552 140.43 216.407 142.491 216.407 144.633L216.407 160.522C216.407 160.6 216.346 160.662 216.265 160.662L202.74 160.662C202.659 160.662 202.598 160.6 202.598 160.522L202.598 131.173C202.598 128.435 200.378 126.22 197.636 126.22L168.48 126.22C168.399 126.22 168.338 126.158 168.338 126.079L168.338 112.735C168.338 112.662 168.4 112.594 168.486 112.594C168.486 112.594 168.486 112.594 168.486 112.594L184.365 112.624C186.512 112.63 188.565 113.484 190.077 114.993L214.034 138.914Z" stroke="#081224" stroke-width="0.7"/>
<path d="M214.034 190.36L214.034 190.36C215.552 188.844 216.407 186.783 216.407 184.641L216.407 168.752C216.407 168.674 216.346 168.612 216.265 168.612L202.74 168.612C202.659 168.612 202.598 168.674 202.598 168.752L202.598 198.101C202.598 200.839 200.378 203.054 197.636 203.054L168.48 203.054C168.399 203.054 168.338 203.116 168.338 203.195L168.338 216.539C168.338 216.613 168.4 216.68 168.486 216.68C168.486 216.68 168.486 216.68 168.486 216.68L184.365 216.65C186.512 216.644 188.565 215.79 190.077 214.281L214.034 190.36Z" stroke="#FD8B0E" stroke-width="0.7"/>
<path d="M114.693 138.914L114.693 138.914C113.175 140.43 112.32 142.491 112.32 144.633L112.32 160.522C112.32 160.6 112.381 160.662 112.461 160.662L125.987 160.662C126.067 160.662 126.128 160.6 126.128 160.522L126.128 131.173C126.128 128.435 128.349 126.22 131.09 126.22L160.247 126.22C160.327 126.22 160.388 126.158 160.388 126.079L160.388 112.735C160.388 112.662 160.327 112.594 160.241 112.594C160.241 112.594 160.241 112.594 160.241 112.594L144.362 112.624C142.215 112.63 140.161 113.484 138.649 114.993L114.693 138.914Z" stroke="#009A08" stroke-width="0.7"/>
<path d="M114.693 78.1159L114.693 78.1159C113.175 76.6005 112.32 74.5392 112.32 72.397L112.32 56.5084C112.32 56.4297 112.381 56.3677 112.461 56.3677L125.987 56.3677C126.067 56.3677 126.128 56.4297 126.128 56.5084L126.128 85.8566C126.128 88.5946 128.349 90.8103 131.09 90.8103L160.247 90.8103C160.327 90.8103 160.388 90.8722 160.388 90.951L160.388 104.295C160.388 104.369 160.327 104.436 160.241 104.436C160.241 104.436 160.241 104.436 160.241 104.436L144.362 104.406C142.215 104.4 140.161 103.546 138.649 102.037L114.693 78.1159Z" stroke="#081224" stroke-width="0.7"/>
<path d="M214.034 26.6702L214.034 26.6702C215.552 28.1856 216.407 30.2469 216.407 32.3891L216.407 48.2777C216.407 48.3565 216.346 48.4184 216.265 48.4184L202.74 48.4184C202.659 48.4184 202.598 48.3565 202.598 48.2777L202.598 18.9295C202.598 16.1915 200.378 13.9758 197.636 13.9758L168.48 13.9758C168.399 13.9758 168.338 13.9139 168.338 13.8352L168.338 0.490652C168.338 0.417573 168.4 0.350128 168.486 0.35C168.486 0.35 168.486 0.35 168.486 0.35L184.365 0.380289C186.512 0.386097 188.565 1.23985 190.077 2.74943L214.034 26.6702Z" stroke="#081224" stroke-width="0.7"/>
<path d="M214.034 78.1159L214.034 78.1159C215.552 76.6005 216.407 74.5392 216.407 72.397L216.407 56.5084C216.407 56.4297 216.346 56.3677 216.265 56.3677L202.74 56.3677C202.659 56.3677 202.598 56.4297 202.598 56.5084L202.598 85.8566C202.598 88.5946 200.378 90.8103 197.636 90.8103L168.48 90.8103C168.399 90.8103 168.338 90.8722 168.338 90.951L168.338 104.295C168.338 104.369 168.4 104.436 168.486 104.436C168.486 104.436 168.486 104.436 168.486 104.436L184.365 104.406C186.512 104.4 188.565 103.546 190.077 102.037L214.034 78.1159Z" stroke="#FD8B0E" stroke-width="0.7"/>
<path d="M114.693 26.6702L114.693 26.6702C113.175 28.1856 112.32 30.2469 112.32 32.3891L112.32 48.2777C112.32 48.3565 112.381 48.4184 112.461 48.4184L125.987 48.4184C126.067 48.4184 126.128 48.3565 126.128 48.2777L126.128 18.9295C126.128 16.1915 128.349 13.9758 131.09 13.9758L160.247 13.9758C160.327 13.9758 160.388 13.9139 160.388 13.8352L160.388 0.490652C160.388 0.417573 160.327 0.350128 160.241 0.35C160.241 0.35 160.241 0.35 160.241 0.35L144.362 0.380286C142.215 0.386094 140.161 1.23985 138.649 2.74942L114.693 26.6702Z" stroke="#009A08" stroke-width="0.7"/>
<path d="M226.937 302.604L226.937 302.604C225.419 301.088 224.564 299.027 224.564 296.885L224.564 280.996C224.564 280.918 224.625 280.856 224.706 280.856L238.231 280.856C238.311 280.856 238.373 280.918 238.373 280.996L238.373 310.345C238.373 313.083 240.593 315.298 243.334 315.298L272.491 315.298C272.571 315.298 272.632 315.36 272.632 315.439L272.632 328.783C272.632 328.856 272.571 328.924 272.485 328.924C272.485 328.924 272.485 328.924 272.485 328.924L256.606 328.894C254.459 328.888 252.406 328.034 250.893 326.525L226.937 302.604Z" stroke="#081224" stroke-width="0.7"/>
<path d="M326.278 251.158L326.278 251.158C327.796 252.673 328.651 254.735 328.651 256.877L328.651 272.766C328.651 272.844 328.59 272.906 328.509 272.906L314.984 272.906C314.903 272.906 314.842 272.844 314.842 272.766L314.842 243.417C314.842 240.679 312.622 238.464 309.881 238.464L280.724 238.464C280.644 238.464 280.582 238.402 280.582 238.323L280.582 224.979C280.582 224.905 280.644 224.838 280.73 224.838C280.73 224.838 280.73 224.838 280.73 224.838L296.609 224.868C298.756 224.874 300.809 225.728 302.321 227.237L326.278 251.158Z" stroke="#081224" stroke-width="0.7"/>
<path d="M326.278 302.604L326.278 302.604C327.796 301.088 328.651 299.027 328.651 296.885L328.651 280.996C328.651 280.918 328.59 280.856 328.509 280.856L314.984 280.856C314.903 280.856 314.842 280.918 314.842 280.996L314.842 310.345C314.842 313.083 312.622 315.298 309.881 315.298L280.724 315.298C280.644 315.298 280.582 315.36 280.582 315.439L280.582 328.783C280.582 328.856 280.644 328.924 280.73 328.924C280.73 328.924 280.73 328.924 280.73 328.924L296.609 328.894C298.756 328.888 300.809 328.034 302.321 326.525L326.278 302.604Z" stroke="#FD8B0E" stroke-width="0.7"/>
<path d="M226.937 251.158L226.937 251.158C225.419 252.673 224.564 254.735 224.564 256.877L224.564 272.766C224.564 272.844 224.625 272.906 224.706 272.906L238.231 272.906C238.311 272.906 238.373 272.844 238.373 272.766L238.373 243.417C238.373 240.679 240.593 238.464 243.334 238.464L272.491 238.464C272.571 238.464 272.632 238.402 272.632 238.323L272.632 224.979C272.632 224.905 272.571 224.838 272.485 224.838C272.485 224.838 272.485 224.838 272.485 224.838L256.606 224.868C254.459 224.874 252.406 225.728 250.893 227.237L226.937 251.158Z" stroke="#009A08" stroke-width="0.7"/>
</svg>
