<svg width="108" height="106" viewBox="0 0 108 106" fill="none" xmlns="http://www.w3.org/2000/svg">
<path d="M48.052 71.2432L48.052 71.2432C46.0998 69.2884 45 66.629 45 63.865L45 43.2764C45 43.1986 45.059 43.1406 45.1349 43.1406L62.6075 43.1406C62.6835 43.1406 62.7424 43.1987 62.7424 43.2764L62.7424 81.3061C62.7424 84.8783 65.6308 87.7715 69.1999 87.7715L106.865 87.7715C106.941 87.7715 107 87.8296 107 87.9073L107 105.199C107 105.269 106.941 105.335 106.858 105.335C106.857 105.335 106.857 105.335 106.857 105.335L86.3446 105.296C83.5844 105.288 80.9441 104.187 78.9994 102.24C78.9994 102.24 78.9994 102.24 78.9994 102.24L48.052 71.2432Z" stroke="#081224"/>
<path d="M103.948 35.1025L103.948 35.1025C105.9 37.0573 107 39.7167 107 42.4807V63.0693C107 63.147 106.941 63.2051 106.865 63.2051H89.3925C89.3165 63.2051 89.2576 63.147 89.2576 63.0693V25.0396C89.2576 21.4674 86.3692 18.5742 82.8001 18.5742H45.1349C45.059 18.5742 45 18.5161 45 18.4384V1.14647C45 1.07681 45.0586 1.01085 45.1425 1.01068C45.1426 1.01068 45.1427 1.01068 45.1428 1.01068L65.6554 1.04993C68.4156 1.05742 71.0559 2.15846 73.0006 4.1057C73.0006 4.10571 73.0006 4.10573 73.0006 4.10574L103.948 35.1025Z" stroke="#009A08"/>
<path d="M4.05204 71.2432L4.052 71.2432C2.0998 69.2884 0.999996 66.629 0.999996 63.865L0.999998 43.2764C0.999998 43.1986 1.05897 43.1406 1.13494 43.1406L18.6075 43.1406C18.6835 43.1406 18.7424 43.1987 18.7424 43.2764L18.7424 81.3061C18.7424 84.8783 21.6308 87.7715 25.1999 87.7715L62.8651 87.7715C62.941 87.7715 63 87.8296 63 87.9073L63 105.199C63 105.269 62.9414 105.335 62.8575 105.335C62.8574 105.335 62.8573 105.335 62.8572 105.335L42.3446 105.296C39.5844 105.288 36.9441 104.187 34.9994 102.24C34.9994 102.24 34.9994 102.24 34.9994 102.24L4.05204 71.2432Z" stroke="#FD8B0E"/>
<path d="M59.948 35.1025L59.948 35.1025C61.9002 37.0573 63 39.7167 63 42.4807V63.0693C63 63.147 62.941 63.2051 62.8651 63.2051H45.3925C45.3165 63.2051 45.2576 63.147 45.2576 63.0693V25.0396C45.2576 21.4674 42.3692 18.5742 38.8001 18.5742H1.13494C1.05897 18.5742 1 18.5161 1 18.4384V1.14647C1 1.07681 1.05864 1.01085 1.14246 1.01068C1.14257 1.01068 1.14267 1.01068 1.14277 1.01068L21.6554 1.04993C24.4156 1.05742 27.0559 2.15846 29.0006 4.1057C29.0006 4.10571 29.0006 4.10573 29.0006 4.10574L59.948 35.1025Z" stroke="#081224"/>
</svg>
