<svg xmlns="http://www.w3.org/2000/svg" width="20" height="21" viewBox="0 0 20 21" fill="none">
	<path d="M16.8679 4.48732C15.6047 3.90772 14.2502 3.4807 12.8339 3.23613C12.8081 3.23141 12.7823 3.24321 12.7691 3.2668C12.5948 3.57664 12.4019 3.98086 12.2668 4.29857C10.7435 4.07051 9.228 4.07051 7.73594 4.29857C7.60079 3.97379 7.40082 3.57664 7.22583 3.2668C7.21254 3.244 7.18678 3.2322 7.16098 3.23613C5.7455 3.47992 4.39095 3.90694 3.127 4.48732C3.11606 4.49203 3.10668 4.4999 3.10046 4.51012C0.531157 8.3486 -0.172681 12.0927 0.172598 15.7904C0.174161 15.8085 0.184316 15.8258 0.198377 15.8368C1.89353 17.0817 3.53557 17.8375 5.14712 18.3384C5.17291 18.3463 5.20024 18.3368 5.21665 18.3156C5.59786 17.795 5.93768 17.2461 6.22904 16.6688C6.24624 16.635 6.22982 16.5949 6.19468 16.5816C5.65567 16.3771 5.14243 16.1278 4.64873 15.8447C4.60968 15.8219 4.60655 15.766 4.64247 15.7393C4.74637 15.6615 4.85029 15.5804 4.94949 15.4987C4.96744 15.4837 4.99245 15.4806 5.01355 15.49C8.25698 16.9708 11.7684 16.9708 14.9735 15.49C14.9946 15.4798 15.0196 15.4829 15.0384 15.4979C15.1376 15.5797 15.2415 15.6615 15.3462 15.7393C15.3821 15.766 15.3797 15.8219 15.3407 15.8447C14.847 16.1333 14.3337 16.3771 13.794 16.5808C13.7588 16.5941 13.7432 16.635 13.7604 16.6688C14.058 17.2453 14.3978 17.7942 14.772 18.3148C14.7876 18.3368 14.8157 18.3463 14.8415 18.3384C16.4609 17.8375 18.1029 17.0817 19.7981 15.8368C19.8129 15.8258 19.8223 15.8093 19.8239 15.7912C20.2371 11.5163 19.1317 7.80284 16.8936 4.5109C16.8882 4.4999 16.8788 4.49203 16.8679 4.48732ZM6.71339 13.5389C5.7369 13.5389 4.9323 12.6424 4.9323 11.5414C4.9323 10.4405 5.7213 9.54396 6.71339 9.54396C7.71328 9.54396 8.51009 10.4483 8.49446 11.5414C8.49446 12.6424 7.70546 13.5389 6.71339 13.5389ZM13.2987 13.5389C12.3222 13.5389 11.5176 12.6424 11.5176 11.5414C11.5176 10.4405 12.3066 9.54396 13.2987 9.54396C14.2986 9.54396 15.0954 10.4483 15.0798 11.5414C15.0798 12.6424 14.2986 13.5389 13.2987 13.5389Z" fill="#081224" />
</svg>
