<svg xmlns="http://www.w3.org/2000/svg" width="20" height="21" viewBox="0 0 20 21" fill="none">
	<g clip-path="url(#clip0_316_3630)">
		<path d="M9.99996 1.83276C5.39579 1.83276 1.66663 5.56193 1.66663 10.1661C1.66568 11.9155 2.21564 13.6208 3.23847 15.04C4.26131 16.4592 5.70508 17.5203 7.36496 18.0728C7.78163 18.1453 7.93746 17.8953 7.93746 17.6761C7.93746 17.4786 7.92663 16.8228 7.92663 16.1244C5.83329 16.5103 5.29163 15.6144 5.12496 15.1453C5.03079 14.9053 4.62496 14.1661 4.27079 13.9678C3.97913 13.8119 3.56246 13.4261 4.25996 13.4161C4.91663 13.4053 5.38496 14.0203 5.54163 14.2703C6.29163 15.5303 7.48996 15.1761 7.96829 14.9578C8.04163 14.4161 8.25996 14.0519 8.49996 13.8436C6.64579 13.6353 4.70829 12.9161 4.70829 9.7286C4.70829 8.82193 5.03079 8.07276 5.56246 7.4886C5.47913 7.28026 5.18746 6.4261 5.64579 5.28026C5.64579 5.28026 6.34329 5.06193 7.93746 6.13526C8.61585 5.94698 9.31677 5.85222 10.0208 5.8536C10.7291 5.8536 11.4375 5.94693 12.1041 6.13443C13.6975 5.0511 14.3958 5.2811 14.3958 5.2811C14.8541 6.42693 14.5625 7.2811 14.4791 7.48943C15.01 8.07276 15.3333 8.81193 15.3333 9.7286C15.3333 12.9269 13.3858 13.6353 11.5316 13.8436C11.8333 14.1036 12.0941 14.6036 12.0941 15.3853C12.0941 16.4994 12.0833 17.3953 12.0833 17.6769C12.0833 17.8953 12.24 18.1553 12.6566 18.0719C14.3108 17.5134 15.7482 16.4503 16.7665 15.0321C17.7849 13.6139 18.3328 11.912 18.3333 10.1661C18.3333 5.56193 14.6041 1.83276 9.99996 1.83276Z" fill="#081224" />
	</g>
	<defs>
		<clipPath id="clip0_316_3630">
			<rect width="20" height="20" fill="white" transform="translate(0 0.166016)" />
		</clipPath>
	</defs>
</svg>
