<svg xmlns="http://www.w3.org/2000/svg" width="20" height="21" viewBox="0 0 20 21" fill="none">
	<g clip-path="url(#clip0_316_3633)">
		<path d="M9.99996 18.4994C5.39746 18.4994 1.66663 14.7686 1.66663 10.1661C1.66663 5.5636 5.39746 1.83276 9.99996 1.83276C14.6025 1.83276 18.3333 5.5636 18.3333 10.1661C18.3333 14.7686 14.6025 18.4994 9.99996 18.4994ZM8.09163 16.5553C7.26947 14.8114 6.79319 12.9246 6.68913 10.9994H3.38496C3.54711 12.2818 4.07823 13.4896 4.91377 14.4759C5.74931 15.4621 6.8533 16.1845 8.09163 16.5553ZM8.35829 10.9994C8.48413 13.0319 9.06496 14.9411 9.99996 16.6261C10.9602 14.8966 11.5212 12.974 11.6416 10.9994H8.35829ZM16.615 10.9994H13.3108C13.2067 12.9246 12.7304 14.8114 11.9083 16.5553C13.1466 16.1845 14.2506 15.4621 15.0862 14.4759C15.9217 13.4896 16.4528 12.2818 16.615 10.9994ZM3.38496 9.33276H6.68913C6.79319 7.40759 7.26947 5.52084 8.09163 3.77693C6.8533 4.14766 5.74931 4.87006 4.91377 5.85634C4.07823 6.84263 3.54711 8.05035 3.38496 9.33276ZM8.35913 9.33276H11.6408C11.5206 7.35826 10.9599 5.43571 9.99996 3.7061C9.03969 5.43564 8.47876 7.3582 8.35829 9.33276H8.35913ZM11.9083 3.77693C12.7304 5.52084 13.2067 7.40759 13.3108 9.33276H16.615C16.4528 8.05035 15.9217 6.84263 15.0862 5.85634C14.2506 4.87006 13.1466 4.14766 11.9083 3.77693Z" fill="#081224" />
	</g>
	<defs>
		<clipPath id="clip0_316_3633">
			<rect width="20" height="20" fill="white" transform="translate(0 0.166016)" />
		</clipPath>
	</defs>
</svg>
